<svg width="59" height="91" viewBox="0 0 59 91" fill="none" xmlns="http://www.w3.org/2000/svg">
<path d="M47.9594 69.6164C46.0311 73.1327 43.0168 75.2569 39.4787 76.5639C31.9225 79.3552 24.2759 79.4506 16.819 76.3101C10.188 73.5175 6.7395 68.3732 6.74403 61.0617C6.74619 57.572 6.74316 54.0823 6.74252 50.5926C6.74243 50.128 6.74251 49.6635 6.74251 49.1809C7.52353 49.2023 7.44614 49.7732 7.56629 50.1196C8.2434 52.0721 8.99056 54.0106 9.50162 56.0083C10.6951 60.6735 15.1195 60.504 17.8118 58.8084C19.9853 57.4395 20.5296 55.764 19.7459 53.2634C18.4067 48.9906 17.0712 44.7166 15.716 40.4489C15.4644 39.6565 15.3637 38.8599 15.3637 38.0342C15.3637 28.7283 15.3518 19.4224 15.355 10.1165C15.3554 8.82436 15.4092 7.52972 15.937 6.31471C16.6814 4.60078 18.3526 3.51181 20.0989 3.59654C21.9067 3.68426 23.4628 4.8586 24.0822 6.59629C24.3905 7.46114 24.465 8.35282 24.464 9.26574C24.4543 18.787 24.455 28.3084 24.4548 37.8297C24.4548 38.2601 24.4569 38.6917 24.4872 39.1207C24.5154 39.5216 24.7471 39.7487 25.1597 39.7478C25.5765 39.7469 25.7945 39.5099 25.8187 39.1101C25.8447 38.6807 25.8476 38.2493 25.8475 37.8188C25.8453 27.1773 25.8433 16.5358 25.8343 5.89435C25.8336 4.98562 25.8687 4.0901 26.1524 3.21451C26.78 1.27742 28.4182 0.022371 30.3777 0.000288082C32.3208 -0.0216072 33.9728 1.20609 34.6147 3.17004C34.8838 3.99374 34.987 4.84453 34.9866 5.71393C34.9814 16.2692 34.9839 26.8245 34.9816 37.3798C34.9812 39.1506 34.9751 39.1506 33.1771 39.1645C30.7361 39.1835 29.5383 39.9012 29.1791 41.5967C28.9541 42.6588 29.3008 43.6584 29.6747 44.6155C31.1061 48.28 33.7819 50.0902 37.7018 50.1096C39.4255 50.1182 39.4307 50.1182 39.4358 51.8131C39.4418 53.7518 39.4348 55.6906 39.439 57.6293C39.44 58.1109 39.4208 58.6349 40.107 58.6592C40.7912 58.6834 40.8306 58.1829 40.8312 57.6857C40.8346 55.0577 40.8232 52.4296 40.8386 49.8017C40.843 49.0353 40.5147 48.7029 39.7502 48.7255C38.8475 48.7521 37.9348 48.6533 37.0413 48.7484C33.4394 49.132 30.7021 44.9642 30.5441 42.4281C30.4732 41.2908 30.9793 40.5725 32.1664 40.5677C37.114 40.5477 42.0619 40.5395 47.0094 40.5737C48.0451 40.5809 48.7631 41.2135 49.1625 42.1725C49.4665 42.9025 49.5125 43.6708 49.5115 44.4538C49.5036 50.6146 49.48 56.7756 49.5215 62.9362C49.5372 65.2728 49.0704 67.462 47.9594 69.6164Z" fill="white"/>
<path d="M52.9027 89.9406C52.6277 90.01 52.4572 90.039 52.286 90.0442C50.3129 90.1045 50.3129 90.1036 50.2736 87.9206C49.2619 89.2928 48.0441 90.1283 46.4386 90.289C44.8586 90.4471 43.4985 89.8852 42.1222 88.8092C42.1173 89.9904 41.463 90.0728 40.6543 90.0688C36.0939 90.046 31.5334 90.0532 26.973 90.0646C26.2532 90.0664 25.6916 90.0086 25.2953 89.2143C24.9162 88.4544 22.6532 88.5046 22.2375 89.2823C21.849 90.009 21.3275 90.0746 20.6509 90.0667C18.9302 90.0467 17.2092 90.0602 15.4883 90.053C14.563 90.0491 13.6525 90.221 13.0647 89.0864C12.7072 88.3964 10.4822 88.5948 10.0701 89.2984C9.73405 89.8721 9.33519 90.0618 8.72052 90.0583C6.18937 90.0443 3.65796 90.0362 1.12698 90.0611C0.290372 90.0692 -0.00981868 89.718 0.000243812 88.8981C0.0303747 86.4429 0.0318537 83.9869 0.0035606 81.5317C-0.00545015 80.7499 0.324056 80.4262 1.06947 80.4431C2.57319 80.477 4.08759 80.4061 5.57837 80.5624C8.16237 80.8332 8.90547 82.5971 7.40428 84.7352C7.53216 85.0968 7.85993 85.1854 8.2427 85.3156C8.90298 84.3471 9.11639 83.1911 9.55281 82.1349C10.2599 80.4237 10.6395 80.1493 12.4319 80.4657C13.0605 80.5767 13.6176 80.5637 14.2596 80.5155C16.6525 80.3361 19.0732 80.3926 21.4742 80.5268C22.3386 80.5751 23.15 80.3469 24.0057 80.3938C24.9027 80.4429 25.4289 80.725 25.7277 81.601C26.3374 83.3885 27.0254 85.1491 27.6812 86.9207C27.8272 86.9101 27.9733 86.8994 28.1193 86.8888C28.1193 85.1231 28.1788 83.3548 28.1009 81.5926C28.0358 80.1213 29.0474 80.4845 29.8438 80.4199C30.7169 80.3491 31.2178 80.5952 31.1736 81.6288C31.1076 83.1767 31.1972 84.7308 31.1511 86.2802C31.1216 87.2749 31.6748 87.3981 32.4594 87.3896C33.2406 87.3811 33.9416 87.393 33.9158 86.2866C33.8806 84.7798 33.9498 83.2703 33.9073 81.7639C33.8787 80.7499 34.3113 80.3857 35.2934 80.4104C36.9702 80.4525 38.6489 80.4139 40.3268 80.422C41.6868 80.4287 41.6868 80.4371 42.2089 81.619C45.3689 79.4436 48.0538 79.7739 50.2779 82.6411C50.2926 82.489 50.2939 82.3645 50.3181 82.2446C50.4418 81.6322 49.9848 80.8034 50.9447 80.4996C52.1333 80.1233 53.2913 80.4908 53.8578 81.44C54.4752 82.4745 55.066 83.5248 55.6752 84.5643C55.7104 84.6243 55.8065 84.6486 56.0494 84.7953C56.0494 83.6796 56.1047 82.6626 56.0342 81.6545C55.9607 80.6056 56.5348 80.4198 57.3757 80.4352C58.1593 80.4495 58.9954 80.3267 58.9913 81.5286C58.9829 84.0271 59.0022 86.5257 58.9998 89.0242C58.9993 89.4586 58.976 90.0095 58.4067 89.9951C57.4835 89.9717 56.3922 90.5346 55.7124 89.3998C54.9627 88.1484 54.2256 86.8893 53.4019 85.4964C53.0861 87.0526 53.6601 88.5325 52.9027 89.9406ZM45.7343 82.8183C44.0015 83.475 43.5107 86.1933 44.9191 87.3756C45.4629 87.8321 46.0702 87.9812 46.6885 87.5305C47.8204 86.7055 47.6484 85.4961 47.5305 84.3468C47.4369 83.4343 46.9165 82.8522 45.7343 82.8183ZM15.7175 87.3804C15.9555 87.6155 15.7433 88.116 16.2502 88.261C15.945 87.0249 16.3427 85.8445 16.2662 84.6526C16.1667 83.1038 15.9695 82.9385 14.1844 83.2762C14.6809 84.6026 15.168 85.9036 15.7175 87.3804ZM19.2754 84.5125C19.2754 85.6614 19.2754 86.8103 19.2754 87.9593C19.8004 87.1982 20.1265 86.4481 20.3802 85.6741C20.64 84.8815 21.1134 84.1342 21.042 83.2543C19.5246 82.9731 19.4765 83.0027 19.2754 84.5125ZM37.1576 87.0186C38.4388 87.9208 39.8568 87.155 41.2313 87.5248C41.3426 86.5945 41.0018 86.2446 40.2626 86.2394C39.4958 86.2339 38.729 86.2327 37.9622 86.2395C37.5559 86.2431 37.1815 86.3124 37.1576 87.0186ZM39.8939 83.9584C40.4048 83.9097 41.0367 84.102 41.2244 83.3329C39.7205 82.7128 37.6686 82.8837 37.1608 83.7044C37.9676 84.1647 38.842 83.8593 39.8939 83.9584ZM3.47746 86.1786C2.95149 86.3776 2.95865 86.796 3.08059 87.2263C3.17875 87.5727 3.50008 87.6311 3.79998 87.6161C4.47505 87.5824 5.49244 87.8844 5.5249 86.8803C5.55444 85.9668 4.58457 86.1528 3.93389 86.1198C3.85029 86.1156 3.76564 86.1321 3.47746 86.1786ZM5.10323 83.5949C5.00312 82.3925 4.10387 82.8679 3.47841 82.856C3.13727 82.8495 2.96355 83.1753 3.05618 83.5018C3.27571 84.2757 3.92086 83.9949 4.42992 83.9853C4.62105 83.9817 4.80952 83.8359 5.10323 83.5949ZM12.0619 86.4473C12.461 85.7374 11.9973 85.2204 11.6505 84.6711C11.7755 85.2802 10.0036 86.1353 12.0619 86.4473ZM24.1876 85.2376C24.0517 85.0516 24.1084 84.7067 23.7049 84.6978C23.4612 85.2195 23.2073 85.7433 23.2312 86.3651C24.2372 86.6457 24.4567 86.233 24.1876 85.2376Z" fill="white"/>
<path d="M45.0432 15.8037C45.0456 23.0813 45.0502 30.2296 45.0488 37.3778C45.0485 39.1592 45.0396 39.1642 43.2614 39.169C41.3262 39.1742 39.3904 39.1403 37.456 39.1806C36.5499 39.1994 36.1385 38.9324 36.1412 37.9416C36.168 28.0805 36.1402 18.2193 36.177 8.35823C36.1861 5.91576 37.763 4.22926 39.9625 4.07097C42.7457 3.87067 44.5438 5.14505 44.911 7.80678C45.2705 10.4122 44.982 13.0512 45.0432 15.8037Z" fill="white"/>
<path d="M14.758 42.0138C16.0817 45.9814 17.3766 49.8525 18.6549 53.7291C19.2554 55.5502 18.7935 56.7597 17.1761 57.7887C16.162 58.4339 15.0401 58.7048 13.8658 58.6872C12.458 58.6662 11.351 58.0686 10.8756 56.667C9.41168 52.3519 7.95109 48.0352 6.54926 43.6997C6.08136 42.2526 6.60808 40.9828 7.83169 40.0693C8.53321 39.5455 9.32273 39.2077 10.1745 39.0449C12.478 38.6047 13.8951 39.5105 14.758 42.0138Z" fill="white"/>
</svg>
