<svg version="1.1" id="Layer_1" xmlns="http://www.w3.org/2000/svg" xmlns:xlink="http://www.w3.org/1999/xlink" x="0px" y="0px"
	 width="100%" viewBox="0 0 400 560" enable-background="new 0 0 400 560" xml:space="preserve">
<path fill="#000000" opacity="1.000000" stroke="none" 
	d="
M283.349915,395.172119 
	C275.880707,408.774628 264.204346,416.992004 250.499268,422.048004 
	C221.229446,432.846100 191.609787,433.215149 162.724701,421.066345 
	C137.038803,410.263123 123.680878,390.362793 123.698418,362.078278 
	C123.706787,348.578491 123.695068,335.078705 123.692574,321.578918 
	C123.692238,319.781860 123.692535,317.984802 123.692535,316.118134 
	C126.717888,316.200806 126.418106,318.409119 126.883537,319.749420 
	C129.506393,327.302490 132.400558,334.801605 134.380203,342.529694 
	C139.003174,360.576813 156.141754,359.920959 166.570541,353.361542 
	C174.989807,348.066040 177.097992,341.584320 174.062210,331.910950 
	C168.874908,315.381775 163.701645,298.848053 158.452179,282.338623 
	C157.477509,279.273254 157.087662,276.191528 157.087646,272.997375 
	C157.087585,236.997864 157.041351,200.998367 157.053802,164.998856 
	C157.055527,160.000198 157.263947,154.991898 159.308075,150.291687 
	C162.191605,143.661407 168.665253,139.448776 175.429764,139.776566 
	C182.432556,140.115891 188.460129,144.658768 190.859558,151.380966 
	C192.053757,154.726624 192.342102,158.176056 192.338486,161.707642 
	C192.300705,198.540466 192.303696,235.373322 192.302734,272.206177 
	C192.302689,273.871338 192.311005,275.540833 192.428101,277.200348 
	C192.537552,278.751434 193.435211,279.629700 195.033325,279.626251 
	C196.647949,279.622742 197.492325,278.706116 197.585968,277.159637 
	C197.686584,275.498169 197.697723,273.829529 197.697388,272.164001 
	C197.688934,230.997849 197.681168,189.831696 197.646500,148.665558 
	C197.643524,145.150146 197.779800,141.685867 198.878616,138.298660 
	C201.309494,130.805130 207.655441,125.950005 215.245804,125.864578 
	C222.772629,125.779877 229.171661,130.529160 231.657913,138.126648 
	C232.700668,141.313110 233.100388,144.604340 233.098740,147.967606 
	C233.078690,188.800354 233.088287,229.633102 233.079391,270.465851 
	C233.077896,277.316010 233.054260,277.316040 226.089523,277.369995 
	C216.633911,277.443298 211.994324,280.219849 210.602966,286.778717 
	C209.731354,290.887543 211.074295,294.754303 212.522598,298.457092 
	C218.067245,312.632782 228.432083,319.635468 243.616364,319.710754 
	C250.293030,319.743835 250.313187,319.743774 250.333282,326.300720 
	C250.356277,333.800507 250.329346,341.300507 250.345413,348.800354 
	C250.349396,350.663330 250.275116,352.690491 252.933121,352.784393 
	C255.583282,352.877991 255.735825,350.942017 255.738327,349.018616 
	C255.751480,338.852203 255.707260,328.685547 255.766800,318.519470 
	C255.784164,315.554932 254.512222,314.269043 251.551117,314.356201 
	C248.054108,314.459137 244.518951,314.076813 241.057770,314.444946 
	C227.105286,315.928833 216.502106,299.805786 215.890121,289.994995 
	C215.615692,285.595520 217.576080,282.816772 222.174255,282.798187 
	C241.339478,282.720673 260.505707,282.689209 279.670288,282.821411 
	C283.682098,282.849091 286.463379,285.296417 288.010468,289.006226 
	C289.188141,291.830322 289.365967,294.802490 289.362122,297.831238 
	C289.331818,321.664215 289.240326,345.497955 289.400970,369.329926 
	C289.461914,378.369080 287.653778,386.837646 283.349915,395.172119 
z"/>
<path fill="#000000" opacity="1.000000" stroke="none" 
	d="
M302.498474,473.795654 
	C301.433014,474.064331 300.772644,474.176361 300.109406,474.196594 
	C292.466431,474.429962 292.466309,474.426270 292.314362,465.981415 
	C288.395508,471.289978 283.678131,474.522003 277.459198,475.143524 
	C271.338654,475.755249 266.070251,473.581573 260.738892,469.419159 
	C260.719940,473.988434 258.185425,474.307220 255.052933,474.291626 
	C237.388031,474.203674 219.722412,474.231323 202.057175,474.275482 
	C199.268845,474.282440 197.093460,474.058960 195.558426,470.986053 
	C194.090073,468.046661 185.323975,468.240845 183.713684,471.249268 
	C182.208969,474.060455 180.188873,474.314240 177.568100,474.283783 
	C170.902756,474.206360 164.236023,474.258636 157.569962,474.230560 
	C153.985886,474.215485 150.459015,474.880585 148.181946,470.491364 
	C146.797119,467.822083 138.178558,468.589783 136.582138,471.311554 
	C135.280472,473.530731 133.735474,474.264526 131.354462,474.251312 
	C121.549850,474.196838 111.744164,474.165802 101.940201,474.261780 
	C98.699509,474.293488 97.536690,472.934601 97.575668,469.763000 
	C97.692383,460.265137 97.698112,450.764191 97.588516,441.266266 
	C97.553612,438.241943 98.829987,436.989716 101.717430,437.054901 
	C107.542206,437.186371 113.408401,436.912079 119.183060,437.516479 
	C129.192444,438.564117 132.070908,445.387726 126.255905,453.658905 
	C126.751244,455.057587 128.020905,455.400635 129.503586,455.904022 
	C132.061249,452.157410 132.887909,447.685760 134.578430,443.599731 
	C137.317261,436.980042 138.787720,435.918518 145.730957,437.142578 
	C148.165756,437.571869 150.323883,437.521454 152.810562,437.335205 
	C162.079895,436.640991 171.456604,436.859833 180.757126,437.378845 
	C184.105423,437.565704 187.248550,436.682892 190.562943,436.864197 
	C194.037643,437.054291 196.076111,438.145721 197.233444,441.534424 
	C199.594971,448.449097 202.260345,455.259979 204.800552,462.113617 
	C205.366196,462.072388 205.931824,462.031158 206.497467,461.989929 
	C206.497467,455.159515 206.728149,448.318848 206.426193,441.501801 
	C206.174103,435.810150 210.092422,437.215210 213.177307,436.965332 
	C216.559448,436.691376 218.499634,437.643555 218.328751,441.641846 
	C218.072815,447.629944 218.419983,453.641968 218.241547,459.635803 
	C218.127014,463.483521 220.269989,463.960083 223.309128,463.927246 
	C226.335419,463.894501 229.050842,463.940613 228.950806,459.660400 
	C228.814590,453.831299 229.082413,447.992096 228.917892,442.164581 
	C228.807159,438.241852 230.482773,436.833191 234.287048,436.928558 
	C240.782379,437.091431 247.284973,436.941986 253.784286,436.973633 
	C259.052551,436.999298 259.052399,437.031799 261.074860,441.604187 
	C273.315308,433.188538 283.715546,434.466461 292.330994,445.557831 
	C292.388000,444.969513 292.392822,444.487823 292.486572,444.024170 
	C292.965668,441.655151 291.195557,438.448914 294.913727,437.273529 
	C299.518066,435.818024 304.003723,437.239746 306.198029,440.911743 
	C308.589447,444.913574 310.878143,448.976715 313.237885,452.997711 
	C313.374268,453.230072 313.746674,453.323944 314.687469,453.891266 
	C314.687469,449.575287 314.901764,445.641266 314.628326,441.741394 
	C314.343842,437.683594 316.567505,436.964813 319.824860,437.024384 
	C322.860168,437.079926 326.098816,436.604645 326.083191,441.254120 
	C326.050690,450.919556 326.125488,460.585297 326.115936,470.250885 
	C326.114258,471.931396 326.023651,474.062439 323.818787,474.006592 
	C320.242554,473.916046 316.015228,476.093781 313.381897,471.703888 
	C310.477753,466.862579 307.622589,461.991852 304.432190,456.603760 
	C303.208679,462.623749 305.432037,468.348785 302.498474,473.795654 
M274.730835,446.243622 
	C268.018677,448.783722 266.117676,459.299561 271.573029,463.873199 
	C273.679504,465.639191 276.031830,466.215790 278.427155,464.472351 
	C282.811523,461.281097 282.145447,456.602264 281.688599,452.156464 
	C281.325867,448.626495 279.310181,446.374451 274.730835,446.243622 
M158.457886,463.891846 
	C159.379898,464.801178 158.557999,466.737305 160.521408,467.298462 
	C159.339264,462.516388 160.879852,457.950317 160.583344,453.339233 
	C160.198090,447.347961 159.433975,446.708374 152.519318,448.014862 
	C154.442657,453.145782 156.329361,458.178986 158.457886,463.891846 
M172.239777,452.797241 
	C172.239777,457.241852 172.239777,461.686462 172.239777,466.131073 
	C174.273560,463.187042 175.536636,460.285126 176.519241,457.291199 
	C177.525635,454.224731 179.359451,451.333923 179.082855,447.930115 
	C173.205276,446.842377 173.018845,446.956665 172.239777,452.797241 
M241.508209,462.492004 
	C246.471191,465.982117 251.963684,463.019714 257.287872,464.450439 
	C257.719299,460.851440 256.399078,459.497986 253.535797,459.477753 
	C250.565598,459.456726 247.595001,459.452087 244.624908,459.478333 
	C243.050964,459.492249 241.600693,459.760315 241.508209,462.492004 
M252.107666,450.653748 
	C254.086365,450.465332 256.534332,451.209351 257.261414,448.234192 
	C251.435822,445.835144 243.487717,446.496490 241.520569,449.671326 
	C244.645950,451.452148 248.032852,450.270599 252.107666,450.653748 
M111.045006,459.242584 
	C109.007599,460.012299 109.035339,461.631134 109.507675,463.295593 
	C109.887901,464.635498 111.132614,464.861633 112.294289,464.803680 
	C114.909248,464.673126 118.850197,465.841370 118.975960,461.957031 
	C119.090363,458.423340 115.333473,459.142975 112.813034,459.015228 
	C112.489197,458.998840 112.161285,459.062866 111.045006,459.242584 
M117.342583,449.247559 
	C116.954781,444.596100 113.471436,446.435150 111.048683,446.389191 
	C109.727242,446.364105 109.054298,447.624329 109.413124,448.887573 
	C110.263496,451.881409 112.762550,450.795044 114.734421,450.758026 
	C115.474800,450.744171 116.204857,450.180023 117.342583,449.247559 
M144.297516,460.282074 
	C145.843506,457.535980 144.047226,455.536011 142.704086,453.410858 
	C143.188156,455.767212 136.324600,459.075134 144.297516,460.282074 
M191.267624,455.602386 
	C190.741364,454.882751 190.960800,453.548737 189.397934,453.514282 
	C188.453751,455.532227 187.470551,457.558838 187.563019,459.964233 
	C191.459717,461.049500 192.309937,459.453125 191.267624,455.602386 
z"/>
<path fill="#000000" opacity="1.000000" stroke="none" 
	d="
M272.054016,187.000000 
	C272.063080,215.152878 272.081055,242.805740 272.075714,270.458618 
	C272.074371,277.349670 272.039856,277.369110 265.151947,277.387573 
	C257.655762,277.407654 250.157166,277.276794 242.664215,277.432373 
	C239.154205,277.505219 237.560745,276.472351 237.571182,272.639526 
	C237.675034,234.492264 237.567184,196.344345 237.709717,158.197327 
	C237.745010,148.748703 243.853363,142.224548 252.373093,141.612198 
	C263.154449,140.837326 270.119324,145.767242 271.541870,156.064041 
	C272.934326,166.143158 271.816833,176.351730 272.054016,187.000000 
z"/>
<path fill="#000000" opacity="1.000000" stroke="none" 
	d="
M154.741379,288.392090 
	C159.868881,303.740662 164.884689,318.715942 169.836273,333.712433 
	C172.162338,340.757233 170.373123,345.436127 164.107819,349.416870 
	C160.179642,351.912720 155.833893,352.960541 151.285065,352.892609 
	C145.831924,352.811157 141.544006,350.499481 139.702225,345.077576 
	C134.031784,328.384674 128.374054,311.685760 122.943932,294.913879 
	C121.131493,289.315857 123.171776,284.403931 127.911537,280.869751 
	C130.628937,278.843536 133.687225,277.536713 136.986633,276.907043 
	C145.909637,275.204010 151.398926,278.708344 154.741379,288.392090 
z"/>
</svg>