<svg width="70" height="70" viewBox="0 0 70 70" fill="none" xmlns="http://www.w3.org/2000/svg">
<path d="M64.1667 17.5001C64.1071 15.0762 63.2937 12.7311 61.8397 10.7908C60.3857 8.8505 58.3633 7.41143 56.0537 6.67362C53.744 5.93582 51.2619 5.93594 48.9523 6.67398C46.6427 7.41202 44.6205 8.8513 43.1667 10.7917C30.9167 27.7084 27.7084 30.9167 10.7917 43.1667C9.28713 44.0879 8.01105 45.3382 7.05946 46.8237C6.10787 48.3092 5.50555 49.9912 5.29783 51.7431C5.09011 53.4949 5.28239 55.2711 5.8602 56.938C6.43802 58.6048 7.38632 60.1189 8.63376 61.3663C9.88121 62.6138 11.3953 63.5621 13.0621 64.1399C14.729 64.7177 16.5052 64.91 18.257 64.7023C20.0089 64.4946 21.6909 63.8922 23.1764 62.9407C24.6619 61.9891 25.9122 60.713 26.8334 59.2084C39.0834 42.2917 42.2917 39.0834 59.2084 26.8334C62.125 24.7917 64.1667 21.2917 64.1667 17.5001Z" stroke="black" stroke-width="6.66667" stroke-linecap="round" stroke-linejoin="round"/>
<path d="M17.9376 37.9167H32.0835V52.0626" stroke="black" stroke-width="6.66667" stroke-linecap="round" stroke-linejoin="round"/>
</svg>
