<svg width="68" height="75" viewBox="0 0 68 75" fill="none" xmlns="http://www.w3.org/2000/svg">
<path d="M4.1331 73.7941C4.76702 73.7941 5.21329 73.7657 5.47539 73.7056C5.73748 73.6453 6.00305 73.5532 6.26876 73.4186C6.53433 73.284 6.73975 73.1531 6.87795 73.0114C7.07976 72.8201 7.23908 72.5793 7.35242 72.2925C7.46576 72.0055 7.52243 71.6867 7.52243 71.3396C7.52243 70.8509 7.39853 70.4402 7.15408 70.1072C6.90628 69.7743 6.57682 69.5547 6.15889 69.4414C6.86725 68.9845 7.22144 68.4071 7.22144 67.7024C7.22144 66.9728 6.90976 66.4168 6.29001 66.0379C5.81179 65.7438 5.06815 65.5987 4.05879 65.5987H0V73.7941H4.1331ZM3.45668 67.4439C3.83559 67.4439 4.08713 67.4615 4.20033 67.4935C4.35978 67.5395 4.48729 67.621 4.58285 67.7449C4.67854 67.8688 4.72813 68.0105 4.72813 68.1699C4.72813 68.3824 4.6466 68.5524 4.48368 68.687C4.32075 68.8216 4.03046 68.8888 3.616 68.8888H2.59956V67.4439H3.45668ZM3.69392 70.3657C4.22519 70.3657 4.57576 70.4331 4.74577 70.564C4.91578 70.6952 5.00078 70.8828 5.00078 71.1271C5.00078 71.3751 4.91578 71.5699 4.7423 71.708C4.56868 71.8462 4.22158 71.917 3.69753 71.917H2.60304V70.3657H3.69392ZM11.9141 70.3657C11.9141 70.9537 11.953 71.3892 12.0275 71.6691C12.1479 72.1118 12.3143 72.4694 12.5233 72.7351C12.7322 73.0007 12.9909 73.231 13.3024 73.4257C13.6141 73.6206 13.9824 73.7693 14.4075 73.872C14.8325 73.9746 15.3354 74.0242 15.9163 74.0242C16.412 74.0242 16.8724 73.9746 17.2974 73.8754C17.7225 73.7764 18.0872 73.6277 18.4025 73.4364C18.7142 73.2415 18.9797 73.0114 19.1959 72.7422C19.4118 72.473 19.5677 72.1649 19.6632 71.8142C19.7589 71.4637 19.8049 70.9891 19.8049 70.387V65.6022H17.1274V70.6491C17.1274 71.1166 17.0177 71.4566 16.8016 71.6691C16.5856 71.8816 16.2775 71.9879 15.8809 71.9879C15.6081 71.9879 15.3672 71.9347 15.1583 71.8284C14.9458 71.7222 14.8007 71.5805 14.7191 71.4105C14.6377 71.2405 14.5987 70.9855 14.5987 70.6527V65.6058H11.9212V70.3657H11.9141ZM26.9344 73.7941V70.943H27.9792C28.3227 70.943 28.5777 70.982 28.7477 71.0599C28.9177 71.1378 29.0452 71.2546 29.1302 71.407C29.2152 71.5592 29.2577 71.7753 29.2612 72.0551L29.279 72.6607C29.2895 73.1956 29.332 73.5745 29.4099 73.7941H32.1335V73.539C32.0344 73.532 31.967 73.5036 31.9316 73.454C31.8998 73.4186 31.882 73.3089 31.8749 73.1211L31.836 71.8284C31.8219 71.2512 31.7191 70.8438 31.5314 70.5995C31.3438 70.3551 30.986 70.1355 30.4583 69.9372C30.7133 69.8698 30.9258 69.7707 31.0922 69.6432C31.3296 69.4626 31.5138 69.2325 31.6412 68.9526C31.7723 68.6729 31.836 68.3292 31.836 67.9184C31.836 67.5856 31.7935 67.3093 31.7085 67.0897C31.6235 66.8665 31.496 66.6576 31.326 66.4593C31.156 66.2609 30.9471 66.098 30.6992 65.9705C30.4512 65.843 30.1396 65.7474 29.7606 65.6872C29.3816 65.627 28.9106 65.5951 28.3475 65.5951H24.3418V73.7906H26.9344V73.7941ZM26.9344 67.5714H28.2518C28.6591 67.5714 28.9424 67.6386 29.1053 67.7768C29.2683 67.9149 29.3498 68.1062 29.3498 68.3541C29.3498 68.5949 29.2648 68.7862 29.0948 68.9313C28.9248 69.073 28.6343 69.1474 28.22 69.1474H26.9379V67.5714H26.9344ZM35.8736 67.7556H38.296V73.7941H40.9735V67.7556H43.396V65.5987H35.8736V67.7556ZM55.3314 71.8072C55.6467 71.1555 55.806 70.4153 55.806 69.5972C55.806 68.7579 55.6254 68.0141 55.2676 67.3695C54.91 66.7248 54.3894 66.2326 53.7094 65.8926C53.0293 65.5526 52.2855 65.3826 51.4745 65.3826C51.0495 65.3826 50.6423 65.4322 50.2527 65.5313C49.8631 65.6305 49.5018 65.7722 49.1725 65.9563C48.8396 66.1405 48.5208 66.399 48.2162 66.7426C47.9081 67.0826 47.6673 67.5006 47.4866 67.9999C47.306 68.4958 47.2139 69.0588 47.2139 69.6822C47.2139 70.9891 47.607 72.0374 48.3898 72.8236C49.1725 73.6099 50.2207 74.0066 51.5312 74.0066C52.4626 74.0066 53.2489 73.8046 53.8935 73.3974C54.5345 72.9901 55.0126 72.4623 55.3314 71.8072ZM50.3907 71.4884C50.0402 71.0563 49.8666 70.4543 49.8666 69.6857C49.8666 69.1722 49.9446 68.7437 50.0968 68.3966C50.2491 68.0495 50.4545 67.7909 50.7166 67.6245C50.9752 67.4581 51.2515 67.3765 51.5454 67.3765C51.8075 67.3765 52.0447 67.4368 52.2537 67.5572C52.4626 67.6777 52.6292 67.8263 52.7531 68.0034C52.8771 68.1805 52.9763 68.4142 53.0506 68.7012C53.1249 68.988 53.1603 69.3173 53.1603 69.6857C53.1603 70.1993 53.086 70.6314 52.9336 70.9891C52.7814 71.3467 52.5831 71.5983 52.328 71.7541C52.0766 71.9099 51.7968 71.9843 51.4923 71.9843C51.0319 71.9843 50.6635 71.8213 50.3907 71.4884ZM62.6803 73.7941V69.5122L65.4428 73.7941H68V65.5987H65.4252V69.9868L62.6024 65.5987H60.102V73.7941H62.6803Z" fill="white"/>
<path d="M47.894 23.095C48.7014 22.8153 49.8631 22.1211 50.9291 21.8023C51.5632 21.6147 52.2396 21.8944 52.5052 22.5C52.5052 22.5 56.0185 29.8384 59.6594 38.2924C63.6403 47.5432 67.7875 57.991 67.908 58.2709C68.0921 58.6923 67.9505 59.1599 67.6104 59.3865C67.1358 59.7017 66.6542 59.4928 66.3779 59.1457C66.3779 59.1457 61.5188 50.8759 59.7869 48.0389C59.422 47.444 58.4659 47.5963 58.3206 48.301C58.016 49.785 57.7611 52.0906 57.0952 53.6384C56.9287 54.028 56.479 54.1838 56.1035 53.9818C55.2004 53.5003 54.4354 52.7954 53.8794 51.9384L53.6669 51.609C53.2949 51.0352 53.0188 50.4049 52.8488 49.7425L52.3813 47.9398C52.3175 47.6991 52.2218 47.4724 52.1297 47.2421C51.9527 46.8029 51.5737 46.0061 51.3612 45.6201C51.0566 45.071 50.2811 45.0746 50.0402 45.6519L49.4523 47.0686C49.1689 47.7557 48.574 48.2692 47.855 48.4605C47.4194 48.5773 47.214 48.6021 46.913 48.6623C46.658 48.7119 46.4489 48.8926 46.3675 49.1369C46.1302 49.8417 45.7335 51.0635 45.4183 51.786C45.2129 52.2536 44.6853 52.3634 44.2602 52.0836C43.6581 51.6905 43.2792 51.2264 42.9109 50.8866C41.9758 50.0294 41.2958 48.9315 41.0231 47.692L40.4246 44.9967C40.2901 44.384 40.0421 43.8067 39.7552 43.2507C39.3445 42.4502 38.5936 41.1045 38.1332 40.35C37.701 39.6452 36.7943 39.7515 36.6846 40.5767C36.4721 42.1881 35.9762 44.7099 35.5407 45.9706C35.2466 46.8207 34.5597 46.6082 34.2409 46.2469C34.0956 46.0805 33.5573 45.2659 33.4014 45.0639C32.9729 44.515 31.7334 44.2565 31.3331 46.2859C30.9896 48.0425 30.1715 50.7129 29.6332 52.1226C29.3958 52.7423 28.6415 52.8591 28.2909 52.2926C27.6038 51.1769 26.7963 49.4769 26.2969 48.5384C25.9427 47.8689 25.2592 47.4404 24.5013 47.4121L24.1649 47.3979C23.3432 47.3661 22.6172 46.8632 22.2948 46.1088L21.211 43.5658C21.0836 43.2683 20.857 43.0205 20.57 42.8718L19.5783 42.3476C18.7956 41.9331 18.1085 41.3629 17.5596 40.6687L17.0212 40.003C16.2776 38.8802 14.9742 39.0184 14.5917 40.5519C14.1312 42.3901 12.7642 46.8383 12.1798 48.2656C11.9709 48.7722 11.3936 48.928 10.9862 48.5597C10.1788 47.83 9.82466 46.5762 9.10921 46.1123C8.59919 45.783 8.0325 45.9352 7.80235 46.3744C6.17311 49.4946 1.70707 59.0465 1.70707 59.0465C1.38831 59.6025 0.683554 59.6238 0.386041 59.3475C-0.0849538 58.9154 -0.0211996 58.3736 0.131032 57.9556C0.131032 57.9556 3.47438 46.3744 4.7529 42.5281C6.16602 38.2746 8.00069 33.5572 8.00069 33.5572C8.25209 32.7992 8.80822 32.1795 9.53771 31.8536L10.7383 31.3117C11.3865 31.0212 11.9 30.5006 12.1798 29.8489C12.998 27.9578 14.6165 24.193 15.4559 22.2521C15.6613 21.7776 16.0863 21.4376 16.5927 21.3384C17.2515 21.2109 17.9174 21.0656 18.353 20.963C18.9338 20.8284 19.4261 20.4423 19.7129 19.9182L26.6971 7.12209C26.9699 6.62276 27.4302 6.25442 27.9792 6.09858L29.6083 5.63466C30.0192 5.51772 30.3768 5.25215 30.6106 4.89449L33.3696 0.623189C33.6493 0.1911 34.2763 0.176932 34.5702 0.601937C36.0365 2.7269 38.7671 8.09616 40.924 12.1265C42.9143 15.8523 45.0819 20.5592 46.0664 22.3619C46.4171 23.0278 47.1927 23.3395 47.894 23.095Z" fill="white"/>
</svg>
