<svg width="27" height="27" viewBox="0 0 27 27" fill="none" xmlns="http://www.w3.org/2000/svg">
<path d="M19.2113 20.3163C19.7859 20.3163 20.337 20.5446 20.7433 20.9509C21.1497 21.3573 21.3779 21.9084 21.3779 22.483C21.3779 23.0576 21.1497 23.6087 20.7433 24.0151C20.337 24.4214 19.7859 24.6497 19.2113 24.6497C18.6366 24.6497 18.0855 24.4214 17.6792 24.0151C17.2729 23.6087 17.0446 23.0576 17.0446 22.483C17.0446 21.2805 18.0088 20.3163 19.2113 20.3163ZM1.87793 2.983H5.42043L6.43876 5.14967H22.4613C22.7486 5.14967 23.0241 5.26381 23.2273 5.46697C23.4305 5.67014 23.5446 5.94569 23.5446 6.233C23.5446 6.41717 23.4904 6.60134 23.4146 6.77467L19.5363 13.7838C19.1679 14.4447 18.4529 14.8997 17.6404 14.8997H9.5696L8.5946 16.6655L8.5621 16.7955C8.5621 16.8673 8.59063 16.9362 8.64142 16.987C8.69221 17.0378 8.7611 17.0663 8.83293 17.0663H21.3779V19.233H8.37793C7.80329 19.233 7.25219 19.0047 6.84586 18.5984C6.43954 18.1921 6.21126 17.641 6.21126 17.0663C6.21126 16.6872 6.30876 16.3297 6.47126 16.0263L7.9446 13.3722L4.0446 5.14967H1.87793V2.983ZM8.37793 20.3163C8.95256 20.3163 9.50366 20.5446 9.90999 20.9509C10.3163 21.3573 10.5446 21.9084 10.5446 22.483C10.5446 23.0576 10.3163 23.6087 9.90999 24.0151C9.50366 24.4214 8.95256 24.6497 8.37793 24.6497C7.80329 24.6497 7.25219 24.4214 6.84586 24.0151C6.43954 23.6087 6.21126 23.0576 6.21126 22.483C6.21126 21.2805 7.17543 20.3163 8.37793 20.3163ZM18.1279 12.733L21.1396 7.31634H7.44626L10.0029 12.733H18.1279Z" fill="white"/>
</svg>
