<svg width="70" height="70" viewBox="0 0 70 70" fill="none" xmlns="http://www.w3.org/2000/svg">
<path d="M45.9375 35C45.9375 32.8368 45.296 30.7221 44.0942 28.9235C42.8924 27.1248 41.1842 25.7229 39.1856 24.8951C37.187 24.0672 34.9879 23.8506 32.8662 24.2727C30.7445 24.6947 28.7957 25.7364 27.266 27.266C25.7364 28.7957 24.6947 30.7445 24.2727 32.8662C23.8506 34.9879 24.0672 37.187 24.8951 39.1856C25.7229 41.1842 27.1248 42.8924 28.9235 44.0942C30.7221 45.296 32.8368 45.9375 35 45.9375C37.8998 45.9342 40.6799 44.7809 42.7304 42.7304C44.7809 40.6799 45.9342 37.8998 45.9375 35ZM28.4375 35C28.4375 33.7021 28.8224 32.4333 29.5435 31.3541C30.2646 30.2749 31.2895 29.4337 32.4886 28.937C33.6878 28.4403 35.0073 28.3104 36.2803 28.5636C37.5533 28.8168 38.7226 29.4418 39.6404 30.3596C40.5582 31.2774 41.1832 32.4467 41.4364 33.7197C41.6896 34.9927 41.5597 36.3122 41.063 37.5114C40.5663 38.7105 39.7251 39.7354 38.6459 40.4565C37.5667 41.1776 36.2979 41.5625 35 41.5625C33.2601 41.5605 31.5921 40.8685 30.3618 39.6382C29.1315 38.4079 28.4395 36.7399 28.4375 35ZM21.875 54.4124L33.5381 67.8125H36.4619L48.125 54.4124V50.3125H21.875V54.4124ZM42.0854 54.6875L35 62.8283L27.9146 54.6875H42.0854ZM33.5381 2.1875L21.875 15.5876V19.6875H48.125V15.5876L36.4619 2.1875H33.5381ZM27.9146 15.3125L35 7.17172L42.0854 15.3125H27.9146ZM2.1875 33.5381V36.4619L15.5877 48.125H19.6875V21.875H15.5877L2.1875 33.5381ZM15.3125 42.0856L7.17158 35L15.3125 27.9144V42.0856ZM54.4123 21.875H50.3125V48.125H54.4123L67.8125 36.4619V33.5381L54.4123 21.875ZM54.6875 42.0856V27.9144L62.8284 35L54.6875 42.0856Z" fill="black"/>
</svg>
