<svg version="1.1" id="Layer_1" xmlns="http://www.w3.org/2000/svg" xmlns:xlink="http://www.w3.org/1999/xlink" x="0px" y="0px"
	 width="100%" viewBox="0 0 896 896" enable-background="new 0 0 896 896" xml:space="preserve">
<path fill="#000000" opacity="1.000000" stroke="none" 
	d="
M761.222046,499.671844 
	C760.916992,502.999756 758.697937,502.910522 756.727661,502.915833 
	C744.396057,502.948975 732.063599,502.834259 719.732910,502.942230 
	C714.888367,502.984619 715.063782,499.839355 715.066162,496.537781 
	C715.085876,468.874359 715.057251,441.210876 715.103821,413.547546 
	C715.128784,398.718903 715.200500,383.889435 715.409607,369.062561 
	C715.468445,364.886810 714.076416,363.026581 709.635376,363.104645 
	C698.307007,363.303833 686.967773,363.353516 675.643005,363.066589 
	C671.100281,362.951508 669.269043,364.602173 668.226807,368.965912 
	C658.023499,411.686371 647.556763,454.343933 637.363892,497.066864 
	C636.319153,501.446045 634.480286,503.087616 629.968140,503.030975 
	C613.139343,502.819611 596.306152,502.876617 579.475342,502.971191 
	C575.929871,502.991089 574.020935,501.897095 573.282410,498.164093 
	C568.150757,472.226135 562.864136,446.318787 557.605835,420.405975 
	C555.400391,409.537537 553.142944,398.679688 550.009094,387.775970 
	C547.809326,399.494446 545.586243,411.208588 543.414551,422.932281 
	C538.780090,447.951385 534.113770,472.964874 529.617676,498.008911 
	C528.957764,501.685272 527.306824,503.061035 523.647522,503.035034 
	C505.650360,502.907104 487.652008,502.883209 469.654449,502.939148 
	C466.003784,502.950500 464.456818,501.421967 463.615387,497.871307 
	C453.681366,455.950958 443.594666,414.066711 433.552185,372.172058 
	C431.386841,363.138763 431.394226,363.129150 422.009033,363.132812 
	C401.011505,363.140991 380.012787,363.281250 359.017365,363.077515 
	C354.234680,363.031097 352.324829,364.741333 352.411835,369.362427 
	C352.518433,375.023468 352.479095,380.688477 352.426025,386.351013 
	C352.384033,390.830444 354.086945,392.878174 358.992065,392.824768 
	C378.654022,392.610718 398.319763,392.736298 417.984100,392.753784 
	C423.516022,392.758698 423.762207,393.064362 422.468018,398.499420 
	C420.115631,408.378601 417.598816,418.220520 415.396698,428.132660 
	C414.561523,431.891815 412.785004,433.236053 408.885376,433.190826 
	C392.889526,433.005157 376.890106,433.128906 360.891998,433.133911 
	C352.817017,433.136444 352.475830,433.266357 352.480652,441.567200 
	C352.489838,457.393341 352.849152,473.219086 352.897430,489.045471 
	C352.950195,506.347626 353.188446,502.610718 339.024261,502.917419 
	C330.029602,503.112213 321.026184,502.870331 312.028748,502.985168 
	C308.259308,503.033295 306.735748,501.671906 306.742432,497.711304 
	C306.837646,441.051422 306.841675,384.391296 306.758850,327.731384 
	C306.753082,323.787292 308.164246,322.582092 312.019257,322.589203 
	C363.013123,322.683350 414.007263,322.680450 465.001190,322.596497 
	C468.433929,322.590851 470.033783,323.659241 470.790619,327.116547 
	C478.541199,362.522522 486.418549,397.900818 494.313416,433.275055 
	C494.838928,435.629608 494.804993,438.255249 496.663788,440.113434 
	C498.502594,440.128296 498.444397,438.812317 498.677826,437.698547 
	C504.341064,410.674713 510.005005,383.651001 515.678162,356.629242 
	C517.727783,346.866577 519.872131,337.123108 521.827026,327.341644 
	C522.531250,323.818085 524.205811,322.510895 527.934265,322.561676 
	C543.096375,322.768311 558.267212,322.852264 573.425171,322.528076 
	C578.000000,322.430206 579.414917,324.346252 580.245117,328.269348 
	C586.202637,356.419678 592.278503,384.544983 598.334167,412.674530 
	C600.246033,421.555328 602.210754,430.424744 605.344543,439.363159 
	C607.413879,430.687897 609.557068,422.029449 611.538940,413.334229 
	C618.119141,384.464081 624.711426,355.596222 631.107605,326.685150 
	C632.032227,322.505585 634.628113,322.623199 637.745789,322.625641 
	C676.574585,322.656036 715.403381,322.644806 754.232178,322.646149 
	C771.730164,322.646729 789.229431,322.768372 806.725159,322.571106 
	C811.043701,322.522430 812.589905,323.757446 812.456970,328.227264 
	C812.159973,338.217163 812.253479,348.224182 812.430603,358.219879 
	C812.495972,361.908081 811.157227,363.220764 807.497192,363.186584 
	C794.333313,363.063568 781.167480,363.155762 768.002380,363.165070 
	C761.321960,363.169769 761.286987,363.168243 761.283752,369.729553 
	C761.262329,412.888794 761.257202,456.048035 761.222046,499.671844 
z"/>
<path fill="#000000" opacity="1.000000" stroke="none" 
	d="
M276.132568,434.000000 
	C276.114594,455.163147 276.112000,475.826324 276.070465,496.489410 
	C276.058319,502.536957 275.597198,502.984314 269.492432,502.992432 
	C240.497391,503.030884 211.501633,503.179230 182.507416,503.034485 
	C142.447098,502.834534 108.606812,480.216858 95.404640,445.102325 
	C76.333115,394.376740 104.094048,339.342346 156.002533,325.371735 
	C162.038132,323.747314 168.248413,322.555359 174.684998,322.585266 
	C206.512222,322.733246 238.341171,322.715607 270.167999,322.515015 
	C274.833801,322.485596 276.177124,324.011230 276.161743,328.518463 
	C276.042236,363.511932 276.117828,398.506073 276.132568,434.000000 
M186.882889,452.355560 
	C192.618317,443.734131 195.794846,434.447723 193.510742,424.020874 
	C191.398041,414.376495 191.910049,405.140961 197.034927,396.523834 
	C198.663910,393.784821 198.575470,391.410156 197.370499,388.546356 
	C192.722885,377.500793 188.309662,366.356781 183.753052,355.272491 
	C183.086700,353.651550 182.799423,351.653046 180.732193,351.018982 
	C178.875900,351.395325 178.550110,353.018524 177.958908,354.323883 
	C162.638779,388.149109 147.322891,421.976318 132.069061,455.831482 
	C129.776093,460.920624 130.395081,461.749298 136.284103,461.790466 
	C147.112930,461.866180 157.981522,461.262207 168.759262,462.010864 
	C176.957504,462.580292 182.524292,459.805054 186.882889,452.355560 
M250.273849,451.178558 
	C238.806763,425.650909 227.339676,400.123260 215.875504,374.602081 
	C213.137222,375.722229 212.637863,377.382874 212.034988,378.885925 
	C209.186752,385.986938 206.436874,393.127411 203.582779,400.226013 
	C200.649948,407.520325 200.672089,414.742554 203.466370,422.108856 
	C206.671646,430.558594 207.297119,439.309723 205.167542,448.098755 
	C204.132874,452.368958 202.446106,456.481171 201.057266,460.656677 
	C203.221069,462.137787 205.270157,461.766907 207.214371,461.772522 
	C219.529633,461.808105 231.845123,461.766357 244.160385,461.801239 
	C255.031448,461.832031 255.031372,461.861389 250.273849,451.178558 
z"/>
<path fill="#000000" opacity="1.000000" stroke="none" 
	d="
M393.875092,568.171875 
	C388.214661,574.827576 381.384857,577.949036 372.599121,575.269470 
	C371.630127,574.973816 370.633545,574.838013 370.227112,573.686096 
	C370.259888,572.046814 371.599854,572.089905 372.687042,571.885071 
	C373.501770,571.731628 374.354065,571.783752 375.172852,571.645081 
	C382.690857,570.371460 386.073303,563.766602 384.722656,553.033142 
	C383.740662,545.229431 378.452728,540.713501 371.227570,541.355164 
	C368.632629,541.585571 367.259644,542.630066 367.264679,545.378784 
	C367.292511,560.543823 367.283966,575.709106 367.249756,590.874084 
	C367.244293,593.298523 368.257141,594.466064 370.723938,594.809326 
	C372.408997,595.043823 374.400146,595.118713 375.861694,597.749023 
	C359.368622,597.749023 343.350250,597.749023 327.252106,597.749023 
	C329.365997,593.211609 323.702698,582.541931 317.495697,579.078186 
	C314.872772,585.277832 316.093567,592.835510 320.765259,597.609070 
	C318.128784,598.888733 315.483368,598.320312 312.959351,598.364319 
	C308.294556,598.445679 303.622681,598.264343 298.962708,598.435974 
	C294.857422,598.587097 291.311920,597.848267 289.089569,593.475342 
	C286.833618,594.934875 284.839111,596.353699 282.726990,597.567993 
	C275.997223,601.436829 268.450317,600.060486 265.602997,594.520325 
	C262.458557,588.401978 265.466766,581.753296 272.878601,578.425171 
	C275.932190,577.054016 279.084930,576.115723 282.411987,575.567444 
	C285.302032,575.091187 288.969391,575.582520 288.925659,570.630310 
	C288.872589,564.614075 286.867188,560.583557 282.430511,559.604126 
	C280.194824,559.110596 277.825073,558.818604 275.731354,560.120422 
	C274.891113,561.818604 276.286804,563.059631 276.371796,564.520020 
	C276.511322,566.917419 275.642303,568.870911 273.618134,570.015625 
	C271.593658,571.160461 269.349854,571.016663 267.552155,569.458252 
	C265.752563,567.898071 265.415100,565.771912 266.076965,563.503784 
	C266.666382,561.483765 267.936127,559.904297 269.697906,558.883911 
	C275.800720,555.349426 282.405243,553.824707 289.368866,555.133423 
	C295.229675,556.234924 298.139343,560.324097 298.286011,567.229492 
	C298.434631,574.225830 298.310425,581.227661 298.352722,588.226807 
	C298.360687,589.545349 298.347839,590.946960 298.771881,592.161011 
	C299.446686,594.093079 301.061218,594.912964 303.122131,594.796265 
	C305.289734,594.673584 305.912689,593.265076 305.911865,591.399536 
	C305.905121,576.401428 305.789520,561.402405 305.927490,546.405701 
	C305.966278,542.191711 301.193451,542.007629 300.125519,538.507935 
	C304.134857,535.871582 308.781677,535.327026 313.239044,534.435791 
	C316.362122,533.811401 316.095581,536.490967 316.104340,538.426880 
	C316.150208,548.592346 316.102356,558.758240 316.153473,568.923706 
	C316.162323,570.685974 315.648163,572.608521 317.625153,574.721619 
	C323.045319,571.960815 325.365509,566.195923 329.200470,562.599121 
	C329.539215,559.867126 326.333801,559.778809 326.697479,557.111023 
	C332.310059,557.111023 337.982422,557.111023 343.683044,557.111023 
	C344.195587,558.814941 342.826233,559.085571 341.826996,559.463684 
	C335.581909,561.826355 332.204163,567.488708 327.612915,571.748169 
	C326.026642,573.219727 326.694275,574.719910 327.783203,576.174866 
	C331.876129,581.643677 335.830811,587.221497 340.076538,592.568481 
	C343.051208,596.314697 351.317322,596.945801 354.645966,593.953369 
	C356.092926,592.652588 355.626770,590.851746 355.630524,589.236389 
	C355.662750,575.404419 355.499878,561.569641 355.741150,547.741760 
	C355.810333,543.778320 354.476074,541.866455 350.665680,541.412537 
	C349.237152,541.242371 347.552490,541.319458 347.200378,539.300110 
	C347.896698,537.742676 349.342163,537.846436 350.629059,537.850891 
	C359.792480,537.882446 368.976562,537.606750 378.113647,538.131775 
	C388.893982,538.751282 395.558685,545.047058 396.954834,554.785889 
	C397.474701,558.412354 396.296387,561.693604 395.039429,565.701050 
	C394.496887,566.971191 394.186005,567.571533 393.875092,568.171875 
M287.801392,578.888184 
	C283.255951,577.484619 279.671021,579.547913 276.541565,582.382019 
	C274.236237,584.469849 273.756683,587.273254 275.463226,590.076172 
	C277.084717,592.739441 279.600555,593.174377 282.424530,592.463989 
	C288.361206,590.970703 289.351624,588.764282 287.801392,578.888184 
z"/>
<path fill="#000000" opacity="1.000000" stroke="none" 
	d="
M572.385864,556.186829 
	C572.936462,556.006104 573.094421,555.951050 573.256653,555.914001 
	C579.705261,554.444031 579.705322,554.444214 580.837158,560.435242 
	C595.704529,552.537842 598.780884,552.626099 606.141479,561.480774 
	C608.400574,559.985962 610.635376,558.325989 613.033813,556.951477 
	C623.455750,550.978821 632.285950,556.004395 632.334717,567.887024 
	C632.355896,573.052307 632.341248,578.217651 632.341675,583.382996 
	C632.342407,592.221985 632.342041,592.221985 638.455017,597.956665 
	C631.267883,597.956665 624.679138,597.956665 618.090393,597.956665 
	C624.373962,595.190735 622.662537,589.771667 622.718323,585.049011 
	C622.777405,580.051147 622.857971,575.046875 622.676697,570.054626 
	C622.491211,564.947205 620.134888,562.891357 615.063171,562.958008 
	C608.960449,563.038208 607.042114,564.779541 607.003052,570.385010 
	C606.969360,575.216736 607.009155,580.049011 607.009521,584.881042 
	C607.010071,592.623779 607.007629,592.623779 612.126038,597.936584 
	C605.085571,598.525085 598.745300,598.537781 591.936279,597.361145 
	C597.985596,594.649658 596.742065,589.660156 596.766235,585.164307 
	C596.793152,580.166016 596.845276,575.163940 596.683472,570.170105 
	C596.583069,567.072693 595.755127,564.164062 592.428101,562.886963 
	C589.062561,561.594971 585.862732,562.350037 582.809631,563.942139 
	C581.004639,564.883362 581.161804,566.701050 581.152588,568.349365 
	C581.117310,574.680786 581.244507,581.015503 581.083557,587.343140 
	C580.982666,591.307739 581.006470,595.025757 585.627808,597.311707 
	C578.846130,598.688477 572.268433,598.537231 565.207703,597.520447 
	C572.470154,594.875000 570.656128,589.085510 570.714294,584.049805 
	C570.775818,578.718628 570.757874,573.385864 570.718201,568.054260 
	C570.685364,563.644836 570.648926,563.645081 565.916748,561.041077 
	C565.173889,563.593262 564.143127,566.068726 561.294312,566.821411 
	C558.205627,567.637573 556.409485,565.747253 554.490356,563.723816 
	C552.511536,561.637512 548.233215,563.066223 547.781494,566.432251 
	C546.606812,575.186462 547.169067,584.045044 547.474670,592.852478 
	C547.577820,595.825928 551.807861,594.830322 553.327454,597.847656 
	C545.927612,597.847656 538.992371,597.847656 532.025269,597.847656 
	C532.002991,597.552612 531.896851,596.980347 531.967041,596.957825 
	C538.165222,594.970154 537.889099,590.021362 537.650940,584.944763 
	C537.463745,580.954651 537.383484,576.931458 537.675415,572.953735 
	C538.087708,567.335205 537.454712,562.360229 530.509338,559.646545 
	C535.762878,556.069763 540.861877,556.377258 545.063110,554.652466 
	C547.326172,556.951416 546.521729,559.421387 547.052124,561.786804 
	C549.117981,559.281799 551.345520,557.317566 554.032104,555.942688 
	C556.500732,554.679382 559.405518,553.753174 561.649780,555.445679 
	C565.117920,558.061218 568.449829,557.286438 572.385864,556.186829 
z"/>
<path fill="#000000" opacity="1.000000" stroke="none" 
	d="
M708.233276,590.931763 
	C708.143738,584.203003 708.151062,577.876648 708.042908,571.552246 
	C707.987732,568.324402 707.658020,564.959473 704.219299,563.490173 
	C700.474731,561.890198 696.690369,562.769043 693.102600,564.376709 
	C691.474854,565.106140 691.363770,566.668518 691.364075,568.212769 
	C691.365784,575.871826 691.591370,583.540222 691.273254,591.185974 
	C691.114197,595.007996 695.062927,594.912598 697.073547,598.763977 
	C684.907104,596.725159 673.062378,602.244690 662.262329,594.074036 
	C659.832458,595.435059 657.064575,597.326294 654.038574,598.608215 
	C648.012329,601.161255 641.680542,599.031433 639.407776,594.013977 
	C636.922302,588.526794 639.206238,582.284485 645.034973,579.186768 
	C648.726013,577.225220 652.706970,576.120422 656.879028,575.466309 
	C659.764282,575.013916 663.293518,575.114746 662.996582,570.155945 
	C662.639404,564.191284 660.897522,560.401184 656.695923,559.543945 
	C654.462524,559.088257 652.080994,558.751343 649.950684,560.022339 
	C648.988831,561.790039 650.370544,563.306335 650.274536,564.946899 
	C650.137817,567.285034 649.349060,569.259827 647.085876,570.142944 
	C645.139038,570.902710 643.107910,570.784302 641.497620,569.211243 
	C639.791748,567.544922 639.193909,565.407104 640.153564,563.252747 
	C643.022705,556.811035 649.243286,555.760681 655.113098,554.946594 
	C660.479797,554.202332 666.326599,553.625183 670.050659,559.181702 
	C671.856323,561.875977 672.348389,565.019409 672.339355,568.247620 
	C672.319763,575.240662 672.387878,582.234253 672.328979,589.226807 
	C672.300781,592.571838 673.511902,594.746338 677.115845,594.869751 
	C681.330872,595.014160 680.737427,591.894470 680.754089,589.280212 
	C680.788086,583.952332 680.804077,578.623840 680.762939,573.296082 
	C680.722656,568.086853 682.251160,562.274048 674.141846,559.564270 
	C679.781982,556.138062 684.741211,555.760010 689.692322,554.567566 
	C690.246643,556.794617 690.640137,558.375671 691.097168,560.211731 
	C693.184265,559.960571 694.579285,558.456909 696.214294,557.500488 
	C707.620911,550.828003 717.350281,555.957153 717.967224,569.146240 
	C718.239197,574.961304 718.073486,580.799622 718.015930,586.626404 
	C717.973022,590.966492 717.083679,595.651428 723.695007,597.053040 
	C716.599792,598.844788 710.032837,598.591125 703.073547,598.004089 
	C704.278320,594.678101 709.221863,595.391235 708.233276,590.931763 
M658.771057,578.443542 
	C656.408508,578.694153 654.206360,579.472656 652.268799,580.805542 
	C649.819763,582.490356 648.004578,584.731628 648.581238,587.898254 
	C649.021301,590.314514 650.483459,592.275146 653.121399,592.614929 
	C656.650513,593.069458 659.885193,591.872864 662.042053,589.167297 
	C664.232178,586.420044 662.364929,579.501404 658.771057,578.443542 
z"/>
<path fill="#000000" opacity="1.000000" stroke="none" 
	d="
M487.362732,539.271240 
	C482.593567,540.962158 479.167023,551.163208 481.778748,555.225830 
	C483.124634,557.319458 485.375671,556.404602 487.269470,556.650146 
	C489.394897,556.925598 492.528748,555.745056 492.646088,559.346802 
	C492.767883,563.085999 489.538025,562.290161 487.478607,562.093262 
	C482.682068,561.634705 480.975128,563.418091 481.231476,568.277466 
	C481.590454,575.082825 481.506439,581.929565 481.233765,588.743530 
	C481.070526,592.822388 481.948059,595.579285 486.502533,596.048706 
	C487.009979,596.100952 487.452850,596.780090 488.045380,597.266785 
	C484.150604,598.715759 470.317108,598.858887 465.139771,597.318359 
	C472.435608,595.052673 470.928833,589.532227 470.956299,584.622314 
	C470.989807,578.630249 470.983582,572.637390 470.918701,566.645691 
	C470.899689,564.891724 471.280975,562.829590 468.700806,562.287781 
	C466.700226,561.867676 465.478882,562.412903 464.171967,564.227905 
	C461.470764,567.979370 458.315735,567.987976 454.944122,564.780457 
	C451.745819,561.737793 447.619568,562.703979 447.290405,567.046448 
	C446.650208,575.492615 446.690674,583.997314 446.650452,592.478760 
	C446.633636,596.021118 451.413849,594.371948 452.506897,597.789673 
	C445.501617,597.789673 438.701538,597.789673 431.901489,597.789673 
	C438.478668,595.204529 436.760193,589.719666 436.837921,584.977539 
	C436.884277,582.148743 436.970886,579.309814 436.797485,576.490295 
	C436.418823,570.334473 439.373840,563.133606 429.735992,559.414612 
	C435.694794,556.613159 440.313873,555.762573 444.783844,554.907898 
	C447.122772,556.739624 445.873688,559.172607 446.577759,561.385803 
	C448.656464,559.726379 450.553467,557.945679 452.703064,556.555481 
	C456.389832,554.171021 460.032715,553.956665 463.729614,556.959290 
	C466.937592,559.564880 469.984894,558.370056 471.085602,554.305664 
	C471.473175,552.874390 471.518982,551.352295 471.744690,549.875244 
	C473.318359,539.576233 483.886017,531.962524 493.558929,534.153137 
	C497.654572,535.080750 500.093414,538.405273 498.877869,541.701965 
	C497.604980,545.154175 494.825439,546.044373 491.590942,544.933777 
	C489.198822,544.112610 488.372986,541.721069 487.362732,539.271240 
z"/>
<path fill="#000000" opacity="1.000000" stroke="none" 
	d="
M225.858688,568.188721 
	C217.904572,576.833923 208.389328,578.919067 202.166382,573.362854 
	C202.790558,571.788147 204.257599,571.987183 205.524109,571.778503 
	C206.668106,571.589905 207.867645,571.576904 208.952118,571.215088 
	C215.250214,569.113281 218.257950,561.787476 216.661316,552.610596 
	C215.378983,545.240234 210.634644,541.191956 203.675049,541.350281 
	C200.173325,541.430054 198.779434,542.757324 198.824783,546.521240 
	C199.001114,561.155457 198.914200,575.794678 198.742722,590.429871 
	C198.710876,593.146606 199.444748,594.481934 202.203674,594.716064 
	C204.117508,594.878479 206.088287,595.156006 208.455643,597.748291 
	C198.076202,597.748291 188.822739,597.748291 179.453949,597.748291 
	C179.618088,595.229980 181.588226,595.190796 182.759979,595.095459 
	C187.275925,594.728210 187.867661,592.056274 187.819199,588.231384 
	C187.654770,575.253479 187.557800,562.268005 187.845718,549.294556 
	C187.951294,544.537598 186.914169,541.563416 181.693588,541.294434 
	C180.478226,541.231873 179.399612,540.801025 179.210648,539.314575 
	C179.999863,537.558655 181.643814,537.826477 183.080231,537.822632 
	C191.399872,537.800476 199.721008,537.754395 208.038925,537.887085 
	C212.938004,537.965210 217.580170,539.129578 221.667419,542.055420 
	C229.241440,547.477295 228.869934,555.295776 227.929504,563.905151 
	C227.098129,565.777832 226.478409,566.983276 225.858688,568.188721 
z"/>
<path fill="#000000" opacity="1.000000" stroke="none" 
	d="
M489.634735,575.193909 
	C491.378265,558.685608 507.990448,549.719910 522.214661,557.156738 
	C529.921143,561.185913 533.731140,570.340393 532.276550,581.332947 
	C531.097290,590.244690 524.382935,597.555542 515.820923,599.250610 
	C499.655121,602.450867 489.448639,593.256897 489.634735,575.193909 
M505.990601,560.440430 
	C499.333466,568.378601 498.350311,583.436890 503.943878,591.788696 
	C507.790375,597.531921 515.591919,597.590210 518.626221,591.499023 
	C523.178528,582.360840 523.121338,572.842773 518.645630,563.666382 
	C516.115540,558.479065 511.891418,557.488525 505.990601,560.440430 
z"/>
<path fill="#000000" opacity="1.000000" stroke="none" 
	d="
M760.333374,571.888794 
	C764.733582,558.353333 776.858582,551.947388 788.435974,556.626099 
	C794.489685,559.072632 797.324158,563.774902 798.349854,569.931519 
	C798.940002,573.473633 797.844543,575.215332 793.951965,575.115295 
	C787.797668,574.957153 781.634399,575.060364 775.476562,575.154907 
	C770.473572,575.231689 769.672974,576.309143 770.650818,581.224060 
	C772.642273,591.233643 778.831543,594.794067 789.652649,592.351929 
	C792.264648,591.762451 794.714905,589.914185 798.588440,590.868958 
	C795.135986,595.683044 790.756531,597.785950 786.111816,599.286072 
	C773.265259,603.435059 760.199341,594.222595 759.695435,580.719604 
	C759.590698,577.913025 759.302551,575.055664 760.333374,571.888794 
M783.464355,559.679138 
	C781.912476,558.938110 780.275452,558.828369 778.610413,559.091675 
	C774.702637,559.709595 769.454956,565.944153 770.702454,569.244507 
	C772.183594,573.162903 776.047363,571.195251 778.956543,571.398193 
	C779.932739,571.466309 780.930054,571.216736 781.918762,571.123169 
	C788.093323,570.538574 789.001160,569.017334 786.399719,563.295837 
	C785.869385,562.129456 784.891479,561.166626 783.464355,559.679138 
z"/>
<path fill="#000000" opacity="1.000000" stroke="none" 
	d="
M225.774292,568.562012 
	C226.478409,566.983276 227.098129,565.777832 227.866486,564.271240 
	C233.637192,557.991821 240.060562,554.147522 248.750458,555.532471 
	C257.173798,556.875000 262.587555,562.529724 263.278870,570.893555 
	C263.538116,574.030151 262.099670,575.061951 259.224030,575.050842 
	C252.727448,575.025696 246.229630,575.168457 239.734146,575.090515 
	C236.335358,575.049744 235.034210,576.310852 235.244278,579.860779 
	C235.867401,590.389832 243.865189,595.317078 255.464539,592.223145 
	C257.607819,591.651428 259.545288,589.831604 261.935486,590.727539 
	C262.763367,592.021362 261.998749,592.742737 261.288849,593.444641 
	C254.791931,599.867676 244.260498,601.987000 236.338913,598.425354 
	C227.422012,594.416138 224.337769,586.891663 224.289886,577.767761 
	C224.274368,574.809509 224.555695,571.772461 225.774292,568.562012 
M252.599747,568.493591 
	C252.544983,568.000793 252.537918,567.497131 252.428024,567.016968 
	C251.466248,562.814941 250.199997,558.759949 244.860306,558.645752 
	C240.895615,558.560913 236.738815,563.070312 235.830673,567.969177 
	C235.576721,569.339111 235.249908,571.151367 236.901840,571.238586 
	C242.186630,571.517883 247.708466,572.955139 252.599747,568.493591 
z"/>
<path fill="#000000" opacity="1.000000" stroke="none" 
	d="
M393.802643,568.526611 
	C394.186005,567.571533 394.496887,566.971191 394.957428,566.066162 
	C400.616760,558.616394 407.259674,554.091187 416.900146,555.576599 
	C424.882050,556.806335 430.441711,562.481201 431.314789,570.475037 
	C431.672668,573.751831 430.598663,575.080688 427.308075,575.038757 
	C420.982422,574.958191 414.648865,575.226135 408.329559,575.017212 
	C403.633392,574.861938 402.647369,576.993286 403.317017,581.166138 
	C404.926239,591.193787 412.517273,595.287476 423.767853,592.183777 
	C425.881348,591.600708 427.774902,589.627808 430.311310,590.740173 
	C428.031158,596.928589 417.145294,601.607300 409.194000,599.904907 
	C397.957428,597.499146 391.613678,588.548950 392.547882,576.245911 
	C392.735474,573.775391 393.325623,571.335388 393.802643,568.526611 
M414.079834,558.567993 
	C410.918549,558.114075 408.635315,559.715332 406.734528,561.913208 
	C404.640747,564.334229 402.497864,567.314453 403.821136,570.372803 
	C404.945038,572.970398 408.314362,571.287720 410.668640,571.596130 
	C411.803680,571.744934 412.989349,571.624390 414.140808,571.511047 
	C421.040741,570.831909 422.430725,567.755371 418.581512,561.806030 
	C417.642334,560.354553 416.403564,559.333618 414.079834,558.567993 
z"/>
<path fill="#000000" opacity="1.000000" stroke="none" 
	d="
M740.849854,559.874878 
	C733.199585,565.016296 730.419128,572.719299 733.345154,582.499084 
	C737.740662,597.190613 748.980652,592.788391 759.375977,590.391785 
	C757.043579,596.855530 747.612976,601.334778 739.919312,600.153320 
	C731.430481,598.849731 725.379822,594.368652 722.988464,585.942261 
	C720.172302,576.018799 721.869385,566.831604 729.991394,560.078796 
	C736.979065,554.269104 745.246765,552.949036 753.908203,556.581238 
	C756.147461,557.520264 757.718689,559.159668 758.656982,561.455566 
	C759.817078,564.294006 759.123657,566.721802 757.084778,568.768433 
	C755.239441,570.620728 752.897156,570.889587 750.628662,569.740356 
	C748.153198,568.486267 747.170837,566.240662 747.444641,563.485718 
	C747.573608,562.188232 747.776611,560.898071 747.935547,559.685608 
	C745.492676,557.778320 743.334534,558.934448 740.849854,559.874878 
z"/>
<path fill="#000000" opacity="1.000000" stroke="none" 
	d="
M143.311920,574.892212 
	C140.822433,578.712036 131.670853,580.693542 128.777832,578.368713 
	C127.412178,577.271301 127.738960,575.647949 127.728256,574.194031 
	C127.684212,568.212402 127.656189,562.229675 127.724495,556.248596 
	C127.745949,554.369690 127.233910,551.946472 130.286774,551.792053 
	C133.726425,551.618042 133.110184,554.259949 133.309845,556.313599 
	C133.388336,557.120728 133.490311,557.925659 133.575241,558.675537 
	C143.554047,560.157654 145.701599,563.667297 143.311920,574.892212 
M133.373779,566.388428 
	C133.317886,567.697388 133.158646,569.012085 133.231506,570.313843 
	C133.328888,572.053711 133.043625,574.364685 135.587402,574.428711 
	C137.854034,574.485779 138.409225,572.448730 138.561569,570.599548 
	C138.681061,569.149170 138.800613,567.537048 138.304245,566.230774 
	C137.219971,563.377380 135.538589,562.496155 133.373779,566.388428 
z"/>
<path fill="#000000" opacity="1.000000" stroke="none" 
	d="
M156.640106,574.512817 
	C155.726349,577.253601 155.105515,579.685181 154.142334,581.972595 
	C153.117966,584.405457 151.275986,586.039062 148.460236,586.197998 
	C147.050735,586.277649 145.703217,586.070801 145.254364,584.483093 
	C144.890121,583.194641 145.433060,582.236267 146.734512,581.736938 
	C150.400528,580.330322 149.960876,577.662598 148.926575,574.739624 
	C147.595688,570.978638 146.329865,567.193665 145.094757,563.399963 
	C144.647842,562.027283 143.783966,560.368286 145.833054,559.577637 
	C147.907837,558.776917 149.446030,559.683533 150.134186,561.741272 
	C150.975464,564.256897 151.660278,566.824890 152.443130,569.473083 
	C155.387955,566.684387 152.466980,559.254150 160.258087,559.889465 
	C160.115280,565.201599 157.952332,569.559021 156.640106,574.512817 
z"/>
<path fill="#000000" opacity="1.000000" stroke="none" 
	d="
M806.911438,555.794739 
	C803.979492,559.544434 800.676575,560.318481 797.237732,557.490845 
	C794.700317,555.404358 793.970825,552.449646 795.749573,549.434937 
	C797.632385,546.243896 800.637390,545.411072 803.904297,546.811646 
	C807.786255,548.475830 808.588684,551.630188 806.911438,555.794739 
z"/>
</svg>