<svg width="132" height="52" viewBox="0 0 132 52" fill="none" xmlns="http://www.w3.org/2000/svg">
<path d="M122.646 33.1391C122.59 33.7467 122.185 33.7304 121.825 33.7313C119.574 33.7374 117.323 33.7164 115.072 33.7362C114.187 33.7439 114.22 33.1697 114.22 32.567C114.224 27.5171 114.218 22.4671 114.227 17.4172C114.231 14.7103 114.244 12.0031 114.283 9.29651C114.293 8.53423 114.039 8.19465 113.229 8.2089C111.161 8.24526 109.091 8.25433 107.023 8.20195C106.194 8.18095 105.86 8.48227 105.669 9.27887C103.807 17.0775 101.896 24.8646 100.035 32.6636C99.8447 33.463 99.509 33.7627 98.6854 33.7524C95.6133 33.7138 92.5404 33.7242 89.4679 33.7414C88.8207 33.7451 88.4722 33.5454 88.3374 32.8639C87.4006 28.129 86.4356 23.3996 85.4757 18.6692C85.0731 16.6852 84.661 14.7031 84.0889 12.7126C83.6873 14.8518 83.2815 16.9902 82.8851 19.1304C82.039 23.6976 81.1872 28.2638 80.3664 32.8356C80.246 33.5067 79.9446 33.7578 79.2766 33.7531C75.9912 33.7297 72.7056 33.7254 69.4202 33.7356C68.7538 33.7377 68.4714 33.4586 68.3178 32.8105C66.5043 25.1579 64.663 17.512 62.8298 9.86415C62.4345 8.21513 62.4358 8.21337 60.7226 8.21404C56.8895 8.21554 53.0562 8.24114 49.2235 8.20395C48.3504 8.19547 48.0018 8.50768 48.0176 9.35125C48.0371 10.3847 48.0299 11.4188 48.0202 12.4525C48.0126 13.2702 48.3234 13.644 49.2189 13.6343C52.8081 13.5952 56.3981 13.6181 59.9878 13.6213C60.9977 13.6222 61.0426 13.678 60.8064 14.6702C60.3769 16.4736 59.9175 18.2703 59.5155 20.0797C59.363 20.766 59.0387 21.0113 58.3269 21.0031C55.4068 20.9692 52.4861 20.9918 49.5657 20.9927C48.0916 20.9932 48.0293 21.0169 48.0302 22.5322C48.0319 25.4212 48.0975 28.3102 48.1063 31.1993C48.1159 34.3578 48.1594 33.6756 45.5738 33.7316C43.9318 33.7672 42.2882 33.723 40.6457 33.744C39.9576 33.7528 39.6795 33.5043 39.6807 32.7813C39.6981 22.438 39.6988 12.0948 39.6837 1.75154C39.6827 1.03155 39.9403 0.811537 40.644 0.812835C49.9529 0.830022 59.2618 0.829492 68.5708 0.814167C69.1974 0.813136 69.4894 1.00817 69.6276 1.6393C71.0425 8.10263 72.4805 14.5609 73.9217 21.0185C74.0176 21.4483 74.0114 21.9276 74.3507 22.2668C74.6864 22.2695 74.6758 22.0293 74.7184 21.826C75.7522 16.8928 76.7862 11.9596 77.8218 7.02682C78.196 5.24465 78.5874 3.46599 78.9443 1.68039C79.0728 1.03717 79.3785 0.79854 80.0591 0.80781C82.827 0.845531 85.5964 0.860857 88.3635 0.801677C89.1986 0.78381 89.4569 1.13358 89.6085 1.84974C90.696 6.98856 91.8051 12.1228 92.9106 17.2578C93.2596 18.879 93.6183 20.4981 94.1903 22.1298C94.5681 20.5462 94.9593 18.9656 95.3211 17.3783C96.5223 12.1081 97.7257 6.83824 98.8934 1.56055C99.0622 0.797571 99.536 0.819041 100.105 0.819487C107.193 0.825036 114.282 0.822985 121.37 0.823231C124.564 0.823337 127.758 0.845542 130.952 0.809532C131.741 0.800646 132.023 1.0261 131.999 1.84206C131.944 3.66571 131.961 5.49248 131.994 7.31719C132.006 7.99047 131.761 8.2301 131.093 8.22386C128.69 8.2014 126.287 8.21823 123.883 8.21993C122.664 8.22079 122.658 8.22051 122.657 9.41827C122.653 17.297 122.652 25.1757 122.646 33.1391Z" fill="white"/>
<path d="M34.0929 21.1507C34.0896 25.014 34.0892 28.786 34.0816 32.5581C34.0794 33.662 33.9952 33.7437 32.8808 33.7452C27.5877 33.7522 22.2946 33.7793 17.0017 33.7529C9.68872 33.7164 3.5112 29.5875 1.10116 23.1774C-2.38034 13.9175 2.6874 3.87097 12.1633 1.32064C13.2651 1.0241 14.3987 0.806513 15.5737 0.811973C21.3838 0.838986 27.1941 0.835766 33.0041 0.799148C33.8558 0.793778 34.101 1.07228 34.0982 1.89507C34.0764 8.28311 34.0902 14.6713 34.0929 21.1507ZM17.8004 24.5015C18.8474 22.9276 19.4273 21.2324 19.0104 19.329C18.6247 17.5684 18.7181 15.8825 19.6537 14.3094C19.9511 13.8094 19.9349 13.3759 19.715 12.8531C18.8665 10.8368 18.0609 8.80243 17.2291 6.779C17.1075 6.4831 17.055 6.11828 16.6776 6.00253C16.3388 6.07123 16.2793 6.36754 16.1714 6.60584C13.3747 12.7806 10.5788 18.9557 7.79422 25.136C7.37564 26.065 7.48864 26.2163 8.56367 26.2238C10.5405 26.2376 12.5245 26.1274 14.492 26.264C15.9886 26.368 17.0048 25.8614 17.8004 24.5015ZM29.3724 24.2866C27.2791 19.6265 25.1858 14.9665 23.093 10.3076C22.5932 10.5121 22.502 10.8152 22.3919 11.0896C21.872 12.3859 21.37 13.6894 20.849 14.9852C20.3136 16.3168 20.3177 17.6352 20.8277 18.9799C21.4129 20.5224 21.527 22.1199 21.1383 23.7244C20.9494 24.5039 20.6415 25.2546 20.388 26.0168C20.783 26.2872 21.157 26.2195 21.5119 26.2205C23.7601 26.227 26.0083 26.2194 28.2564 26.2258C30.2409 26.2314 30.2409 26.2367 29.3724 24.2866Z" fill="white"/>
<path d="M55.5867 45.6438C54.5534 46.8588 53.3066 47.4287 51.7028 46.9395C51.5259 46.8855 51.344 46.8607 51.2698 46.6505C51.2757 46.3512 51.5204 46.3591 51.7188 46.3217C51.8675 46.2937 52.0231 46.3032 52.1726 46.2779C53.545 46.0454 54.1625 44.8397 53.9159 42.8803C53.7367 41.4557 52.7713 40.6313 51.4524 40.7485C50.9787 40.7905 50.7281 40.9812 50.729 41.483C50.7341 44.2513 50.7325 47.0198 50.7262 49.7881C50.7253 50.2307 50.9101 50.4438 51.3605 50.5065C51.6681 50.5493 52.0315 50.563 52.2983 51.0431C49.2876 51.0431 46.3634 51.0431 43.4247 51.0431C43.8106 50.2148 42.7768 48.2671 41.6437 47.6348C41.1649 48.7665 41.3877 50.1462 42.2405 51.0176C41.7592 51.2512 41.2763 51.1474 40.8156 51.1555C39.964 51.1703 39.1112 51.1372 38.2605 51.1685C37.5111 51.1961 36.8638 51.0612 36.4582 50.263C36.0463 50.5294 35.6822 50.7884 35.2967 51.0101C34.0682 51.7163 32.6905 51.4651 32.1707 50.4537C31.5967 49.3368 32.1458 48.1231 33.4989 47.5156C34.0563 47.2653 34.6318 47.094 35.2392 46.9939C35.7667 46.907 36.4362 46.9967 36.4282 46.0926C36.4185 44.9944 36.0525 44.2586 35.2426 44.0798C34.8344 43.9897 34.4018 43.9364 34.0196 44.1741C33.8662 44.4841 34.121 44.7106 34.1365 44.9772C34.162 45.4148 34.0034 45.7715 33.6339 45.9804C33.2643 46.1894 32.8547 46.1632 32.5265 45.8787C32.198 45.5939 32.1364 45.2057 32.2572 44.7917C32.3648 44.4229 32.5966 44.1346 32.9182 43.9483C34.0323 43.3031 35.2379 43.0248 36.5091 43.2637C37.579 43.4648 38.1102 44.2112 38.137 45.4718C38.1641 46.749 38.1414 48.0272 38.1491 49.3049C38.1506 49.5456 38.1482 49.8014 38.2257 50.023C38.3488 50.3757 38.6436 50.5254 39.0198 50.5041C39.4155 50.4817 39.5292 50.2246 39.5291 49.884C39.5278 47.1461 39.5067 44.4081 39.5319 41.6704C39.539 40.9012 38.6677 40.8676 38.4728 40.2287C39.2047 39.7474 40.0529 39.648 40.8666 39.4853C41.4367 39.3714 41.3881 39.8605 41.3897 40.2139C41.3981 42.0696 41.3893 43.9254 41.3987 45.7811C41.4003 46.1028 41.3064 46.4538 41.6673 46.8395C42.6568 46.3355 43.0803 45.2831 43.7804 44.6265C43.8422 44.1278 43.2571 44.1117 43.3235 43.6247C44.348 43.6247 45.3835 43.6247 46.4242 43.6247C46.5177 43.9357 46.2677 43.9851 46.0853 44.0542C44.9453 44.4855 44.3287 45.5191 43.4906 46.2967C43.201 46.5653 43.3229 46.8392 43.5217 47.1048C44.2688 48.1031 44.9907 49.1213 45.7658 50.0974C46.3088 50.7813 47.8178 50.8965 48.4254 50.3502C48.6896 50.1128 48.6045 49.784 48.6052 49.4892C48.611 46.9641 48.5813 44.4386 48.6254 41.9143C48.638 41.1908 48.3944 40.8418 47.6988 40.7589C47.4381 40.7279 47.1305 40.742 47.0662 40.3733C47.1934 40.089 47.4572 40.108 47.6922 40.1088C49.3649 40.1145 51.0415 40.0642 52.7094 40.16C54.6774 40.2731 55.894 41.4224 56.1489 43.2002C56.2438 43.8623 56.0287 44.4612 55.7992 45.1928C55.7002 45.4247 55.6434 45.5343 55.5867 45.6438ZM36.223 47.6001C35.3932 47.3439 34.7388 47.7205 34.1675 48.2379C33.7467 48.619 33.6592 49.1308 33.9707 49.6425C34.2667 50.1286 34.7259 50.208 35.2415 50.0784C36.3252 49.8058 36.506 49.403 36.223 47.6001Z" fill="white"/>
<path d="M88.1738 43.4557C88.2743 43.4227 88.3031 43.4126 88.3327 43.4059C89.5099 43.1375 89.5099 43.1376 89.7165 44.2312C92.4306 42.7896 92.9922 42.8057 94.3358 44.4221C94.7482 44.1492 95.1562 43.8462 95.594 43.5953C97.4965 42.505 99.1085 43.4224 99.1174 45.5915C99.1213 46.5345 99.1186 47.4774 99.1187 48.4203C99.1188 50.0339 99.1187 50.0339 100.235 51.0807C98.9226 51.0807 97.7199 51.0807 96.5171 51.0807C97.6642 50.5758 97.3517 49.5866 97.3619 48.7245C97.3727 47.8121 97.3874 46.8986 97.3543 45.9872C97.3205 45.0549 96.8903 44.6796 95.9645 44.6918C94.8504 44.7064 94.5002 45.0243 94.4931 46.0475C94.487 46.9296 94.4942 47.8117 94.4943 48.6938C94.4944 50.1072 94.4939 50.1072 95.4283 51.0771C94.1431 51.1845 92.9857 51.1868 91.7427 50.972C92.847 50.477 92.62 49.5662 92.6244 48.7455C92.6293 47.8331 92.6388 46.9199 92.6093 46.0083C92.591 45.4429 92.4398 44.9119 91.8325 44.6788C91.2181 44.4429 90.634 44.5808 90.0766 44.8714C89.7471 45.0432 89.7758 45.375 89.7741 45.6759C89.7677 46.8317 89.7909 47.9881 89.7615 49.1432C89.7431 49.867 89.7475 50.5457 90.5911 50.963C89.3531 51.2143 88.1523 51.1867 86.8634 51.0011C88.1892 50.5182 87.858 49.4613 87.8686 48.542C87.8799 47.5688 87.8766 46.5954 87.8693 45.6221C87.8633 44.8171 87.8567 44.8172 86.9928 44.3418C86.8572 44.8077 86.6691 45.2596 86.149 45.397C85.5852 45.546 85.2573 45.2009 84.907 44.8316C84.5457 44.4507 83.7647 44.7115 83.6823 45.326C83.4678 46.9241 83.5705 48.5412 83.6262 50.149C83.6451 50.6918 84.4173 50.51 84.6947 51.0608C83.3438 51.0608 82.0778 51.0608 80.806 51.0608C80.8019 51.007 80.7825 50.9025 80.7953 50.8984C81.9268 50.5356 81.8764 49.6322 81.8329 48.7054C81.7988 47.977 81.7841 47.2426 81.8374 46.5165C81.9127 45.4908 81.7971 44.5826 80.5292 44.0872C81.4883 43.4343 82.4191 43.4904 83.186 43.1756C83.5991 43.5953 83.4523 44.0461 83.5491 44.478C83.9262 44.0207 84.3329 43.6621 84.8233 43.4111C85.2739 43.1805 85.8042 43.0114 86.2139 43.3204C86.847 43.7978 87.4552 43.6564 88.1738 43.4557Z" fill="white"/>
<path d="M112.973 49.7985C112.956 48.5702 112.958 47.4153 112.938 46.2608C112.928 45.6716 112.868 45.0573 112.24 44.7891C111.556 44.497 110.865 44.6574 110.211 44.9509C109.913 45.0841 109.893 45.3693 109.893 45.6512C109.893 47.0493 109.935 48.4492 109.877 49.8449C109.848 50.5426 110.568 50.5252 110.935 51.2283C108.714 50.8561 106.552 51.8637 104.581 50.3721C104.137 50.6206 103.632 50.9658 103.079 51.1999C101.979 51.6659 100.823 51.2771 100.409 50.3612C99.9548 49.3595 100.372 48.22 101.436 47.6545C102.11 47.2964 102.836 47.0947 103.598 46.9753C104.125 46.8927 104.769 46.9111 104.715 46.0059C104.649 44.9171 104.331 44.2252 103.564 44.0687C103.157 43.9855 102.722 43.924 102.333 44.156C102.158 44.4787 102.41 44.7555 102.392 45.055C102.367 45.4818 102.223 45.8423 101.81 46.0035C101.455 46.1422 101.084 46.1206 100.79 45.8335C100.479 45.5293 100.37 45.139 100.545 44.7457C101.068 43.5698 102.204 43.3781 103.276 43.2295C104.255 43.0936 105.323 42.9882 106.002 44.0026C106.332 44.4944 106.422 45.0682 106.42 45.6575C106.417 46.9341 106.429 48.2108 106.418 49.4873C106.413 50.0979 106.634 50.4949 107.292 50.5174C108.062 50.5438 107.953 49.9743 107.956 49.497C107.963 48.5244 107.965 47.5517 107.958 46.5791C107.951 45.6282 108.23 44.5671 106.749 44.0724C107.779 43.447 108.684 43.3779 109.588 43.1603C109.689 43.5668 109.761 43.8554 109.844 44.1906C110.225 44.1448 110.48 43.8703 110.779 43.6957C112.861 42.4776 114.637 43.4139 114.75 45.8216C114.799 46.8831 114.769 47.9489 114.758 49.0126C114.751 49.8049 114.588 50.6601 115.795 50.916C114.5 51.243 113.301 51.1967 112.031 51.0896C112.251 50.4824 113.153 50.6126 112.973 49.7985ZM103.943 47.5188C103.512 47.5646 103.11 47.7067 102.756 47.95C102.309 48.2576 101.978 48.6667 102.083 49.2448C102.163 49.6858 102.43 50.0438 102.912 50.1058C103.556 50.1888 104.147 49.9703 104.54 49.4764C104.94 48.9749 104.599 47.7119 103.943 47.5188Z" fill="white"/>
<path d="M72.6528 40.3678C71.7822 40.6764 71.1567 42.5386 71.6335 43.2803C71.8792 43.6624 72.2901 43.4954 72.6358 43.5403C73.0238 43.5905 73.5959 43.375 73.6173 44.0325C73.6395 44.7151 73.0499 44.5698 72.674 44.5339C71.7984 44.4502 71.4868 44.7757 71.5336 45.6628C71.5991 46.9051 71.5838 48.155 71.534 49.3989C71.5042 50.1435 71.6644 50.6467 72.4958 50.7324C72.5884 50.742 72.6693 50.866 72.7775 50.9548C72.0665 51.2193 69.5412 51.2454 68.5961 50.9642C69.9279 50.5506 69.6528 49.5429 69.6579 48.6466C69.664 47.5527 69.6628 46.4587 69.651 45.3649C69.6475 45.0448 69.7171 44.6683 69.2461 44.5694C68.8809 44.4927 68.658 44.5922 68.4194 44.9236C67.9263 45.6084 67.3503 45.61 66.7348 45.0244C66.151 44.469 65.3978 44.6454 65.3377 45.4381C65.2208 46.9799 65.2282 48.5325 65.2208 50.0807C65.2178 50.7274 66.0904 50.4263 66.2899 51.0503C65.0111 51.0503 63.7698 51.0503 62.5284 51.0503C63.7291 50.5783 63.4154 49.5771 63.4296 48.7114C63.438 48.195 63.4538 47.6768 63.4222 47.1621C63.3531 46.0383 63.8925 44.7238 62.1331 44.0449C63.2209 43.5335 64.0641 43.3782 64.8801 43.2222C65.3071 43.5566 65.079 44.0007 65.2076 44.4048C65.587 44.1018 65.9333 43.7768 66.3257 43.523C66.9988 43.0877 67.6638 43.0486 68.3386 43.5967C68.9242 44.0723 69.4805 43.8542 69.6815 43.1123C69.7522 42.851 69.7606 42.5731 69.8018 42.3035C70.089 40.4234 72.0182 39.0336 73.7839 39.4334C74.5316 39.6028 74.9768 40.2097 74.7549 40.8115C74.5226 41.4417 74.0152 41.6042 73.4247 41.4014C72.988 41.2515 72.8373 40.815 72.6528 40.3678Z" fill="white"/>
<path d="M24.9154 45.6467C23.4634 47.2249 21.7264 47.6055 20.5904 46.5912C20.7044 46.3038 20.9722 46.3401 21.2034 46.302C21.4122 46.2676 21.6312 46.2652 21.8292 46.1992C22.9789 45.8155 23.5279 44.4782 23.2365 42.8029C23.0024 41.4575 22.1363 40.7185 20.8658 40.7474C20.2266 40.7619 19.9721 41.0042 19.9804 41.6913C20.0126 44.3628 19.9967 47.0352 19.9654 49.7068C19.9596 50.2027 20.0936 50.4465 20.5972 50.4892C20.9466 50.5189 21.3064 50.5696 21.7385 51.0428C19.8438 51.0428 18.1546 51.0428 16.4443 51.0428C16.4742 50.5831 16.8339 50.5759 17.0478 50.5585C17.8722 50.4915 17.9802 50.0037 17.9714 49.3055C17.9413 46.9364 17.9236 44.5659 17.9762 42.1976C17.9955 41.3292 17.8061 40.7863 16.8531 40.7372C16.6313 40.7257 16.4344 40.6471 16.3999 40.3757C16.5439 40.0552 16.844 40.1041 17.1063 40.1034C18.625 40.0993 20.144 40.0909 21.6625 40.1152C22.5568 40.1294 23.4042 40.342 24.1503 40.8761C25.533 41.8658 25.4651 43.2931 25.2935 44.8647C25.1417 45.2066 25.0286 45.4266 24.9154 45.6467Z" fill="white"/>
<path d="M73.0676 46.9255C73.3859 43.9119 76.4184 42.2753 79.015 43.6329C80.4219 44.3684 81.1174 46.0395 80.8518 48.0462C80.6366 49.673 79.4109 51.0076 77.8479 51.3171C74.8968 51.9013 73.0336 50.2229 73.0676 46.9255ZM76.0533 44.2323C74.8381 45.6814 74.6586 48.4303 75.6797 49.9549C76.3819 51.0033 77.8061 51.014 78.36 49.902C79.191 48.2338 79.1806 46.4963 78.3635 44.8212C77.9016 43.8742 77.1305 43.6934 76.0533 44.2323Z" fill="white"/>
<path d="M122.483 46.3221C123.287 43.8512 125.5 42.6818 127.614 43.5359C128.719 43.9825 129.236 44.8409 129.423 45.9648C129.531 46.6114 129.331 46.9293 128.62 46.9111C127.497 46.8822 126.372 46.901 125.248 46.9183C124.335 46.9323 124.188 47.129 124.367 48.0262C124.73 49.8535 125.86 50.5034 127.836 50.0576C128.312 49.95 128.76 49.6126 129.467 49.7869C128.837 50.6657 128.037 51.0496 127.189 51.3234C124.844 52.0808 122.459 50.3991 122.367 47.9341C122.348 47.4218 122.295 46.9002 122.483 46.3221ZM126.706 44.0932C126.423 43.9579 126.124 43.9379 125.82 43.986C125.107 44.0988 124.149 45.2369 124.376 45.8394C124.647 46.5547 125.352 46.1955 125.883 46.2325C126.061 46.245 126.243 46.1994 126.424 46.1823C127.551 46.0756 127.717 45.7979 127.242 44.7534C127.145 44.5405 126.967 44.3648 126.706 44.0932Z" fill="white"/>
<path d="M24.9001 45.7149C25.0286 45.4267 25.1417 45.2067 25.282 44.9316C26.3354 43.7853 27.508 43.0836 29.0943 43.3364C30.632 43.5815 31.6203 44.6137 31.7465 46.1405C31.7938 46.7131 31.5312 46.9015 31.0063 46.8994C29.8203 46.8949 28.6342 46.9209 27.4484 46.9067C26.828 46.8992 26.5904 47.1295 26.6288 47.7775C26.7425 49.6996 28.2025 50.599 30.32 50.0342C30.7112 49.9299 31.0649 49.5977 31.5013 49.7612C31.6524 49.9974 31.5128 50.1291 31.3832 50.2572C30.1972 51.4297 28.2747 51.8166 26.8286 51.1665C25.2008 50.4346 24.6378 49.061 24.6291 47.3954C24.6262 46.8554 24.6776 46.301 24.9001 45.7149ZM29.797 45.7024C29.787 45.6125 29.7857 45.5205 29.7657 45.4329C29.5901 44.6658 29.3589 43.9256 28.3842 43.9047C27.6604 43.8892 26.9016 44.7124 26.7358 45.6067C26.6895 45.8568 26.6298 46.1876 26.9314 46.2035C27.8961 46.2545 28.9041 46.5169 29.797 45.7024Z" fill="white"/>
<path d="M55.5735 45.7084C55.6435 45.534 55.7002 45.4244 55.7843 45.2592C56.8174 43.8993 58.0301 43.0732 59.7899 43.3443C61.247 43.5688 62.2619 44.6048 62.4213 46.064C62.4866 46.6622 62.2906 46.9048 61.6899 46.8971C60.5352 46.8824 59.379 46.9314 58.2254 46.8932C57.3681 46.8649 57.1881 47.2539 57.3103 48.0157C57.6041 49.8462 58.9898 50.5935 61.0436 50.027C61.4294 49.9205 61.7751 49.5604 62.2381 49.7634C61.8219 50.8931 59.8347 51.7472 58.3832 51.4364C56.332 50.9973 55.1739 49.3634 55.3444 47.1175C55.3787 46.6665 55.4864 46.2211 55.5735 45.7084ZM59.2751 43.8904C58.698 43.8076 58.2812 44.0999 57.9342 44.5011C57.552 44.943 57.1608 45.4871 57.4024 46.0454C57.6075 46.5196 58.2226 46.2124 58.6524 46.2687C58.8596 46.2959 59.076 46.2739 59.2862 46.2532C60.5458 46.1292 60.7995 45.5676 60.0969 44.4815C59.9254 44.2166 59.6993 44.0302 59.2751 43.8904Z" fill="white"/>
<path d="M118.927 44.1292C117.53 45.0678 117.023 46.4739 117.557 48.2592C118.359 50.9412 120.411 50.1375 122.309 49.7C121.883 50.88 120.161 51.6977 118.757 51.482C117.207 51.244 116.103 50.426 115.666 48.8878C115.152 47.0763 115.462 45.3991 116.945 44.1664C118.22 43.1059 119.729 42.8649 121.311 43.5279C121.719 43.6994 122.006 43.9986 122.177 44.4178C122.389 44.9359 122.263 45.3791 121.89 45.7527C121.554 46.0908 121.126 46.1399 120.712 45.9301C120.26 45.7012 120.081 45.2913 120.131 44.7884C120.154 44.5515 120.191 44.316 120.22 44.0946C119.774 43.7465 119.38 43.9575 118.927 44.1292Z" fill="white"/>
<path d="M9.84659 46.8705C9.39214 47.5678 7.72152 47.9295 7.1934 47.5051C6.94411 47.3048 7.00376 47.0085 7.00181 46.7431C6.99377 45.6511 6.98865 44.559 7.00112 43.4671C7.00504 43.1241 6.91156 42.6818 7.46886 42.6536C8.09677 42.6218 7.98427 43.1041 8.02072 43.479C8.03505 43.6263 8.05366 43.7733 8.06917 43.9102C9.89079 44.1807 10.2828 44.8214 9.84659 46.8705ZM8.03239 45.3181C8.02219 45.5571 7.99312 45.7971 8.00642 46.0347C8.0242 46.3523 7.97212 46.7742 8.43649 46.7859C8.85026 46.7963 8.95161 46.4245 8.97942 46.0869C9.00123 45.8221 9.02306 45.5278 8.93244 45.2894C8.73451 44.7685 8.42758 44.6076 8.03239 45.3181Z" fill="white"/>
<path d="M12.2797 46.8012C12.1129 47.3015 11.9995 47.7454 11.8237 48.163C11.6367 48.6071 11.3004 48.9053 10.7864 48.9343C10.5291 48.9488 10.2831 48.9111 10.2012 48.6213C10.1347 48.386 10.2338 48.2111 10.4714 48.1199C11.1406 47.8632 11.0604 47.3762 10.8716 46.8426C10.6286 46.156 10.3975 45.4651 10.1721 44.7725C10.0905 44.522 9.93278 44.2191 10.3068 44.0748C10.6856 43.9286 10.9664 44.0941 11.092 44.4697C11.2456 44.929 11.3706 45.3978 11.5135 45.8812C12.0511 45.3721 11.5179 44.0157 12.9401 44.1317C12.9141 45.1014 12.5192 45.8969 12.2797 46.8012Z" fill="white"/>
<path d="M130.986 43.3842C130.451 44.0687 129.848 44.21 129.22 43.6938C128.757 43.3129 128.624 42.7735 128.949 42.2232C129.292 41.6407 129.841 41.4886 130.437 41.7443C131.146 42.0481 131.292 42.6239 130.986 43.3842Z" fill="white"/>
</svg>
