<svg version="1.1" id="Layer_1" xmlns="http://www.w3.org/2000/svg" xmlns:xlink="http://www.w3.org/1999/xlink" x="0px" y="0px"
	 width="100%" viewBox="0 0 896 896" enable-background="new 0 0 896 896" xml:space="preserve">
<path fill="#000000" opacity="1.000000" stroke="none" 
	d="
M295.000000,355.972656 
	C303.499603,355.965393 311.500336,355.867798 319.498505,355.971313 
	C332.791840,356.143372 341.372437,364.762573 341.395416,377.993408 
	C341.437683,402.325409 341.317535,426.657928 341.428070,450.989471 
	C341.461609,458.372009 341.057922,465.423492 334.749634,470.010651 
	C334.806244,471.759613 335.765259,472.225677 336.539703,472.823792 
	C342.535767,477.454437 345.085724,483.722168 345.121094,491.122528 
	C345.171265,501.621796 344.600372,512.157104 345.288544,522.611633 
	C346.100220,534.942017 339.458771,546.493591 322.989899,546.904236 
	C303.170074,547.398315 283.329010,547.015198 263.497345,547.079895 
	C259.181610,547.093933 258.806885,544.423523 258.818481,541.093384 
	C258.878906,523.761047 258.875854,506.428497 258.877258,489.096008 
	C258.880615,447.431396 258.866882,405.766815 258.878052,364.102203 
	C258.880188,356.144623 259.075012,355.978516 267.001190,355.970734 
	C276.167450,355.961731 285.333740,355.971252 295.000000,355.972656 
M309.898315,448.407318 
	C309.880188,432.773956 310.051392,417.137451 309.790710,401.508118 
	C309.529877,385.867645 312.838654,388.392517 296.000366,387.889984 
	C291.782440,387.764099 290.153442,389.100891 290.213562,393.580597 
	C290.441101,410.541443 290.307037,427.507172 290.300934,444.471069 
	C290.296509,456.852112 290.291351,456.852081 302.593079,456.828003 
	C309.891449,456.813721 309.891449,456.813751 309.898315,448.407318 
M290.365448,491.034149 
	C290.348267,497.680145 290.379364,504.326782 290.290222,510.971832 
	C290.254486,513.635986 291.245087,515.009338 294.046875,514.977417 
	C299.362946,514.916809 304.680389,514.922913 309.996704,514.966858 
	C312.714691,514.989258 313.899109,513.747192 313.869568,511.030609 
	C313.800903,504.717468 313.790436,498.402679 313.854095,492.089569 
	C313.881500,489.369843 312.720734,488.138214 309.990112,488.165314 
	C304.674042,488.218079 299.356964,488.156616 294.040466,488.179840 
	C292.518829,488.186493 290.988068,488.304199 290.365448,491.034149 
z"/>
<path fill="#000000" opacity="1.000000" stroke="none" 
	d="
M691.913147,507.000000 
	C691.898010,459.182648 691.877747,411.865265 691.871155,364.547913 
	C691.869995,355.975769 691.906128,355.956329 700.518738,355.927979 
	C706.683228,355.907684 712.848572,355.971100 719.012085,355.889679 
	C722.431702,355.844543 723.746155,357.443665 723.731140,360.776611 
	C723.596619,390.591156 723.550415,420.406128 723.416748,450.220673 
	C723.388245,456.573151 723.434326,456.763885 729.629028,456.809235 
	C733.627319,456.838501 737.636414,456.618134 741.621887,456.842712 
	C745.715820,457.073425 747.226868,455.476166 747.156616,451.353485 
	C746.963623,440.027161 747.077576,428.695618 747.070374,417.366119 
	C747.059082,399.705414 747.025391,382.044678 747.046692,364.384003 
	C747.056824,355.962646 747.145447,355.916412 755.306396,355.905029 
	C760.971130,355.897156 766.636108,355.873291 772.300598,355.908936 
	C778.451294,355.947662 779.067078,356.603821 779.036621,362.893951 
	C778.822021,407.206360 778.532288,451.518616 778.425964,495.831299 
	C778.390381,510.652679 778.858826,525.474731 779.018311,540.297363 
	C779.085327,546.525330 778.450073,547.099609 772.127136,547.130432 
	C765.796265,547.161316 759.453674,546.874329 753.137512,547.174500 
	C748.422913,547.398560 747.009399,545.351807 747.041626,540.990723 
	C747.158691,525.163574 746.931030,509.332458 747.199402,493.509033 
	C747.271118,489.284058 746.049133,487.892334 741.908997,488.137543 
	C737.094604,488.422668 732.249390,488.235229 727.418457,488.175354 
	C724.396423,488.137939 723.437195,489.532776 723.480652,492.505157 
	C723.711792,508.313995 723.821960,524.125122 723.876526,539.935791 
	C723.899841,546.684692 723.422852,547.088135 716.880188,547.114075 
	C710.382507,547.139832 703.881042,546.976501 697.388062,547.151245 
	C693.263733,547.262207 691.766235,545.513916 691.819580,541.488403 
	C691.969543,530.160522 691.897339,518.829651 691.913147,507.000000 
z"/>
<path fill="#000000" opacity="1.000000" stroke="none" 
	d="
M618.340576,428.000122 
	C618.345398,455.316711 618.436646,482.133881 618.270386,508.949402 
	C618.242554,513.434265 619.425842,515.356934 624.161499,514.977417 
	C628.629944,514.619324 633.151367,514.821777 637.646118,514.926025 
	C640.598267,514.994568 641.880371,513.799805 641.825745,510.792603 
	C641.722839,505.131531 641.941833,499.463135 641.774353,493.805267 
	C641.664368,490.088318 643.012329,488.114319 646.877808,488.129761 
	C654.205627,488.159058 661.533752,488.174957 668.861450,488.136810 
	C672.029480,488.120331 673.317505,489.634369 673.301636,492.746399 
	C673.239807,504.905060 673.491455,517.069702 673.190247,529.221375 
	C672.967712,538.198547 663.682007,546.923218 654.056274,547.087952 
	C638.238159,547.358643 622.407104,547.375793 606.590515,547.056335 
	C596.096008,546.844421 586.877258,537.338501 586.853638,526.834778 
	C586.741455,476.866150 586.749207,426.897003 586.850342,376.928314 
	C586.872925,365.751862 596.283691,356.204956 607.620178,355.984283 
	C622.771667,355.689301 637.936279,355.715240 653.089294,355.964447 
	C664.294739,356.148712 673.217529,365.517731 673.273376,376.619904 
	C673.326965,387.279633 673.113770,397.943420 673.346802,408.598236 
	C673.443970,413.039276 671.753967,414.453247 667.485840,414.309845 
	C660.665222,414.080658 653.826355,414.159546 647.002502,414.358978 
	C643.062012,414.474182 641.643616,412.784271 641.742432,408.999390 
	C641.885803,403.506897 641.651978,398.004639 641.790649,392.511902 
	C641.872314,389.273956 640.533752,388.008728 637.359680,388.084473 
	C632.865601,388.191681 628.358032,388.242462 623.871704,388.013641 
	C619.786377,387.805328 618.260376,389.378876 618.325867,393.522827 
	C618.504822,404.845825 618.358215,416.173981 618.340576,428.000122 
z"/>
<path fill="#000000" opacity="1.000000" stroke="none" 
	d="
M567.613281,547.139648 
	C544.320007,547.182068 521.489563,547.097168 498.660889,547.260681 
	C494.239471,547.292358 492.524872,546.112244 492.536041,541.364685 
	C492.676788,481.540405 492.673035,421.715607 492.557983,361.891266 
	C492.549133,357.292603 494.056824,355.812805 498.620087,355.850952 
	C519.948730,356.029175 541.280579,356.024261 562.609314,355.846100 
	C567.171204,355.807983 568.797913,357.189911 568.528809,361.884064 
	C568.128723,368.860443 568.250732,375.880951 568.466553,382.872925 
	C568.588928,386.838867 566.975708,388.152679 563.179199,388.106934 
	C552.182495,387.974426 541.180237,388.205597 530.186340,387.984558 
	C525.816589,387.896759 523.983582,389.002869 524.041687,393.832336 
	C524.272156,412.992889 524.212158,432.159637 523.989868,451.320953 
	C523.938293,455.764587 525.469299,457.205719 529.782959,457.035370 
	C536.604919,456.766022 543.446960,457.046936 550.276245,456.898621 
	C553.824036,456.821564 555.459473,458.050385 555.375000,461.806274 
	C555.210205,469.134674 555.180908,476.474213 555.400391,483.799988 
	C555.521973,487.857208 553.710205,489.170929 549.998779,488.902283 
	C542.682678,488.372742 535.365479,488.289062 528.026611,488.557404 
	C524.963135,488.669403 523.952271,489.743622 524.028198,492.719330 
	C524.185303,498.881042 524.212646,505.052917 524.040283,511.213531 
	C523.940491,514.781067 525.522827,515.843201 528.843872,515.800049 
	C540.839966,515.644043 552.844971,515.858765 564.832092,515.478455 
	C569.362427,515.334656 571.366333,516.567017 571.251770,521.225830 
	C571.083984,528.054321 571.204102,534.889526 571.177673,541.721802 
	C571.168518,544.085083 571.282776,546.560669 567.613281,547.139648 
z"/>
<path fill="#000000" opacity="1.000000" stroke="none" 
	d="
M390.073303,386.505615 
	C389.777527,377.440063 389.737335,368.785950 389.596527,360.133423 
	C389.547577,357.127808 390.988831,355.948669 393.843018,355.949738 
	C418.991364,355.958954 444.139740,355.959320 469.288025,355.919800 
	C472.719879,355.914398 474.068542,357.665924 474.063263,360.877991 
	C474.050964,368.372375 474.048065,375.866760 474.067627,383.361115 
	C474.076447,386.733215 472.358765,388.139435 469.079346,388.094879 
	C463.917480,388.024750 458.754120,388.071167 453.591370,388.059662 
	C447.364288,388.045776 447.249573,388.137634 447.248871,394.547180 
	C447.243683,442.012787 447.247162,489.478424 447.248840,536.944031 
	C447.249207,546.911499 447.250977,546.917664 437.488617,546.877441 
	C432.159760,546.855469 426.818176,546.565308 421.506042,546.845459 
	C416.721558,547.097778 415.624298,544.914246 415.664032,540.593018 
	C415.826324,522.940552 415.731171,505.285828 415.732117,487.631927 
	C415.733734,456.654297 415.741425,425.676666 415.734375,394.699036 
	C415.732880,388.150787 415.698181,388.354950 409.030518,388.010681 
	C402.783447,387.688080 396.417603,389.217499 390.073303,386.505615 
z"/>
<path fill="#000000" opacity="1.000000" stroke="none" 
	d="
M124.032661,488.000000 
	C124.017395,447.002563 123.998009,406.505127 123.997795,366.007690 
	C123.997787,363.845551 124.080086,361.676483 124.269356,359.523376 
	C124.437386,357.611786 125.468506,356.584839 127.548996,356.558472 
	C135.207840,356.461578 142.866028,356.294037 150.523453,356.111206 
	C154.349762,356.019897 155.965744,357.986694 155.944504,361.641113 
	C155.914490,366.807251 155.904724,371.973511 155.902603,377.139740 
	C155.890091,407.471130 156.105911,437.804993 155.771744,468.132782 
	C155.621246,481.791138 155.551620,495.451324 155.324524,509.107330 
	C155.251541,513.496399 156.556076,515.042053 160.976212,514.889404 
	C168.799393,514.619385 176.643845,514.994812 184.470032,514.771545 
	C188.683548,514.651428 190.581848,515.940796 190.424057,520.432739 
	C190.172638,527.589966 190.290451,534.763794 190.397858,541.928467 
	C190.452667,545.585327 188.946808,546.958679 185.258530,546.770752 
	C166.775330,545.829224 148.271790,546.169434 129.783890,546.484680 
	C124.862617,546.568604 123.885651,544.850159 123.930031,540.496277 
	C124.106682,523.165588 124.021057,505.832306 124.032661,488.000000 
z"/>
<path fill="#000000" opacity="1.000000" stroke="none" 
	d="
M234.393509,546.400879 
	C227.454666,546.402527 220.942520,546.127258 214.470535,546.517822 
	C209.877136,546.795044 208.709351,544.934998 208.742111,540.740906 
	C208.887787,522.088684 208.846634,503.434906 208.844208,484.781708 
	C208.838943,444.477448 208.812454,404.173187 208.803329,363.868927 
	C208.801590,356.148346 208.997177,355.950043 216.567032,355.917816 
	C222.562561,355.892334 228.563110,356.061615 234.552338,355.866211 
	C238.916092,355.723785 240.536942,357.595184 240.323715,361.836884 
	C240.106567,366.156433 240.259979,370.494904 240.260361,374.825073 
	C240.265137,429.951965 240.255524,485.078888 240.311874,540.205688 
	C240.315857,544.097229 240.200150,547.453979 234.393509,546.400879 
z"/>
</svg>