<svg width="114" height="34" viewBox="0 0 114 34" fill="none" xmlns="http://www.w3.org/2000/svg">
<path d="M29.7693 0.528972C31.2484 0.527708 32.6407 0.510725 34.0325 0.528738C36.3457 0.558679 37.8389 2.05857 37.8429 4.36095C37.8503 8.59513 37.8294 12.8294 37.8486 17.0635C37.8544 18.3482 37.7842 19.5753 36.6864 20.3735C36.6963 20.6778 36.8632 20.759 36.9979 20.863C38.0413 21.6688 38.4851 22.7595 38.4912 24.0473C38.5 25.8744 38.4006 27.7077 38.5204 29.527C38.6616 31.6727 37.5059 33.6828 34.64 33.7543C31.1911 33.8403 27.7384 33.7736 24.2873 33.7848C23.5363 33.7873 23.4711 33.3226 23.4731 32.7431C23.4836 29.727 23.4831 26.7108 23.4834 23.6947C23.4839 16.4443 23.4815 9.19399 23.4835 1.94365C23.4839 0.558897 23.5178 0.529992 24.8971 0.528637C26.4921 0.527071 28.0872 0.528728 29.7693 0.528972ZM32.3619 16.6142C32.3587 13.8937 32.3885 11.1727 32.3432 8.45291C32.2978 5.7312 32.8735 6.17057 29.9434 6.08312C29.2094 6.06122 28.9259 6.29384 28.9364 7.07339C28.976 10.0249 28.9527 12.9772 28.9516 15.9292C28.9508 18.0837 28.9499 18.0837 31.0906 18.0795C32.3607 18.077 32.3607 18.077 32.3619 16.6142ZM28.9628 24.0319C28.9598 25.1885 28.9653 26.3451 28.9497 27.5014C28.9435 27.965 29.1159 28.204 29.6035 28.1985C30.5285 28.1879 31.4539 28.189 32.379 28.1966C32.852 28.2005 33.0581 27.9844 33.0529 27.5117C33.041 26.4131 33.0392 25.3142 33.0503 24.2156C33.055 23.7423 32.853 23.528 32.3779 23.5327C31.4528 23.5419 30.5275 23.5312 29.6023 23.5352C29.3376 23.5364 29.0712 23.5569 28.9628 24.0319Z" fill="white"/>
<path d="M98.8388 26.8101C98.8362 18.489 98.8327 10.255 98.8315 2.021C98.8313 0.529303 98.8376 0.52592 100.336 0.520987C101.409 0.517455 102.482 0.52849 103.555 0.514322C104.15 0.506467 104.378 0.784742 104.376 1.36473C104.352 6.55296 104.344 11.7413 104.321 16.9295C104.316 18.0349 104.324 18.0681 105.402 18.076C106.098 18.0811 106.795 18.0428 107.489 18.0818C108.201 18.122 108.464 17.844 108.452 17.1266C108.419 15.1557 108.438 13.1838 108.437 11.2123C108.435 8.139 108.429 5.06573 108.433 1.99248C108.435 0.527019 108.45 0.518974 109.87 0.516993C110.856 0.515623 111.842 0.51147 112.828 0.517673C113.898 0.524412 114.005 0.638595 114 1.73318C113.962 9.44429 113.912 17.1554 113.894 24.8665C113.887 27.4457 113.969 30.025 113.997 32.6044C114.008 33.6881 113.898 33.7881 112.797 33.7934C111.696 33.7988 110.592 33.7489 109.493 33.8011C108.672 33.8401 108.427 33.4839 108.432 32.725C108.453 29.9708 108.413 27.2159 108.46 24.4624C108.472 23.7272 108.259 23.485 107.539 23.5277C106.701 23.5773 105.858 23.5447 105.017 23.5343C104.491 23.5277 104.325 23.7705 104.332 24.2877C104.372 27.0387 104.392 29.7901 104.401 32.5414C104.405 33.7159 104.322 33.7861 103.184 33.7906C102.053 33.7951 100.921 33.7666 99.7916 33.7971C99.0739 33.8164 98.8133 33.5121 98.8226 32.8116C98.8487 30.8404 98.8361 28.8686 98.8388 26.8101Z" fill="white"/>
<path d="M86.036 13.0629C86.0368 17.8164 86.0527 22.483 86.0238 27.1494C86.0189 27.9298 86.2249 28.2644 87.0489 28.1984C87.8265 28.1361 88.6133 28.1713 89.3955 28.1894C89.9092 28.2014 90.1323 27.9934 90.1228 27.4701C90.1049 26.485 90.143 25.4986 90.1139 24.5141C90.0947 23.8673 90.3293 23.5237 91.002 23.5264C92.2771 23.5315 93.5523 23.5343 94.8275 23.5277C95.3788 23.5248 95.6029 23.7883 95.6002 24.3298C95.5894 26.4456 95.6332 28.5625 95.5808 30.6771C95.542 32.2392 93.9262 33.7575 92.2511 33.7861C89.4985 33.8332 86.7437 33.8362 83.9913 33.7806C82.1651 33.7438 80.5609 32.0896 80.5568 30.2618C80.5372 21.5664 80.5386 12.8709 80.5562 4.1755C80.5601 2.23061 82.1977 0.569292 84.1705 0.530891C86.8071 0.479559 89.446 0.484073 92.0829 0.527439C94.0328 0.559505 95.5855 2.18987 95.5952 4.12184C95.6046 5.97681 95.5675 7.83249 95.608 9.6866C95.6249 10.4594 95.3308 10.7055 94.5881 10.6805C93.4012 10.6406 92.2111 10.6544 91.0237 10.6891C90.338 10.7091 90.0911 10.415 90.1083 9.75641C90.1333 8.80063 90.0926 7.84314 90.1167 6.88731C90.1309 6.32385 89.898 6.10368 89.3457 6.11686C88.5636 6.13552 87.7792 6.14436 86.9985 6.10454C86.2876 6.06829 86.0221 6.34211 86.0334 7.06323C86.0646 9.03362 86.0391 11.0049 86.036 13.0629Z" fill="white"/>
<path d="M77.2086 33.795C73.1552 33.8024 69.1823 33.7876 65.2097 33.8161C64.4403 33.8216 64.1419 33.6162 64.1439 32.7901C64.1684 22.3797 64.1677 11.9691 64.1477 1.55869C64.1461 0.75844 64.4085 0.500931 65.2026 0.507569C68.9141 0.538583 72.6262 0.537728 76.3378 0.506725C77.1316 0.500092 77.4147 0.74057 77.3679 1.55743C77.2983 2.77144 77.3195 3.99313 77.3571 5.20985C77.3784 5.89999 77.0976 6.12861 76.437 6.12065C74.5234 6.09759 72.6088 6.13782 70.6957 6.09936C69.9352 6.08408 69.6163 6.27656 69.6264 7.11697C69.6665 10.4512 69.656 13.7866 69.6174 17.121C69.6084 17.8942 69.8748 18.145 70.6255 18.1154C71.8126 18.0685 73.0032 18.1174 74.1916 18.0916C74.809 18.0782 75.0936 18.292 75.0789 18.9456C75.0502 20.2208 75.0451 21.498 75.0833 22.7729C75.1045 23.4789 74.7892 23.7075 74.1434 23.6607C72.8702 23.5686 71.5969 23.554 70.3198 23.6007C69.7867 23.6202 69.6108 23.8071 69.624 24.325C69.6514 25.3972 69.6561 26.4712 69.6261 27.5433C69.6088 28.1641 69.8841 28.3489 70.462 28.3414C72.5496 28.3143 74.6386 28.3516 76.7246 28.2854C77.513 28.2604 77.8617 28.4749 77.8417 29.2856C77.8125 30.4739 77.8334 31.6633 77.8288 32.8522C77.8272 33.2635 77.8471 33.6943 77.2086 33.795Z" fill="white"/>
<path d="M46.3136 5.84198C46.2622 4.26442 46.2552 2.75846 46.2307 1.25277C46.2222 0.729747 46.473 0.524557 46.9696 0.524743C51.3459 0.526347 55.7221 0.526411 60.0983 0.519533C60.6955 0.518593 60.9302 0.823388 60.9293 1.38234C60.9272 2.68649 60.9267 3.99064 60.9301 5.29478C60.9316 5.88159 60.6327 6.12629 60.062 6.11854C59.1638 6.10633 58.2653 6.11441 57.3669 6.11241C56.2832 6.10999 56.2633 6.12598 56.2632 7.24135C56.2623 15.5012 56.2629 23.761 56.2632 32.0208C56.2632 33.7553 56.2635 33.7564 54.5647 33.7494C53.6374 33.7456 52.7079 33.6951 51.7835 33.7438C50.9509 33.7877 50.7599 33.4077 50.7669 32.6558C50.7951 29.584 50.7785 26.5117 50.7787 23.4397C50.779 18.049 50.7803 12.6584 50.7791 7.26777C50.7788 6.12827 50.7728 6.16379 49.6125 6.10389C48.5254 6.04775 47.4177 6.31389 46.3136 5.84198Z" fill="white"/>
<path d="M0.0181062 23.5039C0.0154496 16.3696 0.0120761 9.32241 0.0120388 2.27517C0.0120374 1.89893 0.0263588 1.52147 0.059295 1.14679C0.088535 0.814146 0.267967 0.63544 0.630008 0.630851C1.96278 0.61399 3.29543 0.584835 4.62795 0.55302C5.29379 0.53713 5.575 0.879386 5.5713 1.51532C5.56608 2.41431 5.56438 3.31333 5.56401 4.21234C5.56184 9.49051 5.59939 14.7691 5.54124 20.0467C5.51505 22.4234 5.50294 24.8005 5.46342 27.1769C5.45072 27.9407 5.67773 28.2097 6.44691 28.1831C7.80827 28.1361 9.17334 28.2014 10.5352 28.1626C11.2684 28.1417 11.5988 28.3661 11.5713 29.1477C11.5276 30.3932 11.5481 31.6416 11.5668 32.8883C11.5763 33.5247 11.3143 33.7637 10.6724 33.731C7.45605 33.5671 4.23612 33.6263 1.01892 33.6812C0.162532 33.6958 -0.00747617 33.3968 0.000246696 32.6391C0.0309869 29.6233 0.0160869 26.607 0.0181062 23.5039Z" fill="white"/>
<path d="M19.2227 33.6666C18.0153 33.6669 16.882 33.619 15.7558 33.6869C14.9565 33.7352 14.7533 33.4115 14.759 32.6817C14.7843 29.4359 14.7772 26.1898 14.7767 22.9438C14.7758 15.9302 14.7712 8.91657 14.7696 1.90295C14.7693 0.559441 14.8034 0.524933 16.1206 0.519325C17.164 0.514891 18.2082 0.544349 19.2504 0.510345C20.0097 0.485561 20.2918 0.811215 20.2547 1.54934C20.2169 2.30102 20.2436 3.05598 20.2437 3.80951C20.2445 13.4025 20.2428 22.9955 20.2526 32.5885C20.2533 33.2657 20.2332 33.8498 19.2227 33.6666Z" fill="white"/>
</svg>
