<svg width="153" height="30" viewBox="0 0 153 30" fill="none" xmlns="http://www.w3.org/2000/svg">
<path d="M1.04145 18.6052C1.04153 16.19 1.12652 14.029 0.995708 11.8812C0.949776 11.127 0.25623 10.4322 0.0782803 9.65963C-0.0608819 9.05546 -0.0135482 7.87223 0.212691 7.80311C2.4228 7.12789 4.68139 6.60081 6.94768 6.13649C7.17243 6.09045 7.5398 6.74057 7.85874 7.08686C11.8532 5.27885 14.6446 5.54721 16.9729 8.00503C19.4279 10.5966 19.8708 15.4249 17.9914 19.1082C16.0588 22.8957 13.3052 24.0116 7.61751 23.2626C7.61751 24.2055 7.61751 25.1371 7.61751 25.5405C8.57634 26.459 9.27773 27.1308 9.97912 27.8027C9.82888 27.9935 9.67864 28.1842 9.5284 28.375C6.36313 28.375 3.19785 28.375 0.375419 28.375C0.598454 25.1902 0.819946 22.0274 1.04145 18.6052ZM11.4844 10.8228C10.3127 10.2286 9.14106 9.63429 7.52127 8.81274C7.52127 12.4425 7.55267 15.1973 7.50925 17.9509C7.48403 19.551 7.68033 21.0032 9.65204 21.1231C11.6094 21.2421 12.6136 19.8536 12.5907 18.2166C12.5578 15.863 12.0247 13.5164 11.4844 10.8228Z" fill="white"/>
<path d="M82.0178 27.6897C79.343 29.7839 76.3591 29.8431 73.4784 29.3557C72.1603 29.1327 70.4318 28.0006 70.0082 26.8639C69.6587 25.926 70.9564 24.3742 71.6117 22.897C70.7473 22.1999 67.8649 24.115 67.7624 20.9699C69.2831 20.3915 70.778 19.8229 72.3207 19.2361C70.7392 18.1903 68.8893 17.5435 68.0343 16.2428C67.1446 14.8891 66.6868 12.8105 66.9692 11.2131C67.71 7.02309 70.6693 5.82445 78.5292 6.068C79.0732 3.97261 80.301 2.66891 82.9642 3.36846C82.805 4.83511 83.1819 6.56649 79.923 6.06571C82.589 8.94013 84.9778 11.3179 83.3835 15.0188C81.8872 18.4921 78.4825 18.8613 75.1433 20.0891C77.1325 20.6339 78.8036 20.9425 80.3587 21.5486C83.5437 22.7899 84.0715 24.7171 82.0178 27.6897ZM77.6403 12.1583C77.1997 11.1416 76.9615 9.94039 76.2554 9.16551C75.6727 8.52595 74.4774 8.03019 73.6668 8.1629C73.1539 8.24687 72.5772 9.58132 72.5177 10.3908C72.4381 11.4734 72.6792 12.6464 73.0565 13.6806C73.6944 15.4291 74.3504 17.8305 76.7216 17.2024C79.151 16.559 78.0039 14.2657 77.6403 12.1583ZM77.3938 25.5297C76.7581 24.9389 76.1224 24.3481 75.4866 23.7573C75.2453 23.8642 75.0039 23.9712 74.7625 24.0782C74.9104 25.2473 74.9726 26.4396 75.2774 27.5664C75.3394 27.7954 76.6167 28.0396 76.8075 27.8199C77.2303 27.333 77.3189 26.5559 77.3938 25.5297Z" fill="white"/>
<path d="M124.592 22.6264C121.883 22.9511 119.236 23.1069 116.591 23.0877C116.328 23.0858 116.073 22.0178 115.814 21.4446C117.899 20.8002 116.889 19.073 116.996 17.8134C117.148 16.0137 116.971 14.1884 117.055 12.3794C117.12 10.9504 116.649 9.70255 115.182 9.995C114.083 10.2143 112.452 11.28 112.317 12.1617C111.93 14.6918 112.05 17.3302 112.249 19.9044C112.326 20.8927 113.155 21.8226 113.794 23.0796C110.478 23.0796 107.734 23.0796 104.777 23.0796C104.717 22.7621 104.452 22.2651 104.601 22.0193C106.796 18.3994 105.166 14.4413 105.629 10.6757C105.664 10.3888 105.344 10.0056 105.103 9.74663C104.186 8.76004 104.104 8.04139 105.622 7.65471C107.764 7.1095 109.895 6.52721 112.192 5.91823C112.282 6.8121 112.348 7.4652 112.422 8.19504C112.719 8.09945 112.96 8.05106 113.175 7.94836C114.556 7.28886 115.866 6.34317 117.32 6.00354C121.054 5.13093 123.33 7.02473 123.427 10.8493C123.471 12.5746 123.415 14.3023 123.443 16.0283C123.479 18.2216 123.037 20.5131 124.592 22.6264Z" fill="white"/>
<path d="M65.4733 11.6023C65.8287 15.5498 64.3927 19.4153 66.7811 23.0665C63.9639 22.479 61.1432 24.4741 58.8198 21.875C56.1314 23.6882 53.1599 24.6694 50.1666 22.2961C48.146 20.6939 48.0724 18.4108 48.8088 16.1607C50.4722 11.0784 54.9632 12.5231 59.1411 12.0284C58.7628 11.1173 58.5104 9.76743 58.1319 9.73111C56.7663 9.60007 55.3382 9.81225 53.9729 10.0886C52.9816 10.2894 52.0521 10.796 51.0951 11.1663C50.9462 10.9362 50.7974 10.7061 50.6486 10.476C51.3539 8.69529 52.0593 6.91458 52.5083 5.78088C54.8568 5.78088 56.7333 5.75035 58.6085 5.78734C62.3235 5.86062 65.3476 6.92125 65.4733 11.6023ZM58.6145 19.4114C58.7659 17.6949 58.9173 15.9784 59.0687 14.2619C58.798 14.0883 58.5274 13.9147 58.2567 13.7411C57.1961 14.5392 55.7758 15.1395 55.1927 16.2001C54.7536 16.9988 55.1156 18.5526 55.657 19.445C55.935 19.9032 57.3861 19.6497 58.6145 19.4114Z" fill="white"/>
<path d="M142.047 6.21821C143.025 6.04908 143.792 5.91995 144.565 5.84477C149.461 5.36876 151.858 7.5264 151.882 12.4254C151.892 14.5855 151.752 16.7567 151.931 18.9019C152.045 20.2592 152.622 21.5778 153 22.9477C147.479 23.5651 146.641 23.4371 145.833 22.3536C143.432 22.7605 141.284 23.5296 139.202 23.3797C136.28 23.1692 134.878 21.1252 134.926 18.2226C134.978 15.0145 136.798 12.6333 139.641 12.3627C141.505 12.1853 143.399 12.3292 146.084 12.3292C145.292 10.9639 144.919 9.68374 144.464 9.65382C143.101 9.56429 141.696 9.91022 140.328 10.1909C139.363 10.389 138.433 10.7577 136.82 11.2569C137.815 8.67238 138.457 7.0065 139.246 4.95801C140.182 5.43627 141.011 5.85971 142.047 6.21821ZM143.302 20.1587C147.209 19.3508 144.867 16.3831 145.292 14.1208C143.853 14.4747 142.265 14.9157 141.715 15.9233C140.953 17.3194 140.985 19.1377 143.302 20.1587Z" fill="white"/>
<path d="M33.8142 6.73889C34.7117 8.40345 35.8171 9.92093 36.0524 11.5631C36.4043 14.019 36.0199 16.5714 36.1951 19.0654C36.2872 20.3763 36.9028 21.6504 37.4307 23.4471C34.5621 22.4731 31.7362 24.4662 29.5981 21.8444C27.0139 23.6199 24.2282 24.5417 21.2766 22.5584C19.058 21.0678 18.9698 18.6907 19.5464 16.4875C20.9822 11.0022 25.914 12.74 30.1787 11.9637C29.5727 10.9498 29.1803 9.65541 28.7096 9.62631C27.345 9.54192 25.936 9.90725 24.5697 10.21C23.635 10.417 22.7426 10.8147 21.8313 11.1271C21.6954 10.8759 21.5596 10.6246 21.4238 10.3734C22.1394 8.65605 22.8551 6.93869 23.5201 5.34302C27.0075 5.79291 30.3201 6.22025 33.8142 6.73889ZM26.4418 19.6503C29.5485 20.7352 30.2834 19.497 29.5875 14.3505C25.9815 14.2563 24.9491 15.7626 26.4418 19.6503Z" fill="white"/>
<path d="M86.6356 20.413C83.8854 16.258 84.0991 11.6139 87.0448 8.64203C90.2881 5.36977 96.5017 4.85458 100.718 7.50837C104.165 9.67836 105.527 13.9757 104.033 17.9666C101.994 23.4133 93.6169 25.5183 88.3335 21.8961C87.7692 21.5092 87.2835 21.0076 86.6356 20.413ZM97.5916 13.0164C96.7654 11.6385 96.1664 10.0279 95.0546 8.94245C93.7083 7.62802 91.9775 8.246 91.3 9.93478C90.337 12.3351 91.7144 18.4876 93.5983 20.2006C95.3917 21.8312 97.4327 21.391 97.858 19.024C98.1822 17.2194 97.8025 15.2883 97.5916 13.0164Z" fill="white"/>
<path d="M38.9386 21.6866C38.814 17.4617 38.814 13.4189 38.814 9.80511C37.7879 8.99123 37.2007 8.52551 36.6135 8.05978C37.1826 7.54684 37.7372 7.01666 38.3236 6.52447C39.6269 5.43066 40.9295 4.33459 42.2667 3.28315C42.8554 2.82024 43.5279 2.46384 44.1624 2.05908C44.4084 2.78911 44.7251 3.50476 44.8774 4.25384C44.9933 4.82426 44.9004 5.43711 44.9004 6.19587C45.9053 6.26068 46.8166 6.31945 47.8814 6.38812C47.7511 7.15394 47.6273 7.8819 47.4734 8.78644C46.6602 8.88314 45.85 8.97949 44.8724 9.09573C44.8724 12.2724 44.7862 15.3695 44.9462 18.4538C44.9776 19.0602 45.9245 19.6566 46.5148 20.1842C46.961 20.583 47.8659 20.8134 47.9237 21.212C47.9913 21.6782 47.4797 22.4161 47.0136 22.7404C44.6607 24.3776 40.9906 23.9319 38.9386 21.6866Z" fill="white"/>
<path d="M126.456 7.78752C128.896 7.13803 131.134 6.56409 133.665 5.91528C133.665 9.55532 133.568 12.9816 133.699 16.3991C133.785 18.6078 134.205 20.8036 134.484 23.0773C131.681 23.0773 128.853 23.0773 125.951 23.0773C125.925 22.5785 125.711 21.9951 125.909 21.7627C128.883 18.271 126.637 14.1714 127.209 10.406C127.318 9.68294 125.057 9.33928 126.456 7.78752Z" fill="white"/>
<path d="M127.065 3.23325C128.225 0.826817 130.166 0.289616 132.263 0.997119C132.976 1.2377 133.282 2.68596 133.774 3.58238C132.334 4.28605 130.957 5.23841 129.437 5.62243C127.959 5.99578 127.074 4.98812 127.065 3.23325Z" fill="white"/>
</svg>
