<svg version="1.1" id="Layer_1" xmlns="http://www.w3.org/2000/svg" xmlns:xlink="http://www.w3.org/1999/xlink" x="0px" y="0px"
	 width="100%" viewBox="0 0 300 168" enable-background="new 0 0 300 168" xml:space="preserve">
<path fill="#FEFEFE" opacity="1.000000" stroke="none" 
	d="
M301.000000,60.000000 
	C301.000000,96.316307 301.000000,132.632614 301.000000,168.974457 
	C201.063889,168.974457 101.127762,168.974457 1.095819,168.974457 
	C1.095819,113.090263 1.095819,57.180309 1.095819,1.135177 
	C100.999870,1.135177 200.999908,1.135177 301.000000,1.135177 
	C301.000000,19.746792 301.000000,38.404736 300.656738,57.570251 
	C299.699127,58.421322 299.084839,58.764820 298.470520,59.108315 
	C299.313690,59.405544 300.156830,59.702770 301.000000,60.000000 
M295.109863,61.136387 
	C295.463226,59.265053 295.816589,57.393715 296.169983,55.522381 
	C295.451996,55.348587 294.734039,55.174793 294.016052,55.001003 
	C293.687195,56.017597 293.358337,57.034195 292.963318,58.766525 
	C293.168152,59.916939 293.373016,61.067356 293.577850,62.217766 
	C293.817810,61.848328 294.057770,61.478889 295.109863,61.136387 
M5.496053,93.497528 
	C5.069296,99.591423 4.642539,105.685326 4.212807,111.821701 
	C9.650913,111.821701 15.749591,111.821701 21.848267,111.821701 
	C22.137737,111.454094 22.427206,111.086494 22.716675,110.718887 
	C21.365278,109.424416 20.013880,108.129944 18.166462,106.360344 
	C18.166462,105.582970 18.166462,103.788147 18.166462,101.971268 
	C29.125277,103.414558 34.430637,101.264366 38.154213,93.966789 
	C41.775326,86.870026 40.922005,77.567123 36.191933,72.573921 
	C31.705904,67.838333 26.327501,67.321266 18.631247,70.804840 
	C18.016745,70.137627 17.308901,68.885002 16.875874,68.973717 
	C12.509313,69.868340 8.157585,70.883888 3.899272,72.184860 
	C3.463367,72.318039 3.372167,74.597824 3.640297,75.761909 
	C3.983160,77.250435 5.319447,78.589104 5.407946,80.042274 
	C5.659978,84.180649 5.496226,88.344345 5.496053,93.497528 
M161.797516,110.238686 
	C165.473694,104.773232 164.456665,101.060036 158.320007,98.668327 
	C155.323730,97.500565 152.104065,96.905937 148.271332,95.856300 
	C154.705032,93.490570 161.265167,92.779305 164.148087,86.087051 
	C167.219833,78.956444 162.617203,74.375046 157.480515,68.836784 
	C163.759705,69.801643 163.033524,66.465729 163.340103,63.639866 
	C158.208817,62.292011 155.843155,64.803917 154.795105,68.841187 
	C139.650986,68.371925 133.949249,70.681404 132.521912,78.754478 
	C131.977768,81.832214 132.859802,85.837219 134.574112,88.445396 
	C136.221375,90.951576 139.785645,92.197754 142.832932,94.212761 
	C139.860489,95.343353 136.980255,96.438881 134.050232,97.553345 
	C134.247772,103.613174 139.801270,99.923187 141.466888,101.266457 
	C140.204224,104.112587 137.703949,107.102402 138.377365,108.909538 
	C139.193527,111.099678 142.523911,113.280968 145.063385,113.710617 
	C150.613922,114.649696 156.363098,114.535576 161.797516,110.238686 
M243.669128,100.324394 
	C240.550690,96.672920 241.402664,92.257721 241.333130,88.031845 
	C241.278412,84.706345 241.387024,81.377533 241.302689,78.053253 
	C241.115753,70.684280 236.729477,67.035423 229.534943,68.716713 
	C226.734756,69.371094 224.209305,71.193199 221.549393,72.463882 
	C221.135147,72.661758 220.670914,72.755005 220.097321,72.939171 
	C219.955368,71.532959 219.828339,70.274612 219.654480,68.552353 
	C215.230179,69.725693 211.122650,70.847610 206.996933,71.898109 
	C204.070969,72.643135 204.228958,74.027786 205.995987,75.928696 
	C206.459763,76.427589 207.077469,77.165985 207.009491,77.718750 
	C206.117081,84.974159 209.258194,92.600449 205.028412,99.574944 
	C204.741165,100.048569 205.252029,101.006218 205.368683,101.617920 
	C211.065445,101.617920 216.353210,101.617920 222.742264,101.617920 
	C221.511002,99.196037 219.913147,97.404251 219.765747,95.500175 
	C219.381760,90.540230 219.149246,85.456802 219.895920,80.581871 
	C220.156113,78.883080 223.297516,76.829720 225.416000,76.407242 
	C228.241531,75.843758 229.150620,78.248077 229.023865,81.001442 
	C228.863403,84.486755 229.204514,88.003662 228.910217,91.471390 
	C228.704269,93.898224 230.650772,97.226074 226.632797,98.467773 
	C227.131943,99.572189 227.624176,101.629944 228.131287,101.633621 
	C233.227768,101.670547 238.326691,101.370354 243.669128,100.324394 
M129.636536,79.057228 
	C129.397812,70.485741 123.571030,68.442169 116.413155,68.300987 
	C112.800194,68.229721 109.184662,68.288536 104.659729,68.288536 
	C103.794487,70.472893 102.435463,73.903854 101.076439,77.334816 
	C101.363220,77.778152 101.649994,78.221481 101.936768,78.664818 
	C103.780754,77.951439 105.571518,76.975212 107.481636,76.588493 
	C110.112137,76.055954 112.863724,75.647133 115.494881,75.899620 
	C116.224129,75.969604 116.710510,78.570442 117.439453,80.325951 
	C109.389610,81.279099 100.736580,78.495552 97.531769,88.287712 
	C96.112869,92.623077 96.254654,97.022186 100.147896,100.109070 
	C105.915199,104.681862 111.640495,102.791359 116.820343,99.297798 
	C121.296829,104.305573 126.731636,100.461472 132.159668,101.593513 
	C127.557961,94.558495 130.324738,87.110718 129.636536,79.057228 
M276.777374,69.255730 
	C275.181030,68.439865 273.584656,67.624008 271.781647,66.702515 
	C270.261017,70.649437 269.024445,73.859161 267.105957,78.838821 
	C270.215118,77.877037 272.006958,77.166718 273.866302,76.785011 
	C276.500702,76.244171 279.209015,75.577637 281.834167,75.750137 
	C282.711487,75.807785 283.430481,78.274307 284.955139,80.904930 
	C279.782776,80.904930 276.133331,80.627747 272.542755,80.969452 
	C267.063904,81.490852 263.557709,86.078857 263.456696,92.260010 
	C263.365295,97.852600 266.066284,101.790825 271.696014,102.196358 
	C275.707184,102.485291 279.845856,101.003334 284.472809,100.219284 
	C286.029663,102.307037 287.643616,102.553696 298.281494,101.364052 
	C297.552368,98.724609 296.440796,96.184006 296.222260,93.568764 
	C295.876862,89.435585 296.146667,85.252274 296.126831,81.090317 
	C296.081879,71.651154 291.461884,67.493935 282.030304,68.411079 
	C280.540833,68.555923 279.061462,68.804741 276.777374,69.255730 
M68.290970,69.958504 
	C61.908443,69.135139 55.525913,68.311775 48.806496,67.444946 
	C47.525280,70.519394 46.146355,73.828308 44.767433,77.137215 
	C45.029163,77.621284 45.290890,78.105354 45.552620,78.589424 
	C47.308479,77.987434 49.027969,77.221306 50.828808,76.822319 
	C53.461422,76.239052 56.176151,75.535156 58.805481,75.697746 
	C59.712296,75.753822 60.468361,78.247780 61.635899,80.201378 
	C53.419025,81.697037 43.916656,78.348717 41.150322,88.917542 
	C40.039223,93.162506 40.209305,97.742584 44.483841,100.614639 
	C50.170956,104.435844 55.538170,102.659897 60.517288,99.238792 
	C64.636864,104.290337 70.081703,100.450218 75.608704,102.326889 
	C74.591629,98.865173 73.405449,96.410286 73.228020,93.884537 
	C72.890457,89.079140 73.631065,84.161362 72.953033,79.429382 
	C72.499672,76.265404 70.369934,73.341621 68.290970,69.958504 
M170.656204,96.762070 
	C171.662308,97.625984 172.598114,98.592407 173.685425,99.337845 
	C183.865265,106.316887 200.004868,102.261139 203.934097,91.766777 
	C206.813126,84.077385 204.188385,75.797409 197.546417,71.616409 
	C189.423569,66.503220 177.451477,67.495865 171.202362,73.800667 
	C165.526901,79.526703 165.115189,88.474792 170.656204,96.762070 
M78.754425,99.285210 
	C82.467934,103.260460 89.539261,104.119286 94.072762,100.964790 
	C94.970795,100.339928 95.956566,98.918213 95.826279,98.019981 
	C95.714874,97.251938 93.971428,96.807976 93.111679,96.039589 
	C91.974304,95.023071 90.149933,93.873886 90.089340,92.705566 
	C89.781128,86.762878 89.947205,80.795593 89.947205,74.674965 
	C91.830696,74.450996 93.391792,74.265366 94.958679,74.079048 
	C95.255142,72.336227 95.493736,70.933632 95.744743,69.458092 
	C93.693245,69.325790 91.937370,69.212555 90.001099,69.087685 
	C90.001099,67.625748 90.180107,66.444939 89.956741,65.345894 
	C89.663429,63.902603 89.053123,62.523727 88.579140,61.117149 
	C87.356705,61.897015 86.060989,62.583698 84.926666,63.475616 
	C82.350197,65.501480 79.840538,67.613327 77.329391,69.720810 
	C76.199425,70.669136 75.130882,71.690651 74.034462,72.678955 
	C75.165817,73.576294 76.297173,74.473625 78.274277,76.041756 
	C78.274277,83.004570 78.274277,90.794014 78.754425,99.285210 
M246.750275,72.299660 
	C244.441940,75.143944 248.799026,75.806091 248.587677,77.199318 
	C247.487198,84.454254 251.813782,92.353081 246.083069,99.080673 
	C245.701645,99.528465 246.114151,100.652588 246.165482,101.613586 
	C251.756622,101.613586 257.205902,101.613586 262.606384,101.613586 
	C262.068573,97.232788 261.258331,93.002060 261.094116,88.746407 
	C260.839996,82.161804 261.027069,75.560188 261.027069,68.546776 
	C256.151337,69.796860 251.838242,70.902695 246.750275,72.299660 
M248.201553,63.746475 
	C248.329437,66.760674 250.033890,68.702187 252.881775,67.982819 
	C255.810928,67.242920 258.463501,65.407959 261.237091,64.052177 
	C260.289337,62.325008 259.700287,59.534565 258.326233,59.071037 
	C254.285324,57.707859 250.545364,58.742908 248.201553,63.746475 
z"/>
<path fill="#D5D5D5" opacity="1.000000" stroke="none" 
	d="
M301.000000,59.666668 
	C300.156830,59.702770 299.313690,59.405544 298.470520,59.108315 
	C299.084839,58.764820 299.699127,58.421322 300.656738,58.038910 
	C301.000000,58.444447 301.000000,58.888889 301.000000,59.666668 
z"/>
<path fill="#020202" opacity="1.000000" stroke="none" 
	d="
M5.496075,92.997803 
	C5.496226,88.344345 5.659978,84.180649 5.407946,80.042274 
	C5.319447,78.589104 3.983160,77.250435 3.640297,75.761909 
	C3.372167,74.597824 3.463367,72.318039 3.899272,72.184860 
	C8.157585,70.883888 12.509313,69.868340 16.875874,68.973717 
	C17.308901,68.885002 18.016745,70.137627 18.631247,70.804840 
	C26.327501,67.321266 31.705904,67.838333 36.191933,72.573921 
	C40.922005,77.567123 41.775326,86.870026 38.154213,93.966789 
	C34.430637,101.264366 29.125277,103.414558 18.166462,101.971268 
	C18.166462,103.788147 18.166462,105.582970 18.166462,106.360344 
	C20.013880,108.129944 21.365278,109.424416 22.716675,110.718887 
	C22.427206,111.086494 22.137737,111.454094 21.848267,111.821701 
	C15.749591,111.821701 9.650913,111.821701 4.212807,111.821701 
	C4.642539,105.685326 5.069296,99.591423 5.496075,92.997803 
M25.616959,78.003082 
	C23.359459,76.858086 21.101957,75.713089 17.981026,74.130165 
	C17.981026,81.123726 18.041525,86.431511 17.957880,91.737022 
	C17.909275,94.819954 18.287498,97.618095 22.086479,97.849052 
	C25.857901,98.078323 27.792633,95.403053 27.748571,92.248955 
	C27.685223,87.714172 26.657913,83.192848 25.616959,78.003082 
z"/>
<path fill="#060606" opacity="1.000000" stroke="none" 
	d="
M161.516785,110.500595 
	C156.363098,114.535576 150.613922,114.649696 145.063385,113.710617 
	C142.523911,113.280968 139.193527,111.099678 138.377365,108.909538 
	C137.703949,107.102402 140.204224,104.112587 141.466888,101.266457 
	C139.801270,99.923187 134.247772,103.613174 134.050232,97.553345 
	C136.980255,96.438881 139.860489,95.343353 142.832932,94.212761 
	C139.785645,92.197754 136.221375,90.951576 134.574112,88.445396 
	C132.859802,85.837219 131.977768,81.832214 132.521912,78.754478 
	C133.949249,70.681404 139.650986,68.371925 154.795105,68.841187 
	C155.843155,64.803917 158.208817,62.292011 163.340103,63.639866 
	C163.033524,66.465729 163.759705,69.801643 157.480515,68.836784 
	C162.617203,74.375046 167.219833,78.956444 164.148087,86.087051 
	C161.265167,92.779305 154.705032,93.490570 148.271332,95.856300 
	C152.104065,96.905937 155.323730,97.500565 158.320007,98.668327 
	C164.456665,101.060036 165.473694,104.773232 161.516785,110.500595 
M153.082382,80.575607 
	C152.233398,78.616661 151.774475,76.302299 150.414093,74.809303 
	C149.291275,73.577034 146.988220,72.621826 145.426514,72.877518 
	C144.438293,73.039314 143.327087,75.610451 143.212387,77.170197 
	C143.059021,79.255928 143.523560,81.516045 144.250565,83.508705 
	C145.479721,86.877632 146.743637,91.504448 151.312363,90.294365 
	C155.993027,89.054626 153.782913,84.636002 153.082382,80.575607 
M152.607407,106.338852 
	C151.382553,105.200523 150.157700,104.062202 148.932846,102.923874 
	C148.467758,103.129974 148.002686,103.336067 147.537598,103.542168 
	C147.822525,105.794846 147.942505,108.092140 148.529663,110.263062 
	C148.649048,110.704422 151.110123,111.174866 151.477722,110.751495 
	C152.292328,109.813324 152.463181,108.316216 152.607407,106.338852 
z"/>
<path fill="#090909" opacity="1.000000" stroke="none" 
	d="
M243.547028,100.744713 
	C238.326691,101.370354 233.227768,101.670547 228.131287,101.633621 
	C227.624176,101.629944 227.131943,99.572189 226.632782,98.467773 
	C230.650772,97.226074 228.704269,93.898224 228.910217,91.471390 
	C229.204514,88.003662 228.863403,84.486755 229.023865,81.001442 
	C229.150620,78.248077 228.241531,75.843758 225.416000,76.407242 
	C223.297516,76.829720 220.156113,78.883080 219.895920,80.581871 
	C219.149246,85.456802 219.381760,90.540230 219.765747,95.500175 
	C219.913147,97.404251 221.511002,99.196037 222.742264,101.617920 
	C216.353210,101.617920 211.065445,101.617920 205.368683,101.617920 
	C205.252029,101.006218 204.741165,100.048569 205.028412,99.574944 
	C209.258194,92.600449 206.117081,84.974159 207.009491,77.718750 
	C207.077469,77.165985 206.459763,76.427589 205.995987,75.928696 
	C204.228958,74.027786 204.070969,72.643135 206.996933,71.898109 
	C211.122650,70.847610 215.230179,69.725693 219.654480,68.552353 
	C219.828339,70.274612 219.955368,71.532959 220.097321,72.939171 
	C220.670914,72.755005 221.135147,72.661758 221.549393,72.463882 
	C224.209305,71.193199 226.734756,69.371094 229.534943,68.716713 
	C236.729477,67.035423 241.115753,70.684280 241.302689,78.053253 
	C241.387024,81.377533 241.278412,84.706345 241.333130,88.031845 
	C241.402664,92.257721 240.550690,96.672920 243.547028,100.744713 
z"/>
<path fill="#080808" opacity="1.000000" stroke="none" 
	d="
M129.639816,79.504944 
	C130.324738,87.110718 127.557961,94.558495 132.159668,101.593513 
	C126.731636,100.461472 121.296829,104.305573 116.820343,99.297798 
	C111.640495,102.791359 105.915199,104.681862 100.147896,100.109070 
	C96.254654,97.022186 96.112869,92.623077 97.531769,88.287712 
	C100.736580,78.495552 109.389610,81.279099 117.439453,80.325951 
	C116.710510,78.570442 116.224129,75.969604 115.494881,75.899620 
	C112.863724,75.647133 110.112137,76.055954 107.481636,76.588493 
	C105.571518,76.975212 103.780754,77.951439 101.936768,78.664818 
	C101.649994,78.221481 101.363220,77.778152 101.076439,77.334816 
	C102.435463,73.903854 103.794487,70.472893 104.659729,68.288536 
	C109.184662,68.288536 112.800194,68.229721 116.413155,68.300987 
	C123.571030,68.442169 129.397812,70.485741 129.639816,79.504944 
M116.424782,94.551071 
	C116.716484,91.243797 117.008186,87.936516 117.299889,84.629242 
	C116.778381,84.294800 116.256882,83.960365 115.735374,83.625923 
	C113.691887,85.163628 110.955292,86.320267 109.831833,88.363777 
	C108.985855,89.902550 109.683296,92.896309 110.726486,94.615837 
	C111.262062,95.498665 114.057884,95.010277 116.424782,94.551071 
z"/>
<path fill="#050505" opacity="1.000000" stroke="none" 
	d="
M277.177399,69.130608 
	C279.061462,68.804741 280.540833,68.555923 282.030304,68.411079 
	C291.461884,67.493935 296.081879,71.651154 296.126831,81.090317 
	C296.146667,85.252274 295.876862,89.435585 296.222260,93.568764 
	C296.440796,96.184006 297.552368,98.724609 298.281494,101.364052 
	C287.643616,102.553696 286.029663,102.307037 284.472809,100.219284 
	C279.845856,101.003334 275.707184,102.485291 271.696014,102.196358 
	C266.066284,101.790825 263.365295,97.852600 263.456696,92.260010 
	C263.557709,86.078857 267.063904,81.490852 272.542755,80.969452 
	C276.133331,80.627747 279.782776,80.904930 284.955139,80.904930 
	C283.430481,78.274307 282.711487,75.807785 281.834167,75.750137 
	C279.209015,75.577637 276.500702,76.244171 273.866302,76.785011 
	C272.006958,77.166718 270.215118,77.877037 267.105957,78.838821 
	C269.024445,73.859161 270.261017,70.649437 271.781647,66.702515 
	C273.584656,67.624008 275.181030,68.439865 277.177399,69.130608 
M279.596313,95.990356 
	C287.123871,94.433807 282.611115,88.715691 283.430054,84.356804 
	C280.657715,85.038818 277.597473,85.888489 276.538269,87.829910 
	C275.070801,90.519669 275.131622,94.023079 279.596313,95.990356 
z"/>
<path fill="#050505" opacity="1.000000" stroke="none" 
	d="
M68.640671,70.134430 
	C70.369934,73.341621 72.499672,76.265404 72.953033,79.429382 
	C73.631065,84.161362 72.890457,89.079140 73.228020,93.884537 
	C73.405449,96.410286 74.591629,98.865173 75.608704,102.326889 
	C70.081703,100.450218 64.636864,104.290337 60.517288,99.238792 
	C55.538170,102.659897 50.170956,104.435844 44.483841,100.614639 
	C40.209305,97.742584 40.039223,93.162506 41.150322,88.917542 
	C43.916656,78.348717 53.419025,81.697037 61.635899,80.201378 
	C60.468361,78.247780 59.712296,75.753822 58.805481,75.697746 
	C56.176151,75.535156 53.461422,76.239052 50.828808,76.822319 
	C49.027969,77.221306 47.308479,77.987434 45.552620,78.589424 
	C45.290890,78.105354 45.029163,77.621284 44.767433,77.137215 
	C46.146355,73.828308 47.525280,70.519394 48.806496,67.444946 
	C55.525913,68.311775 61.908443,69.135139 68.640671,70.134430 
M54.435875,95.011505 
	C60.421722,97.101707 61.837696,94.716095 60.496853,84.800034 
	C53.548954,84.618469 51.559940,87.520882 54.435875,95.011505 
z"/>
<path fill="#050505" opacity="1.000000" stroke="none" 
	d="
M170.414001,96.480240 
	C165.115189,88.474792 165.526901,79.526703 171.202362,73.800667 
	C177.451477,67.495865 189.423569,66.503220 197.546417,71.616409 
	C204.188385,75.797409 206.813126,84.077385 203.934097,91.766777 
	C200.004868,102.261139 183.865265,106.316887 173.685425,99.337845 
	C172.598114,98.592407 171.662308,97.625984 170.414001,96.480240 
M191.523392,82.228943 
	C189.931519,79.574081 188.777451,76.470802 186.635376,74.379501 
	C184.041321,71.846939 180.706573,73.037621 179.401138,76.291466 
	C177.545654,80.916313 180.199554,92.770607 183.829330,96.071007 
	C187.284760,99.212883 191.217331,98.364723 192.036774,93.804008 
	C192.661469,90.327057 191.929718,86.606384 191.523392,82.228943 
z"/>
<path fill="#050505" opacity="1.000000" stroke="none" 
	d="
M78.514351,98.934334 
	C78.274277,90.794014 78.274277,83.004570 78.274277,76.041756 
	C76.297173,74.473625 75.165817,73.576294 74.034462,72.678955 
	C75.130882,71.690651 76.199425,70.669136 77.329391,69.720810 
	C79.840538,67.613327 82.350197,65.501480 84.926666,63.475616 
	C86.060989,62.583698 87.356705,61.897015 88.579140,61.117149 
	C89.053123,62.523727 89.663429,63.902603 89.956741,65.345894 
	C90.180107,66.444939 90.001099,67.625748 90.001099,69.087685 
	C91.937370,69.212555 93.693245,69.325790 95.744743,69.458092 
	C95.493736,70.933632 95.255142,72.336227 94.958679,74.079048 
	C93.391792,74.265366 91.830696,74.450996 89.947205,74.674965 
	C89.947205,80.795593 89.781128,86.762878 90.089340,92.705566 
	C90.149933,93.873886 91.974304,95.023071 93.111679,96.039589 
	C93.971428,96.807976 95.714874,97.251938 95.826279,98.019981 
	C95.956566,98.918213 94.970795,100.339928 94.072762,100.964790 
	C89.539261,104.119286 82.467934,103.260460 78.514351,98.934334 
z"/>
<path fill="#040404" opacity="1.000000" stroke="none" 
	d="
M247.137711,72.154099 
	C251.838242,70.902695 256.151337,69.796860 261.027069,68.546776 
	C261.027069,75.560188 260.839996,82.161804 261.094116,88.746407 
	C261.258331,93.002060 262.068573,97.232788 262.606384,101.613586 
	C257.205902,101.613586 251.756622,101.613586 246.165482,101.613586 
	C246.114151,100.652588 245.701645,99.528465 246.083069,99.080673 
	C251.813782,92.353081 247.487198,84.454254 248.587677,77.199318 
	C248.799026,75.806091 244.441940,75.143944 247.137711,72.154099 
z"/>
<path fill="#080808" opacity="1.000000" stroke="none" 
	d="
M248.311188,63.379486 
	C250.545364,58.742908 254.285324,57.707859 258.326233,59.071037 
	C259.700287,59.534565 260.289337,62.325008 261.237091,64.052177 
	C258.463501,65.407959 255.810928,67.242920 252.881775,67.982819 
	C250.033890,68.702187 248.329437,66.760674 248.311188,63.379486 
z"/>
<path fill="#D5D5D5" opacity="1.000000" stroke="none" 
	d="
M293.029480,58.050797 
	C293.358337,57.034195 293.687195,56.017597 294.016052,55.001003 
	C294.734039,55.174793 295.451996,55.348587 296.169983,55.522381 
	C295.816589,57.393715 295.463226,59.265053 294.659973,60.772827 
	C293.816559,59.623112 293.423004,58.836956 293.029480,58.050797 
z"/>
<path fill="#8D8D8D" opacity="1.000000" stroke="none" 
	d="
M292.996399,58.408661 
	C293.423004,58.836956 293.816559,59.623112 294.253906,60.759361 
	C294.057770,61.478889 293.817810,61.848328 293.577850,62.217766 
	C293.373016,61.067356 293.168152,59.916939 292.996399,58.408661 
z"/>
<path fill="#F8F8F8" opacity="1.000000" stroke="none" 
	d="
M25.829508,78.334427 
	C26.657913,83.192848 27.685223,87.714172 27.748571,92.248955 
	C27.792633,95.403053 25.857901,98.078323 22.086479,97.849052 
	C18.287498,97.618095 17.909275,94.819954 17.957880,91.737022 
	C18.041525,86.431511 17.981026,81.123726 17.981026,74.130165 
	C21.101957,75.713089 23.359459,76.858086 25.829508,78.334427 
z"/>
<path fill="#F3F3F3" opacity="1.000000" stroke="none" 
	d="
M153.222794,80.959122 
	C153.782913,84.636002 155.993027,89.054626 151.312363,90.294365 
	C146.743637,91.504448 145.479721,86.877632 144.250565,83.508705 
	C143.523560,81.516045 143.059021,79.255928 143.212387,77.170197 
	C143.327087,75.610451 144.438293,73.039314 145.426514,72.877518 
	C146.988220,72.621826 149.291275,73.577034 150.414093,74.809303 
	C151.774475,76.302299 152.233398,78.616661 153.222794,80.959122 
z"/>
<path fill="#ECECEC" opacity="1.000000" stroke="none" 
	d="
M152.751984,106.692947 
	C152.463181,108.316216 152.292328,109.813324 151.477722,110.751495 
	C151.110123,111.174866 148.649048,110.704422 148.529663,110.263062 
	C147.942505,108.092140 147.822525,105.794846 147.537598,103.542168 
	C148.002686,103.336067 148.467758,103.129974 148.932846,102.923874 
	C150.157700,104.062202 151.382553,105.200523 152.751984,106.692947 
z"/>
<path fill="#F2F2F2" opacity="1.000000" stroke="none" 
	d="
M116.128525,94.846313 
	C114.057884,95.010277 111.262062,95.498665 110.726486,94.615837 
	C109.683296,92.896309 108.985855,89.902550 109.831833,88.363777 
	C110.955292,86.320267 113.691887,85.163628 115.735374,83.625923 
	C116.256882,83.960365 116.778381,84.294800 117.299889,84.629242 
	C117.008186,87.936516 116.716484,91.243797 116.128525,94.846313 
z"/>
<path fill="#F1F1F1" opacity="1.000000" stroke="none" 
	d="
M279.189606,95.946602 
	C275.131622,94.023079 275.070801,90.519669 276.538269,87.829910 
	C277.597473,85.888489 280.657715,85.038818 283.430054,84.356804 
	C282.611115,88.715691 287.123871,94.433807 279.189606,95.946602 
z"/>
<path fill="#F0F0F0" opacity="1.000000" stroke="none" 
	d="
M54.187431,94.690475 
	C51.559940,87.520882 53.548954,84.618469 60.496853,84.800034 
	C61.837696,94.716095 60.421722,97.101707 54.187431,94.690475 
z"/>
<path fill="#F6F6F6" opacity="1.000000" stroke="none" 
	d="
M191.662415,82.611542 
	C191.929718,86.606384 192.661469,90.327057 192.036774,93.804008 
	C191.217331,98.364723 187.284760,99.212883 183.829330,96.071007 
	C180.199554,92.770607 177.545654,80.916313 179.401138,76.291466 
	C180.706573,73.037621 184.041321,71.846939 186.635376,74.379501 
	C188.777451,76.470802 189.931519,79.574081 191.662415,82.611542 
z"/>
</svg>