<svg width="27" height="27" viewBox="0 0 27 27" fill="none" xmlns="http://www.w3.org/2000/svg">
<path d="M13.2389 13.8163C12.0473 13.8163 11.0271 13.392 10.1785 12.5434C9.3299 11.6948 8.9056 10.6747 8.9056 9.48301C8.9056 8.29134 9.3299 7.2712 10.1785 6.42259C11.0271 5.57398 12.0473 5.14967 13.2389 5.14967C14.4306 5.14967 15.4507 5.57398 16.2993 6.42259C17.148 7.2712 17.5723 8.29134 17.5723 9.48301C17.5723 10.6747 17.148 11.6948 16.2993 12.5434C15.4507 13.392 14.4306 13.8163 13.2389 13.8163ZM4.57227 22.483V19.4497C4.57227 18.8358 4.73043 18.2717 5.04677 17.7575C5.3631 17.2433 5.78271 16.8504 6.3056 16.5788C7.42504 16.0191 8.56254 15.5995 9.7181 15.32C10.8737 15.0405 12.0473 14.9004 13.2389 14.8997C14.4306 14.8989 15.6042 15.0391 16.7598 15.32C17.9153 15.6009 19.0528 16.0206 20.1723 16.5788C20.6959 16.8497 21.1158 17.2426 21.4322 17.7575C21.7485 18.2724 21.9063 18.8365 21.9056 19.4497V22.483H4.57227ZM6.73893 20.3163H19.7389V19.4497C19.7389 19.2511 19.6895 19.0705 19.5905 18.908C19.4916 18.7455 19.3605 18.6191 19.1973 18.5288C18.2223 18.0413 17.2382 17.6759 16.2452 17.4325C15.2521 17.1891 14.25 17.0671 13.2389 17.0663C12.2278 17.0656 11.2257 17.1877 10.2327 17.4325C9.23963 17.6773 8.2556 18.0428 7.2806 18.5288C7.1181 18.6191 6.98702 18.7455 6.88735 18.908C6.78768 19.0705 6.73821 19.2511 6.73893 19.4497V20.3163ZM13.2389 11.6497C13.8348 11.6497 14.345 11.4377 14.7697 11.0138C15.1943 10.5898 15.4063 10.0796 15.4056 9.48301C15.4049 8.88645 15.1929 8.37656 14.7697 7.95334C14.3465 7.53012 13.8362 7.31778 13.2389 7.31634C12.6417 7.31489 12.1318 7.52723 11.7093 7.95334C11.2868 8.37945 11.0744 8.88934 11.0723 9.48301C11.0701 10.0767 11.2824 10.5869 11.7093 11.0138C12.1361 11.4406 12.646 11.6526 13.2389 11.6497Z" fill="white"/>
</svg>
