<svg version="1.1" id="Layer_1" xmlns="http://www.w3.org/2000/svg" xmlns:xlink="http://www.w3.org/1999/xlink" x="0px" y="0px"
	 width="100%" viewBox="0 0 950 633" enable-background="new 0 0 950 633" xml:space="preserve">
<path fill="#FFFFFF" opacity="1.000000" stroke="none" 
	d="
M899.000000,634.000000 
	C599.333313,634.000000 300.166656,634.000000 1.000000,634.000000 
	C1.000000,423.000000 1.000000,212.000000 1.000000,1.000000 
	C317.666656,1.000000 634.333313,1.000000 951.000000,1.000000 
	C951.000000,212.000000 951.000000,423.000000 951.000000,634.000000 
	C933.833313,634.000000 916.666687,634.000000 899.000000,634.000000 
M517.847534,340.763367 
	C517.578674,343.698853 518.674438,344.961243 521.838867,344.697083 
	C525.313538,344.407104 528.831116,344.630554 532.329956,344.630524 
	C540.879700,344.630463 540.792786,344.594269 544.024902,336.843292 
	C548.323853,326.533905 552.774902,316.287933 557.160583,306.014709 
	C557.441101,306.077423 557.721680,306.140167 558.002197,306.202911 
	C558.901123,318.980652 559.799988,331.758362 560.688049,344.382568 
	C567.570679,344.382568 573.524658,344.382568 579.820435,344.382568 
	C578.138062,325.281311 576.480164,306.457123 574.780151,287.155121 
	C567.829285,287.155121 561.188660,287.427673 554.585632,287.048248 
	C550.895081,286.836151 549.259216,288.334198 547.998535,291.445160 
	C544.506714,300.061920 540.847473,308.611328 537.203125,317.165497 
	C535.721924,320.642334 534.107910,324.062622 532.554321,327.508636 
	C532.152100,327.400330 531.749878,327.292023 531.347656,327.183716 
	C529.744995,313.919983 528.142334,300.656281 526.529968,287.312317 
	C518.193604,287.312317 510.389801,287.312317 502.287964,287.312317 
	C495.349792,306.143311 488.377258,325.067566 481.248413,344.416107 
	C487.891418,344.416107 493.803864,344.416107 499.865906,344.416107 
	C504.226166,331.576385 508.558685,318.818359 512.891174,306.060333 
	C513.260071,306.137878 513.628967,306.215424 513.997803,306.292969 
	C515.244995,317.494385 516.492188,328.695831 517.847534,340.763367 
M677.068970,315.832581 
	C677.579102,312.458160 678.089172,309.083771 678.751221,304.704132 
	C679.772766,306.496490 680.336243,307.281433 680.697693,308.150482 
	C685.160645,318.881195 689.531433,329.651001 694.101990,340.335449 
	C694.797180,341.960541 696.331421,344.380066 697.565918,344.434662 
	C705.828613,344.800323 714.115173,344.624664 722.510620,344.624664 
	C725.390869,325.231384 728.183899,306.425842 731.018311,287.341187 
	C725.039551,287.341187 719.748840,287.341187 713.856812,287.341187 
	C711.803894,300.588837 709.736511,313.929596 707.487122,328.444489 
	C706.442383,326.509857 705.878723,325.627167 705.466736,324.678619 
	C700.505676,313.254669 695.613586,301.800323 690.557800,290.418640 
	C689.985168,289.129730 688.552612,287.339081 687.467773,287.302673 
	C679.536072,287.036560 671.591309,287.159271 663.564026,287.159271 
	C660.663940,306.557037 657.848694,325.387299 655.000854,344.435669 
	C661.170532,344.435669 666.936157,344.435669 673.128784,344.435669 
	C674.431152,335.105011 675.715393,325.904205 677.068970,315.832581 
M269.291809,297.853546 
	C276.058594,298.155396 276.058594,298.155396 276.251251,306.854187 
	C281.863129,306.854187 287.474579,306.854187 293.326385,306.854187 
	C293.973297,303.819489 294.664642,300.932831 295.195496,298.016998 
	C296.586121,290.378571 293.952637,287.010284 286.066071,286.920319 
	C273.574554,286.777832 261.077881,286.784393 248.587173,286.975220 
	C240.583923,287.097473 237.612045,289.790710 235.885071,297.576935 
	C233.442917,308.587646 234.230255,311.056549 241.998734,315.060638 
	C249.677979,319.018707 257.521637,322.661652 265.146881,326.717804 
	C266.966156,327.685577 268.203644,329.747101 269.708710,331.305542 
	C267.595154,332.178680 265.542603,333.538574 263.353973,333.812958 
	C259.908844,334.244873 256.371307,334.002075 252.874451,333.945618 
	C245.220154,333.822021 245.088455,333.623322 246.555878,325.908905 
	C246.596497,325.695435 246.318939,325.421448 246.146255,325.092957 
	C240.746262,325.092957 235.307724,325.092957 229.629288,325.092957 
	C229.078629,328.002350 228.422134,330.735474 228.063828,333.507172 
	C227.130997,340.723511 229.813614,344.543915 237.167023,344.757660 
	C250.646545,345.149475 264.154999,345.159363 277.633240,344.742584 
	C285.199402,344.508606 288.014465,340.354340 289.891846,329.166656 
	C291.034393,322.357788 290.378021,321.384705 282.734344,317.660980 
	C273.771576,313.294647 264.806244,308.927704 255.962357,304.329559 
	C254.625092,303.634308 253.940231,301.684235 252.953613,300.314575 
	C254.423172,299.535583 255.839005,298.240570 257.373016,298.080841 
	C261.001190,297.703033 264.685486,297.864838 269.291809,297.853546 
M416.213074,326.748535 
	C415.865753,336.198212 418.784698,341.062073 427.882629,343.189545 
	C441.165649,346.295685 454.628906,346.343933 467.751984,342.047577 
	C473.708038,340.097626 478.451080,336.010620 480.003418,329.841797 
	C482.224060,321.017151 484.066986,312.030518 485.127838,303.002228 
	C485.965485,295.873566 482.413849,291.298065 475.576752,289.073425 
	C464.704987,285.535919 453.455933,286.248383 442.433990,287.638092 
	C427.778381,289.485901 421.590851,296.127869 419.076050,310.659851 
	C418.197113,315.738647 417.265747,320.808380 416.213074,326.748535 
M600.274231,290.683075 
	C593.851013,294.145081 590.032471,299.460541 588.732056,306.653687 
	C587.578674,313.032959 586.109802,319.360382 585.124573,325.763672 
	C583.714478,334.928040 587.163574,340.747650 596.098389,343.072174 
	C608.533691,346.307312 621.145325,345.964050 633.624451,342.965546 
	C641.500305,341.073090 647.248169,336.289948 649.227539,328.394348 
	C651.320923,320.043701 652.906616,311.497437 653.822571,302.941132 
	C654.579590,295.869110 651.082642,290.877869 644.156006,289.121094 
	C629.722290,285.460327 615.212402,285.447418 600.274231,290.683075 
M357.225922,341.722626 
	C353.836792,324.611969 350.369293,307.516144 347.134552,290.376343 
	C346.585114,287.465210 345.182129,287.069183 342.707062,287.114777 
	C336.215515,287.234375 329.715576,287.301086 323.228790,287.088562 
	C320.373291,286.994995 318.827179,287.845032 317.547699,290.496338 
	C314.012115,297.822876 310.096222,304.965210 306.371063,312.201172 
	C300.934296,322.761841 295.532745,333.340668 289.748199,344.629944 
	C294.471466,344.629944 298.460754,344.245361 302.344147,344.722565 
	C307.788879,345.391724 311.097473,343.778046 312.589142,338.219208 
	C313.027863,336.584167 315.083862,334.301392 316.526550,334.203674 
	C322.968811,333.767334 329.457367,334.014008 335.841309,334.014008 
	C336.684113,337.751312 337.443756,341.119843 338.234924,344.628326 
	C343.875305,344.628326 349.199768,344.733582 354.512665,344.533142 
	C355.490814,344.496246 356.422211,343.220917 357.225922,341.722626 
M389.499481,344.634033 
	C396.242249,344.634033 402.985016,344.634033 409.730835,344.634033 
	C410.510254,339.696899 411.177887,335.468018 411.928375,330.714111 
	C402.545837,330.714111 393.496552,330.714111 383.865967,330.714111 
	C386.058258,315.878815 388.169373,301.592621 390.275024,287.343628 
	C383.488220,287.343628 377.522461,287.343628 371.234833,287.343628 
	C368.402069,306.398865 365.590637,325.310394 362.717957,344.634033 
	C371.903168,344.634033 380.201385,344.634033 389.499481,344.634033 
z"/>
<path fill="#060606" opacity="1.000000" stroke="none" 
	d="
M517.793457,340.330322 
	C516.492188,328.695831 515.244995,317.494385 513.997803,306.292969 
	C513.628967,306.215424 513.260071,306.137878 512.891174,306.060333 
	C508.558685,318.818359 504.226166,331.576385 499.865906,344.416107 
	C493.803864,344.416107 487.891418,344.416107 481.248413,344.416107 
	C488.377258,325.067566 495.349792,306.143311 502.287964,287.312317 
	C510.389801,287.312317 518.193604,287.312317 526.529968,287.312317 
	C528.142334,300.656281 529.744995,313.919983 531.347656,327.183716 
	C531.749878,327.292023 532.152100,327.400330 532.554321,327.508636 
	C534.107910,324.062622 535.721924,320.642334 537.203125,317.165497 
	C540.847473,308.611328 544.506714,300.061920 547.998535,291.445160 
	C549.259216,288.334198 550.895081,286.836151 554.585632,287.048248 
	C561.188660,287.427673 567.829285,287.155121 574.780151,287.155121 
	C576.480164,306.457123 578.138062,325.281311 579.820435,344.382568 
	C573.524658,344.382568 567.570679,344.382568 560.688049,344.382568 
	C559.799988,331.758362 558.901123,318.980652 558.002197,306.202911 
	C557.721680,306.140167 557.441101,306.077423 557.160583,306.014709 
	C552.774902,316.287933 548.323853,326.533905 544.024902,336.843292 
	C540.792786,344.594269 540.879700,344.630463 532.329956,344.630524 
	C528.831116,344.630554 525.313538,344.407104 521.838867,344.697083 
	C518.674438,344.961243 517.578674,343.698853 517.793457,340.330322 
z"/>
<path fill="#060606" opacity="1.000000" stroke="none" 
	d="
M677.034302,316.268005 
	C675.715393,325.904205 674.431152,335.105011 673.128784,344.435669 
	C666.936157,344.435669 661.170532,344.435669 655.000854,344.435669 
	C657.848694,325.387299 660.663940,306.557037 663.564026,287.159271 
	C671.591309,287.159271 679.536072,287.036560 687.467773,287.302673 
	C688.552612,287.339081 689.985168,289.129730 690.557800,290.418640 
	C695.613586,301.800323 700.505676,313.254669 705.466736,324.678619 
	C705.878723,325.627167 706.442383,326.509857 707.487122,328.444489 
	C709.736511,313.929596 711.803894,300.588837 713.856812,287.341187 
	C719.748840,287.341187 725.039551,287.341187 731.018311,287.341187 
	C728.183899,306.425842 725.390869,325.231384 722.510620,344.624664 
	C714.115173,344.624664 705.828613,344.800323 697.565918,344.434662 
	C696.331421,344.380066 694.797180,341.960541 694.101990,340.335449 
	C689.531433,329.651001 685.160645,318.881195 680.697693,308.150482 
	C680.336243,307.281433 679.772766,306.496490 678.751221,304.704132 
	C678.089172,309.083771 677.579102,312.458160 677.034302,316.268005 
z"/>
<path fill="#040404" opacity="1.000000" stroke="none" 
	d="
M268.819458,297.830994 
	C264.685486,297.864838 261.001190,297.703033 257.373016,298.080841 
	C255.839005,298.240570 254.423172,299.535583 252.953613,300.314575 
	C253.940231,301.684235 254.625092,303.634308 255.962357,304.329559 
	C264.806244,308.927704 273.771576,313.294647 282.734344,317.660980 
	C290.378021,321.384705 291.034393,322.357788 289.891846,329.166656 
	C288.014465,340.354340 285.199402,344.508606 277.633240,344.742584 
	C264.154999,345.159363 250.646545,345.149475 237.167023,344.757660 
	C229.813614,344.543915 227.130997,340.723511 228.063828,333.507172 
	C228.422134,330.735474 229.078629,328.002350 229.629288,325.092957 
	C235.307724,325.092957 240.746262,325.092957 246.146255,325.092957 
	C246.318939,325.421448 246.596497,325.695435 246.555878,325.908905 
	C245.088455,333.623322 245.220154,333.822021 252.874451,333.945618 
	C256.371307,334.002075 259.908844,334.244873 263.353973,333.812958 
	C265.542603,333.538574 267.595154,332.178680 269.708710,331.305542 
	C268.203644,329.747101 266.966156,327.685577 265.146881,326.717804 
	C257.521637,322.661652 249.677979,319.018707 241.998734,315.060638 
	C234.230255,311.056549 233.442917,308.587646 235.885071,297.576935 
	C237.612045,289.790710 240.583923,287.097473 248.587173,286.975220 
	C261.077881,286.784393 273.574554,286.777832 286.066071,286.920319 
	C293.952637,287.010284 296.586121,290.378571 295.195496,298.016998 
	C294.664642,300.932831 293.973297,303.819489 293.326385,306.854187 
	C287.474579,306.854187 281.863129,306.854187 276.251251,306.854187 
	C276.058594,298.155396 276.058594,298.155396 268.819458,297.830994 
z"/>
<path fill="#050505" opacity="1.000000" stroke="none" 
	d="
M416.285706,326.315369 
	C417.265747,320.808380 418.197113,315.738647 419.076050,310.659851 
	C421.590851,296.127869 427.778381,289.485901 442.433990,287.638092 
	C453.455933,286.248383 464.704987,285.535919 475.576752,289.073425 
	C482.413849,291.298065 485.965485,295.873566 485.127838,303.002228 
	C484.066986,312.030518 482.224060,321.017151 480.003418,329.841797 
	C478.451080,336.010620 473.708038,340.097626 467.751984,342.047577 
	C454.628906,346.343933 441.165649,346.295685 427.882629,343.189545 
	C418.784698,341.062073 415.865753,336.198212 416.285706,326.315369 
M437.950409,331.890045 
	C443.382233,332.138672 448.825073,332.711609 454.242279,332.528229 
	C458.220856,332.393524 461.015717,329.862183 461.909393,325.835724 
	C463.308472,319.532104 464.687225,313.216370 465.780609,306.855255 
	C466.491364,302.720642 464.573792,299.973053 460.217712,299.774841 
	C455.763275,299.572174 451.275696,299.575531 446.829224,299.878723 
	C443.014343,300.138824 440.227081,302.360992 439.343384,306.129242 
	C437.793762,312.737305 436.370514,319.390961 435.344879,326.094482 
	C435.092804,327.742035 436.579132,329.655609 437.950409,331.890045 
z"/>
<path fill="#050505" opacity="1.000000" stroke="none" 
	d="
M600.599792,290.494019 
	C615.212402,285.447418 629.722290,285.460327 644.156006,289.121094 
	C651.082642,290.877869 654.579590,295.869110 653.822571,302.941132 
	C652.906616,311.497437 651.320923,320.043701 649.227539,328.394348 
	C647.248169,336.289948 641.500305,341.073090 633.624451,342.965546 
	C621.145325,345.964050 608.533691,346.307312 596.098389,343.072174 
	C587.163574,340.747650 583.714478,334.928040 585.124573,325.763672 
	C586.109802,319.360382 587.578674,313.032959 588.732056,306.653687 
	C590.032471,299.460541 593.851013,294.145081 600.599792,290.494019 
M608.657837,304.376312 
	C607.128418,311.482605 605.454224,318.561951 604.124084,325.705353 
	C603.333435,329.951447 605.562195,332.460022 609.800293,332.698212 
	C613.932678,332.930481 618.099060,332.918732 622.231873,332.684570 
	C626.703003,332.431213 629.728394,329.862152 630.729675,325.555573 
	C632.192078,319.265411 633.535767,312.918152 634.331238,306.520813 
	C634.563049,304.656860 633.304077,301.764008 631.778503,300.681641 
	C627.023560,297.307983 613.333923,299.411438 608.657837,304.376312 
z"/>
<path fill="#060606" opacity="1.000000" stroke="none" 
	d="
M357.300537,342.119934 
	C356.422211,343.220917 355.490814,344.496246 354.512665,344.533142 
	C349.199768,344.733582 343.875305,344.628326 338.234924,344.628326 
	C337.443756,341.119843 336.684113,337.751312 335.841309,334.014008 
	C329.457367,334.014008 322.968811,333.767334 316.526550,334.203674 
	C315.083862,334.301392 313.027863,336.584167 312.589142,338.219208 
	C311.097473,343.778046 307.788879,345.391724 302.344147,344.722565 
	C298.460754,344.245361 294.471466,344.629944 289.748199,344.629944 
	C295.532745,333.340668 300.934296,322.761841 306.371063,312.201172 
	C310.096222,304.965210 314.012115,297.822876 317.547699,290.496338 
	C318.827179,287.845032 320.373291,286.994995 323.228790,287.088562 
	C329.715576,287.301086 336.215515,287.234375 342.707062,287.114777 
	C345.182129,287.069183 346.585114,287.465210 347.134552,290.376343 
	C350.369293,307.516144 353.836792,324.611969 357.300537,342.119934 
M326.086151,309.616791 
	C323.919983,313.929199 321.753784,318.241638 319.418121,322.891479 
	C325.197357,322.891479 329.973175,322.891479 335.009369,322.891479 
	C333.869141,315.434265 332.767700,308.230499 331.666229,301.026733 
	C331.310883,300.970428 330.955536,300.914093 330.600189,300.857788 
	C329.198853,303.550354 327.797516,306.242889 326.086151,309.616791 
z"/>
<path fill="#070707" opacity="1.000000" stroke="none" 
	d="
M388.999512,344.634033 
	C380.201385,344.634033 371.903168,344.634033 362.717957,344.634033 
	C365.590637,325.310394 368.402069,306.398865 371.234833,287.343628 
	C377.522461,287.343628 383.488220,287.343628 390.275024,287.343628 
	C388.169373,301.592621 386.058258,315.878815 383.865967,330.714111 
	C393.496552,330.714111 402.545837,330.714111 411.928375,330.714111 
	C411.177887,335.468018 410.510254,339.696899 409.730835,344.634033 
	C402.985016,344.634033 396.242249,344.634033 388.999512,344.634033 
z"/>
<path fill="#F9F9F9" opacity="1.000000" stroke="none" 
	d="
M437.608337,331.668457 
	C436.579132,329.655609 435.092804,327.742035 435.344879,326.094482 
	C436.370514,319.390961 437.793762,312.737305 439.343384,306.129242 
	C440.227081,302.360992 443.014343,300.138824 446.829224,299.878723 
	C451.275696,299.575531 455.763275,299.572174 460.217712,299.774841 
	C464.573792,299.973053 466.491364,302.720642 465.780609,306.855255 
	C464.687225,313.216370 463.308472,319.532104 461.909393,325.835724 
	C461.015717,329.862183 458.220856,332.393524 454.242279,332.528229 
	C448.825073,332.711609 443.382233,332.138672 437.608337,331.668457 
z"/>
<path fill="#F9F9F9" opacity="1.000000" stroke="none" 
	d="
M608.829590,304.027161 
	C613.333923,299.411438 627.023560,297.307983 631.778503,300.681641 
	C633.304077,301.764008 634.563049,304.656860 634.331238,306.520813 
	C633.535767,312.918152 632.192078,319.265411 630.729675,325.555573 
	C629.728394,329.862152 626.703003,332.431213 622.231873,332.684570 
	C618.099060,332.918732 613.932678,332.930481 609.800293,332.698212 
	C605.562195,332.460022 603.333435,329.951447 604.124084,325.705353 
	C605.454224,318.561951 607.128418,311.482605 608.829590,304.027161 
z"/>
<path fill="#F6F6F6" opacity="1.000000" stroke="none" 
	d="
M326.241150,309.276123 
	C327.797516,306.242889 329.198853,303.550354 330.600189,300.857788 
	C330.955536,300.914093 331.310883,300.970428 331.666229,301.026733 
	C332.767700,308.230499 333.869141,315.434265 335.009369,322.891479 
	C329.973175,322.891479 325.197357,322.891479 319.418121,322.891479 
	C321.753784,318.241638 323.919983,313.929199 326.241150,309.276123 
z"/>
</svg>