<svg width="189" height="23" viewBox="0 0 189 23" fill="none" xmlns="http://www.w3.org/2000/svg">
<path d="M15.377 4.35589C13.824 4.36861 12.44 4.30782 11.0771 4.44975C10.5008 4.50975 9.96896 4.99623 9.41692 5.28886C9.78755 5.80338 10.0448 6.53593 10.5472 6.7971C13.8694 8.52441 17.2373 10.1649 20.6042 11.8051C23.4755 13.2039 23.7221 13.5695 23.2929 16.1272C22.5877 20.3299 21.5302 21.8905 18.6879 21.9784C13.6248 22.135 8.55026 22.1313 3.48663 21.9841C0.724295 21.9038 -0.283439 20.4686 0.0669818 17.7578C0.201581 16.7166 0.448196 15.6899 0.655053 14.5969C2.78818 14.5969 4.83118 14.5969 6.85971 14.5969C6.92458 14.7203 7.02884 14.8233 7.01359 14.9035C6.46234 17.8014 6.51182 17.8761 9.38718 17.9225C10.7008 17.9437 12.0297 18.0349 13.3239 17.8726C14.146 17.7696 14.9171 17.2587 15.711 16.9307C15.1456 16.3453 14.6808 15.5709 13.9974 15.2073C11.1329 13.6836 8.18641 12.3151 5.30168 10.8283C2.38342 9.32412 2.08766 8.39667 3.00506 4.26045C3.6538 1.33553 4.7702 0.323806 7.77665 0.277881C12.4688 0.206196 17.1632 0.203732 21.8557 0.257257C24.8183 0.291053 25.8076 1.55636 25.2852 4.42577C25.0858 5.52111 24.8261 6.60549 24.5831 7.74549C22.3848 7.74549 20.2769 7.74549 18.1688 7.74549C18.0964 4.47775 18.0964 4.47775 15.377 4.35589Z" fill="white"/>
<path d="M51.1703 20.9798C50.8403 21.3933 50.4905 21.8724 50.123 21.8863C48.1272 21.9616 46.127 21.922 44.0082 21.922C43.711 20.6041 43.4257 19.3387 43.109 17.9347C40.7109 17.9347 38.2734 17.8421 35.8534 18.006C35.3114 18.0427 34.5391 18.9002 34.3743 19.5144C33.8139 21.6026 32.5711 22.2088 30.5257 21.9574C29.0669 21.7782 27.5683 21.9226 25.794 21.9226C27.967 17.6818 29.9961 13.7078 32.0384 9.74066C33.4378 7.02245 34.9088 4.3394 36.237 1.58716C36.7176 0.59119 37.2984 0.271871 38.3711 0.307019C40.8079 0.386855 43.2496 0.361794 45.6882 0.316867C46.618 0.299739 47.145 0.448508 47.3514 1.54209C48.5665 7.98071 49.8691 14.4028 51.1703 20.9798ZM39.4445 8.76983C38.6308 10.3898 37.817 12.0098 36.9396 13.7565C39.1106 13.7565 40.9047 13.7565 42.7965 13.7565C42.3682 10.9552 41.9544 8.24906 41.5407 5.54294C41.4072 5.52179 41.2737 5.50063 41.1402 5.47948C40.6138 6.49095 40.0874 7.50241 39.4445 8.76983Z" fill="white"/>
<path d="M61.4187 21.9183C58.1136 21.9183 54.9964 21.9183 51.5459 21.9183C52.625 14.6593 53.6812 7.55514 54.7453 0.396973C57.1073 0.396973 59.3483 0.396973 61.8978 0.396973C61.1068 5.74966 60.3138 11.1163 59.4902 16.6893C63.108 16.6893 66.5074 16.6893 70.032 16.6893C69.75 18.4751 69.4992 20.0637 69.2065 21.9183C66.6724 21.9183 64.1394 21.9183 61.4187 21.9183Z" fill="white"/>
<path d="M70.4223 15.0501C70.7904 12.9814 71.1403 11.0769 71.4705 9.16904C72.4152 3.71005 74.7395 1.21497 80.245 0.520836C84.3854 -0.00121277 88.6112 -0.268852 92.6952 1.06002C95.2636 1.89572 96.5977 3.61452 96.2831 6.29243C95.8846 9.68394 95.1923 13.0598 94.3581 16.3748C93.7749 18.6922 91.9932 20.2274 89.7558 20.96C84.826 22.5739 79.7685 22.5558 74.7787 21.3889C71.361 20.5897 70.2645 18.7626 70.4223 15.0501ZM78.5607 17.1442C80.6012 17.2376 82.6458 17.4529 84.6808 17.384C86.1754 17.3334 87.2253 16.3825 87.561 14.8699C88.0866 12.5019 88.6045 10.1294 89.0152 7.73983C89.2822 6.18665 88.5619 5.15451 86.9255 5.08005C85.2522 5.00392 83.5664 5.00518 81.8961 5.11907C80.463 5.21678 79.4159 6.05155 79.084 7.4671C78.5019 9.94945 77.9672 12.4489 77.5819 14.9671C77.4872 15.586 78.0456 16.3049 78.5607 17.1442Z" fill="white"/>
<path d="M110.432 20.3426C109.944 15.9721 109.475 11.7642 109.007 7.55635C108.868 7.52722 108.729 7.49809 108.591 7.46896C106.963 12.2616 105.336 17.0542 103.698 21.8774C101.421 21.8774 99.1996 21.8774 96.7041 21.8774C99.3821 14.6091 102.001 7.50013 104.608 0.426198C107.651 0.426198 110.583 0.426198 113.714 0.426198C114.32 5.43891 114.922 10.4215 115.524 15.404C115.675 15.4447 115.826 15.4854 115.977 15.5261C116.561 14.2316 117.167 12.9467 117.724 11.6407C119.093 8.42725 120.467 5.21563 121.779 1.97872C122.253 0.810072 122.867 0.247325 124.253 0.327C126.734 0.469532 129.229 0.367147 131.84 0.367147C132.478 7.61801 133.101 14.6894 133.733 21.8648C131.368 21.8648 129.131 21.8648 126.546 21.8648C126.212 17.1225 125.875 12.3225 125.537 7.52252C125.432 7.49895 125.326 7.47538 125.221 7.45182C123.573 11.311 121.901 15.1599 120.286 19.0327C119.072 21.9444 119.105 21.958 115.893 21.958C114.579 21.958 113.257 21.8741 111.952 21.983C110.763 22.0822 110.352 21.608 110.432 20.3426Z" fill="white"/>
<path d="M140.037 1.59844C145.526 -0.297336 150.977 -0.292486 156.399 1.08269C159.001 1.74263 160.314 3.61761 160.03 6.27424C159.686 9.48845 159.09 12.6989 158.304 15.8358C157.56 18.8018 155.401 20.5986 152.442 21.3096C147.755 22.436 143.017 22.5649 138.346 21.3496C134.989 20.4764 133.694 18.2902 134.223 14.8476C134.593 12.4422 135.145 10.0653 135.578 7.66888C136.067 4.96674 137.501 2.96997 140.037 1.59844ZM143.064 6.81337C142.489 9.48288 141.86 12.1423 141.361 14.8257C141.064 16.4208 141.901 17.3631 143.493 17.4526C145.045 17.5398 146.61 17.5354 148.163 17.4475C149.842 17.3523 150.979 16.3872 151.355 14.7694C151.904 12.4065 152.409 10.0221 152.708 7.61896C152.795 6.91876 152.322 5.83205 151.749 5.42545C149.963 4.15813 144.82 4.9483 143.064 6.81337Z" fill="white"/>
<path d="M168.721 11.2962C168.225 14.9161 167.743 18.3724 167.254 21.8775C164.927 21.8775 162.761 21.8775 160.444 21.8775C161.514 14.7219 162.571 7.64828 163.661 0.361441C166.676 0.361441 169.661 0.315344 172.64 0.41531C173.048 0.428987 173.586 1.10165 173.801 1.58583C175.7 5.8614 177.538 10.1643 179.401 14.4557C179.556 14.812 179.768 15.1436 180.16 15.8704C181.005 10.4178 181.782 5.4063 182.553 0.429778C184.767 0.429778 186.754 0.429778 189 0.429778C187.935 7.599 186.886 14.6634 185.804 21.9485C182.65 21.9485 179.537 22.0145 176.434 21.8771C175.97 21.8566 175.393 20.9477 175.132 20.3373C173.415 16.3236 171.773 12.2779 170.097 8.24686C169.961 7.9204 169.749 7.62554 169.366 6.95223C169.117 8.59746 168.925 9.86506 168.721 11.2962Z" fill="white"/>
</svg>
