<svg width="70" height="70" viewBox="0 0 70 70" fill="none" xmlns="http://www.w3.org/2000/svg">
<path d="M30.4792 45.2084C31.6458 46.3751 33.1528 46.9467 35 46.9234C36.8472 46.9001 38.2083 46.2312 39.0833 44.9167L55.4167 20.4167L30.9167 36.7501C29.6042 37.6251 28.912 38.9619 28.84 40.7605C28.7681 42.5591 29.3145 44.0417 30.4792 45.2084ZM35 11.6667C37.8681 11.6667 40.6272 12.0673 43.2775 12.8684C45.9278 13.6695 48.4186 14.8731 50.75 16.4792L45.2083 19.9792C43.6042 19.1529 41.9397 18.5336 40.215 18.1213C38.4903 17.7091 36.752 17.502 35 17.5001C28.5347 17.5001 23.029 19.7731 18.4829 24.3192C13.9368 28.8654 11.6647 34.3701 11.6667 40.8334C11.6667 42.8751 11.9467 44.8924 12.5067 46.8855C13.0667 48.8786 13.8561 50.7501 14.875 52.5001H55.125C56.2431 50.6529 57.0578 48.7327 57.5692 46.7397C58.0806 44.7466 58.3353 42.6806 58.3333 40.5417C58.3333 38.7917 58.1263 37.0904 57.7121 35.4376C57.2979 33.7848 56.6786 32.1806 55.8542 30.6251L59.3542 25.0834C60.8125 27.3681 61.9675 29.7987 62.8192 32.3751C63.6708 34.9515 64.12 37.6251 64.1667 40.3959C64.2133 43.1667 63.8974 45.8161 63.2188 48.3438C62.5401 50.8716 61.5436 53.2779 60.2292 55.5626C59.6945 56.4376 58.9653 57.1181 58.0417 57.6042C57.1181 58.0904 56.1458 58.3334 55.125 58.3334H14.875C13.8542 58.3334 12.882 58.0904 11.9583 57.6042C11.0347 57.1181 10.3056 56.4376 9.77084 55.5626C8.50695 53.3751 7.53473 51.0544 6.85418 48.6005C6.17362 46.1466 5.83334 43.5576 5.83334 40.8334C5.83334 36.7987 6.59945 33.0197 8.13168 29.4963C9.6639 25.973 11.7542 22.8862 14.4025 20.2359C17.0508 17.5856 20.1493 15.4954 23.6979 13.9651C27.2465 12.4348 31.0139 11.6687 35 11.6667Z" fill="black"/>
</svg>
