<svg width="70" height="70" viewBox="0 0 70 70" fill="none" xmlns="http://www.w3.org/2000/svg">
<path d="M35 64.1666C38.3237 64.1672 41.5654 63.1354 44.2772 61.2139C46.9891 59.2923 49.0371 56.5759 50.1384 53.4401C51.2396 50.3042 51.3396 46.9037 50.4246 43.7085C49.5096 40.5133 47.6247 37.6813 45.0305 35.6037C44.6419 35.309 44.3249 34.9304 44.1032 34.496C43.8815 34.0617 43.7608 33.5829 43.75 33.0953V14.5833C43.75 12.2626 42.8282 10.037 41.1872 8.39607C39.5463 6.75512 37.3207 5.83325 35 5.83325C32.6794 5.83325 30.4538 6.75512 28.8129 8.39607C27.1719 10.037 26.25 12.2626 26.25 14.5833V33.0982C26.25 34.0841 25.7396 34.9883 24.9696 35.6066C22.3766 37.6845 20.4927 40.5164 19.5784 43.711C18.6641 46.9056 18.7644 50.3054 19.8655 53.4405C20.9666 56.5757 23.0141 59.2916 25.7252 61.213C28.4363 63.1343 31.6771 64.1664 35 64.1666Z" stroke="black" stroke-width="5"/>
<path d="M42.2917 48.1249C42.2917 50.0588 41.5234 51.9135 40.156 53.2809C38.7885 54.6484 36.9339 55.4166 35 55.4166C33.0661 55.4166 31.2115 54.6484 29.844 53.2809C28.4766 51.9135 27.7083 50.0588 27.7083 48.1249C27.7083 46.191 28.4766 44.3364 29.844 42.9689C31.2115 41.6015 33.0661 40.8333 35 40.8333C36.9339 40.8333 38.7885 41.6015 40.156 42.9689C41.5234 44.3364 42.2917 46.191 42.2917 48.1249Z" stroke="black" stroke-width="5"/>
<path d="M35 40.8333V14.5833" stroke="black" stroke-width="5" stroke-linecap="round"/>
</svg>
