<svg version="1.1" id="Layer_1" xmlns="http://www.w3.org/2000/svg" xmlns:xlink="http://www.w3.org/1999/xlink" x="0px" y="0px"
	 width="100%" viewBox="0 0 600 600" enable-background="new 0 0 600 600" xml:space="preserve">
<path fill="#FFFFFF" opacity="1.000000" stroke="none" 
	d="
M327.000000,601.000000 
	C218.000000,601.000000 109.500000,601.000000 1.000000,601.000000 
	C1.000000,401.000000 1.000000,201.000000 1.000000,1.000000 
	C201.000000,1.000000 401.000000,1.000000 601.000000,1.000000 
	C601.000000,201.000000 601.000000,401.000000 601.000000,601.000000 
	C509.833344,601.000000 418.666656,601.000000 327.000000,601.000000 
M503.040070,329.066650 
	C503.040070,326.316681 503.040070,323.566711 503.040070,320.371704 
	C492.771118,320.371704 483.186646,320.371704 473.571899,320.371704 
	C473.571899,317.344574 473.571899,314.811066 473.571899,312.018311 
	C481.264954,312.018311 488.568329,312.018311 496.007812,312.018311 
	C496.007812,305.348877 496.007812,298.952637 496.007812,292.065796 
	C488.259613,292.065796 480.850433,292.065796 473.427185,292.065796 
	C473.427185,289.476868 473.427185,287.388306 473.427185,284.700439 
	C483.044617,284.700439 492.426575,284.700439 501.706573,284.700439 
	C501.706573,277.685425 501.706573,271.279053 501.706573,264.864929 
	C483.155884,264.864929 464.927216,264.864929 446.763428,264.864929 
	C446.763428,290.413208 446.763428,315.614471 446.763428,340.689087 
	C465.712402,340.689087 484.270142,340.689087 502.959106,340.689087 
	C502.959106,336.844391 502.959106,333.363281 503.792236,329.649536 
	C517.903625,343.097931 538.781860,346.936218 555.437988,339.144073 
	C567.442749,333.527954 573.520325,320.605133 570.061707,308.023315 
	C567.291199,297.944580 559.509766,293.532471 550.331238,290.940826 
	C546.505371,289.860596 542.423645,289.683929 538.601990,288.592834 
	C537.018311,288.140717 535.811340,286.369232 534.433044,285.197784 
	C535.950256,284.119171 537.379944,282.320801 539.004272,282.123474 
	C541.728210,281.792450 544.675781,282.112762 547.346497,282.834747 
	C550.657410,283.729736 553.782227,285.313049 557.235718,286.698639 
	C561.756287,282.398346 566.308350,278.068054 570.831787,273.764954 
	C559.931213,259.637543 528.257874,258.956512 514.920471,270.177826 
	C500.739838,282.108643 503.135925,303.558502 519.919800,311.378113 
	C523.920349,313.242004 528.463196,313.971466 532.790283,315.092804 
	C535.037292,315.675079 537.518738,315.610138 539.588989,316.527039 
	C540.992920,317.148804 541.865967,318.969360 542.976440,320.253815 
	C541.674255,321.307159 540.516907,322.791168 539.028809,323.291687 
	C537.565613,323.783905 535.638733,323.653442 534.138062,323.142273 
	C528.860535,321.344513 523.678894,319.265411 518.054504,317.139465 
	C517.150818,317.949310 515.817017,319.192017 514.432922,320.376068 
	C510.617950,323.639709 506.781952,326.878815 503.040070,329.066650 
M169.273453,357.773682 
	C177.381805,349.706146 185.490173,341.638611 194.061905,333.110016 
	C183.027985,322.187622 172.422287,311.689117 161.418640,300.796692 
	C172.280106,289.966675 182.853729,279.423706 193.250076,269.057465 
	C178.911728,254.820984 164.785980,240.795609 150.467957,226.579315 
	C138.108017,238.964523 125.423691,251.674774 112.579460,264.545258 
	C99.557297,251.542221 86.748192,238.751953 74.357002,226.378983 
	C59.868961,240.822586 45.755348,254.892914 30.624617,269.977234 
	C41.249172,280.263916 52.067871,290.738586 63.586109,301.890533 
	C52.795532,312.643524 42.219776,323.182465 32.226078,333.141357 
	C46.128139,347.019745 60.211613,361.079254 74.725449,375.568390 
	C87.071518,363.210541 99.762939,350.506989 113.078796,337.178436 
	C125.802338,349.995178 138.537827,362.823944 151.319397,375.699127 
	C157.224655,369.803497 162.999008,364.038574 169.273453,357.773682 
M396.522430,289.760071 
	C396.217316,290.736084 395.912201,291.712097 395.162842,294.109131 
	C392.471191,284.556641 390.272186,276.411041 387.813446,268.344635 
	C387.375366,266.907532 385.888000,264.732300 384.836761,264.704132 
	C374.578918,264.429443 364.310791,264.538757 354.095062,264.538757 
	C354.095062,290.373596 354.095062,315.584229 354.095062,340.804565 
	C360.568695,340.804565 366.668518,340.804565 373.350708,340.804565 
	C373.350708,328.354980 373.350708,316.114014 373.350708,303.873016 
	C373.674347,303.844788 373.997986,303.816559 374.321625,303.788361 
	C377.542328,316.127380 380.763062,328.466400 383.984344,340.807556 
	C389.400696,340.807556 394.524963,340.807556 399.727020,340.807556 
	C403.162567,328.152405 406.548126,315.681244 409.933685,303.210114 
	C410.382050,303.300385 410.830444,303.390656 411.278809,303.480927 
	C411.278809,315.901917 411.278809,328.322876 411.278809,340.681030 
	C419.767334,340.681030 427.831238,340.681030 435.909882,340.681030 
	C435.909882,315.222900 435.909882,290.113312 435.909882,264.768219 
	C424.951935,264.768219 414.195496,264.768219 403.212708,264.768219 
	C401.032684,272.959106 398.896606,280.984894 396.522430,289.760071 
M208.858612,333.620514 
	C220.479019,345.511932 233.844315,346.627350 249.189331,337.018066 
	C253.946289,344.915894 261.229340,339.286224 267.335022,341.184601 
	C267.335022,325.999451 267.335022,311.597107 267.335022,297.095337 
	C255.781708,297.095337 244.526199,297.095337 233.045105,297.095337 
	C233.045105,303.046417 233.045105,308.773285 233.045105,314.932861 
	C236.186966,314.932861 239.113327,314.932861 242.048981,314.932861 
	C241.831802,320.519531 240.252075,323.144196 236.813278,323.784149 
	C233.056488,324.483276 230.793777,322.437622 229.368881,319.301727 
	C228.689560,317.806732 228.010483,316.144135 227.986877,314.547791 
	C227.886581,307.759979 227.614136,300.929962 228.237381,294.192383 
	C228.637405,289.868195 229.515961,284.651733 235.042557,283.738220 
	C240.634644,282.813904 241.870590,287.864868 243.818298,291.950836 
	C251.555862,290.953491 259.222900,289.965210 266.930389,288.971741 
	C263.770233,273.823578 255.382828,265.580872 241.374786,263.395203 
	C225.937485,260.986603 210.932709,267.211243 204.826645,280.072510 
	C196.250931,298.135651 196.837280,316.111969 208.858612,333.620514 
M295.307129,339.039276 
	C296.294556,335.400238 297.282013,331.761230 298.307098,327.983490 
	C301.484436,327.983490 304.302063,327.983459 307.119720,327.983490 
	C317.242096,327.983551 317.186584,328.003113 320.529510,337.488647 
	C320.999146,338.821228 322.290558,340.837219 323.256439,340.868988 
	C331.480835,341.139282 339.717926,341.023651 348.041626,341.023651 
	C347.960358,339.916107 348.023773,339.393707 347.874237,338.941742 
	C339.989532,315.105408 332.133301,291.259186 324.060211,267.486633 
	C323.617493,266.182953 321.386658,264.718445 319.932037,264.656952 
	C312.952515,264.362122 305.944977,264.731262 298.965454,264.436523 
	C295.522797,264.291138 294.060669,265.336853 293.123260,268.710144 
	C286.845612,291.300629 280.337891,313.827148 273.914429,336.377167 
	C273.517578,337.770233 273.202576,339.186584 272.739044,341.031860 
	C278.350311,341.031860 283.495575,341.143402 288.631989,340.978790 
	C290.787659,340.909729 292.924591,340.256012 295.307129,339.039276 
z"/>
<path fill="#151013" opacity="1.000000" stroke="none" 
	d="
M169.023407,358.023651 
	C162.999008,364.038574 157.224655,369.803497 151.319397,375.699127 
	C138.537827,362.823944 125.802338,349.995178 113.078796,337.178436 
	C99.762939,350.506989 87.071518,363.210541 74.725449,375.568390 
	C60.211613,361.079254 46.128139,347.019745 32.226078,333.141357 
	C42.219776,323.182465 52.795532,312.643524 63.586109,301.890533 
	C52.067871,290.738586 41.249172,280.263916 30.624617,269.977234 
	C45.755348,254.892914 59.868961,240.822586 74.357002,226.378983 
	C86.748192,238.751953 99.557297,251.542221 112.579460,264.545258 
	C125.423691,251.674774 138.108017,238.964523 150.467957,226.579315 
	C164.785980,240.795609 178.911728,254.820984 193.250076,269.057465 
	C182.853729,279.423706 172.280106,289.966675 161.418640,300.796692 
	C172.422287,311.689117 183.027985,322.187622 194.061905,333.110016 
	C185.490173,341.638611 177.381805,349.706146 169.023407,358.023651 
M139.351776,256.851715 
	C134.318695,263.433624 124.884209,266.804810 125.252663,277.659851 
	C116.376556,273.045197 107.996338,273.827393 98.730270,277.566864 
	C100.756531,270.876099 96.573730,267.935577 93.182709,264.566467 
	C90.347359,261.749420 87.536133,258.908142 84.708565,256.083282 
	C81.106773,252.484909 77.499283,248.892242 74.616249,246.017136 
	C66.460518,254.114243 58.845482,261.674530 50.385403,270.073792 
	C60.750973,280.095825 71.463699,290.453491 83.394463,301.988831 
	C72.110580,312.738129 61.323723,323.013947 51.312115,332.551239 
	C59.202118,340.488373 66.765022,348.096466 74.776840,356.156158 
	C79.486725,351.340240 84.706451,346.222992 89.666168,340.865112 
	C93.981590,336.203247 100.657921,333.014801 99.318115,324.279968 
	C108.435722,328.763947 116.816940,328.281372 126.113182,324.229980 
	C124.134186,331.267639 128.499496,334.271790 131.990051,337.755493 
	C135.644180,341.402435 139.285965,345.061707 142.941071,348.707672 
	C145.591431,351.351349 148.254700,353.982117 150.154190,355.866577 
	C158.311493,347.706726 165.902466,340.113373 174.477173,331.535980 
	C164.317154,321.497192 153.734879,311.041168 142.454803,299.895691 
	C153.002213,289.464905 163.505737,279.077545 173.234222,269.456604 
	C165.465851,261.794678 157.729370,254.164185 149.553574,246.100403 
	C146.711029,249.103821 143.281296,252.727631 139.351776,256.851715 
z"/>
<path fill="#140D0F" opacity="1.000000" stroke="none" 
	d="
M396.641479,289.385376 
	C398.896606,280.984894 401.032684,272.959106 403.212708,264.768219 
	C414.195496,264.768219 424.951935,264.768219 435.909882,264.768219 
	C435.909882,290.113312 435.909882,315.222900 435.909882,340.681030 
	C427.831238,340.681030 419.767334,340.681030 411.278809,340.681030 
	C411.278809,328.322876 411.278809,315.901917 411.278809,303.480927 
	C410.830444,303.390656 410.382050,303.300385 409.933685,303.210114 
	C406.548126,315.681244 403.162567,328.152405 399.727020,340.807556 
	C394.524963,340.807556 389.400696,340.807556 383.984344,340.807556 
	C380.763062,328.466400 377.542328,316.127380 374.321625,303.788361 
	C373.997986,303.816559 373.674347,303.844788 373.350708,303.873016 
	C373.350708,316.114014 373.350708,328.354980 373.350708,340.804565 
	C366.668518,340.804565 360.568695,340.804565 354.095062,340.804565 
	C354.095062,315.584229 354.095062,290.373596 354.095062,264.538757 
	C364.310791,264.538757 374.578918,264.429443 384.836761,264.704132 
	C385.888000,264.732300 387.375366,266.907532 387.813446,268.344635 
	C390.272186,276.411041 392.471191,284.556641 395.162842,294.109131 
	C395.912201,291.712097 396.217316,290.736084 396.641479,289.385376 
z"/>
<path fill="#160F11" opacity="1.000000" stroke="none" 
	d="
M208.624313,333.352722 
	C196.837280,316.111969 196.250931,298.135651 204.826645,280.072510 
	C210.932709,267.211243 225.937485,260.986603 241.374786,263.395203 
	C255.382828,265.580872 263.770233,273.823578 266.930389,288.971741 
	C259.222900,289.965210 251.555862,290.953491 243.818298,291.950836 
	C241.870590,287.864868 240.634644,282.813904 235.042557,283.738220 
	C229.515961,284.651733 228.637405,289.868195 228.237381,294.192383 
	C227.614136,300.929962 227.886581,307.759979 227.986877,314.547791 
	C228.010483,316.144135 228.689560,317.806732 229.368881,319.301727 
	C230.793777,322.437622 233.056488,324.483276 236.813278,323.784149 
	C240.252075,323.144196 241.831802,320.519531 242.048981,314.932861 
	C239.113327,314.932861 236.186966,314.932861 233.045105,314.932861 
	C233.045105,308.773285 233.045105,303.046417 233.045105,297.095337 
	C244.526199,297.095337 255.781708,297.095337 267.335022,297.095337 
	C267.335022,311.597107 267.335022,325.999451 267.335022,341.184601 
	C261.229340,339.286224 253.946289,344.915894 249.189331,337.018066 
	C233.844315,346.627350 220.479019,345.511932 208.624313,333.352722 
z"/>
<path fill="#160F11" opacity="1.000000" stroke="none" 
	d="
M502.954224,330.127625 
	C506.781952,326.878815 510.617950,323.639709 514.432922,320.376068 
	C515.817017,319.192017 517.150818,317.949310 518.054504,317.139465 
	C523.678894,319.265411 528.860535,321.344513 534.138062,323.142273 
	C535.638733,323.653442 537.565613,323.783905 539.028809,323.291687 
	C540.516907,322.791168 541.674255,321.307159 542.976440,320.253784 
	C541.865967,318.969360 540.992920,317.148804 539.588989,316.527039 
	C537.518738,315.610138 535.037292,315.675079 532.790283,315.092804 
	C528.463196,313.971466 523.920349,313.242004 519.919800,311.378113 
	C503.135925,303.558502 500.739838,282.108643 514.920471,270.177826 
	C528.257874,258.956512 559.931213,259.637543 570.831787,273.764954 
	C566.308350,278.068054 561.756287,282.398346 557.235718,286.698639 
	C553.782227,285.313049 550.657410,283.729736 547.346497,282.834747 
	C544.675781,282.112762 541.728210,281.792450 539.004272,282.123474 
	C537.379944,282.320801 535.950256,284.119171 534.433044,285.197784 
	C535.811340,286.369232 537.018311,288.140717 538.601990,288.592834 
	C542.423645,289.683929 546.505371,289.860596 550.331238,290.940826 
	C559.509766,293.532471 567.291199,297.944580 570.061707,308.023315 
	C573.520325,320.605133 567.442749,333.527954 555.437988,339.144073 
	C538.781860,346.936218 517.903625,343.097931 503.386108,329.806610 
	C502.979980,329.963684 502.954224,330.127594 502.954224,330.127625 
z"/>
<path fill="#160F11" opacity="1.000000" stroke="none" 
	d="
M502.997131,329.597107 
	C502.954224,330.127594 502.979980,329.963684 502.969543,329.922913 
	C502.959106,333.363281 502.959106,336.844391 502.959106,340.689087 
	C484.270142,340.689087 465.712402,340.689087 446.763428,340.689087 
	C446.763428,315.614471 446.763428,290.413208 446.763428,264.864929 
	C464.927216,264.864929 483.155884,264.864929 501.706573,264.864929 
	C501.706573,271.279053 501.706573,277.685425 501.706573,284.700439 
	C492.426575,284.700439 483.044617,284.700439 473.427185,284.700439 
	C473.427185,287.388306 473.427185,289.476868 473.427185,292.065796 
	C480.850433,292.065796 488.259613,292.065796 496.007812,292.065796 
	C496.007812,298.952637 496.007812,305.348877 496.007812,312.018311 
	C488.568329,312.018311 481.264954,312.018311 473.571899,312.018311 
	C473.571899,314.811066 473.571899,317.344574 473.571899,320.371704 
	C483.186646,320.371704 492.771118,320.371704 503.040070,320.371704 
	C503.040070,323.566711 503.040070,326.316681 502.997131,329.597107 
z"/>
<path fill="#150E10" opacity="1.000000" stroke="none" 
	d="
M295.188599,339.453674 
	C292.924591,340.256012 290.787659,340.909729 288.631989,340.978790 
	C283.495575,341.143402 278.350311,341.031860 272.739044,341.031860 
	C273.202576,339.186584 273.517578,337.770233 273.914429,336.377167 
	C280.337891,313.827148 286.845612,291.300629 293.123260,268.710144 
	C294.060669,265.336853 295.522797,264.291138 298.965454,264.436523 
	C305.944977,264.731262 312.952515,264.362122 319.932037,264.656952 
	C321.386658,264.718445 323.617493,266.182953 324.060211,267.486633 
	C332.133301,291.259186 339.989532,315.105408 347.874237,338.941742 
	C348.023773,339.393707 347.960358,339.916107 348.041626,341.023651 
	C339.717926,341.023651 331.480835,341.139282 323.256439,340.868988 
	C322.290558,340.837219 320.999146,338.821228 320.529510,337.488647 
	C317.186584,328.003113 317.242096,327.983551 307.119720,327.983490 
	C304.302063,327.983459 301.484436,327.983490 298.307098,327.983490 
	C297.282013,331.761230 296.294556,335.400238 295.188599,339.453674 
M303.868500,303.403503 
	C303.481781,305.137543 303.095062,306.871552 302.673767,308.760559 
	C305.930176,308.760559 308.755920,308.760559 311.914917,308.760559 
	C310.282043,303.168732 308.783569,298.037109 307.285065,292.905518 
	C306.980225,292.957764 306.675354,293.010010 306.370483,293.062256 
	C305.588562,296.228790 304.806610,299.395294 303.868500,303.403503 
z"/>
<path fill="#0E76BC" opacity="1.000000" stroke="none" 
	d="
M139.601685,256.601562 
	C143.281296,252.727631 146.711029,249.103821 149.553574,246.100403 
	C157.729370,254.164185 165.465851,261.794678 173.234222,269.456604 
	C163.505737,279.077545 153.002213,289.464905 142.454803,299.895691 
	C153.734879,311.041168 164.317154,321.497192 174.477173,331.535980 
	C165.902466,340.113373 158.311493,347.706726 150.154190,355.866577 
	C148.254700,353.982117 145.591431,351.351349 142.941071,348.707672 
	C139.285965,345.061707 135.644180,341.402435 131.990051,337.755493 
	C128.499496,334.271790 124.134186,331.267639 126.113182,324.229980 
	C116.816940,328.281372 108.435722,328.763947 99.318115,324.279968 
	C100.657921,333.014801 93.981590,336.203247 89.666168,340.865112 
	C84.706451,346.222992 79.486725,351.340240 74.776840,356.156158 
	C66.765022,348.096466 59.202118,340.488373 51.312115,332.551239 
	C61.323723,323.013947 72.110580,312.738129 83.394463,301.988831 
	C71.463699,290.453491 60.750973,280.095825 50.385403,270.073792 
	C58.845482,261.674530 66.460518,254.114243 74.616249,246.017136 
	C77.499283,248.892242 81.106773,252.484909 84.708565,256.083282 
	C87.536133,258.908142 90.347359,261.749420 93.182709,264.566467 
	C96.573730,267.935577 100.756531,270.876099 98.730270,277.566864 
	C107.996338,273.827393 116.376556,273.045197 125.252663,277.659851 
	C124.884209,266.804810 134.318695,263.433624 139.601685,256.601562 
M126.409935,319.007355 
	C127.262558,318.214539 128.162323,317.466278 128.960571,316.622070 
	C137.578995,307.507263 137.294464,293.544708 128.327225,284.715118 
	C119.322311,275.848419 105.505165,275.862946 96.476212,284.748596 
	C88.282822,292.811951 87.305130,305.907532 94.233604,314.786926 
	C102.052795,324.807861 114.369537,326.626770 126.409935,319.007355 
z"/>
<path fill="#ECEBEC" opacity="1.000000" stroke="none" 
	d="
M303.946594,302.982666 
	C304.806610,299.395294 305.588562,296.228790 306.370483,293.062256 
	C306.675354,293.010010 306.980225,292.957764 307.285065,292.905518 
	C308.783569,298.037109 310.282043,303.168732 311.914917,308.760559 
	C308.755920,308.760559 305.930176,308.760559 302.673767,308.760559 
	C303.095062,306.871552 303.481781,305.137543 303.946594,302.982666 
z"/>
<path fill="#1A181D" opacity="1.000000" stroke="none" 
	d="
M126.120605,319.230286 
	C114.369537,326.626770 102.052795,324.807861 94.233604,314.786926 
	C87.305130,305.907532 88.282822,292.811951 96.476212,284.748596 
	C105.505165,275.862946 119.322311,275.848419 128.327225,284.715118 
	C137.294464,293.544708 137.578995,307.507263 128.960571,316.622070 
	C128.162323,317.466278 127.262558,318.214539 126.120605,319.230286 
M102.380348,317.310486 
	C109.796555,321.462524 117.123375,321.274170 123.925461,316.197083 
	C130.457047,311.321899 132.501846,304.400360 130.854584,296.634979 
	C129.269028,289.160583 124.414619,284.356873 117.000290,282.407074 
	C108.460861,280.161407 99.468849,284.286499 95.484268,292.095642 
	C91.111450,300.665649 93.532074,310.276031 102.380348,317.310486 
z"/>
<path fill="#E3E2E2" opacity="1.000000" stroke="none" 
	d="
M102.059891,317.120178 
	C93.532074,310.276031 91.111450,300.665649 95.484268,292.095642 
	C99.468849,284.286499 108.460861,280.161407 117.000290,282.407074 
	C124.414619,284.356873 129.269028,289.160583 130.854584,296.634979 
	C132.501846,304.400360 130.457047,311.321899 123.925461,316.197083 
	C117.123375,321.274170 109.796555,321.462524 102.059891,317.120178 
M97.916718,299.753235 
	C100.956398,299.496185 104.291809,294.686829 102.776703,292.388336 
	C102.234863,291.566376 100.378929,291.610687 99.122795,291.259613 
	C98.461800,294.055603 97.800812,296.851593 97.916718,299.753235 
M126.698174,292.799072 
	C125.424797,292.318115 124.151421,291.837189 122.878044,291.356262 
	C122.878044,294.042358 122.878044,296.728455 122.878044,299.471954 
	C125.057915,299.471954 126.611580,299.471954 128.816177,299.471954 
	C128.142136,297.207275 127.600243,295.386505 126.698174,292.799072 
M97.193092,307.248840 
	C98.593140,308.456848 99.993187,309.664856 101.393227,310.872833 
	C101.762344,308.147949 102.131454,305.423096 102.533112,302.457947 
	C99.707001,302.457947 98.121666,302.457947 96.161880,302.457947 
	C96.470062,304.006470 96.718750,305.256042 97.193092,307.248840 
M123.565720,310.954407 
	C128.411758,310.026184 127.658318,306.036438 128.508240,302.478394 
	C126.492645,302.478394 124.903847,302.478394 122.820053,302.478394 
	C122.820053,305.320282 122.820053,307.943390 123.565720,310.954407 
M108.261391,293.869171 
	C102.950905,293.102722 105.698257,297.239838 104.401398,299.503601 
	C106.870926,299.503601 108.763428,299.503601 111.969551,299.503601 
	C110.785576,297.214966 109.965027,295.628815 108.261391,293.869171 
M104.860573,305.462097 
	C104.999557,308.545135 107.017151,309.228241 109.063408,307.785004 
	C110.363739,306.867889 110.688873,304.568085 111.451309,302.888275 
	C110.849396,302.379547 110.247482,301.870819 109.645569,301.362091 
	C107.995308,302.424652 106.345055,303.487244 104.860573,305.462097 
M114.759094,299.668579 
	C116.494545,299.668579 118.229996,299.668579 120.533676,299.668579 
	C119.945976,297.171753 119.515007,295.340759 119.014252,293.213348 
	C117.048607,293.738251 115.532539,294.143097 113.696663,294.633362 
	C113.825394,296.267639 113.938446,297.702942 114.759094,299.668579 
M118.372147,308.523865 
	C119.108665,306.687408 119.845184,304.850952 120.793785,302.485657 
	C117.999115,302.485657 116.126633,302.485657 114.285751,302.485657 
	C113.548233,307.154327 113.548233,307.154327 118.372147,308.523865 
z"/>
<path fill="#2A2426" opacity="1.000000" stroke="none" 
	d="
M97.528275,299.700409 
	C97.800812,296.851593 98.461800,294.055603 99.122787,291.259613 
	C100.378929,291.610687 102.234863,291.566376 102.776703,292.388336 
	C104.291809,294.686829 100.956398,299.496185 97.528275,299.700409 
z"/>
<path fill="#2C2527" opacity="1.000000" stroke="none" 
	d="
M126.878258,293.182434 
	C127.600243,295.386505 128.142136,297.207275 128.816177,299.471954 
	C126.611580,299.471954 125.057915,299.471954 122.878044,299.471954 
	C122.878044,296.728455 122.878044,294.042358 122.878044,291.356262 
	C124.151421,291.837189 125.424797,292.318115 126.878258,293.182434 
z"/>
<path fill="#292224" opacity="1.000000" stroke="none" 
	d="
M97.080261,306.877197 
	C96.718750,305.256042 96.470062,304.006470 96.161880,302.457947 
	C98.121666,302.457947 99.707001,302.457947 102.533112,302.457947 
	C102.131454,305.423096 101.762344,308.147949 101.393227,310.872833 
	C99.993187,309.664856 98.593140,308.456848 97.080261,306.877197 
z"/>
<path fill="#292224" opacity="1.000000" stroke="none" 
	d="
M123.192886,310.760437 
	C122.820053,307.943390 122.820053,305.320282 122.820053,302.478394 
	C124.903847,302.478394 126.492645,302.478394 128.508240,302.478394 
	C127.658318,306.036438 128.411758,310.026184 123.192886,310.760437 
z"/>
<path fill="#2A2426" opacity="1.000000" stroke="none" 
	d="
M108.702927,293.955933 
	C109.965027,295.628815 110.785576,297.214966 111.969551,299.503601 
	C108.763428,299.503601 106.870926,299.503601 104.401398,299.503601 
	C105.698257,297.239838 102.950905,293.102722 108.702927,293.955933 
z"/>
<path fill="#2A2426" opacity="1.000000" stroke="none" 
	d="
M104.777687,305.005951 
	C106.345055,303.487244 107.995308,302.424652 109.645569,301.362091 
	C110.247482,301.870819 110.849396,302.379547 111.451309,302.888275 
	C110.688873,304.568085 110.363739,306.867889 109.063408,307.785004 
	C107.017151,309.228241 104.999557,308.545135 104.777687,305.005951 
z"/>
<path fill="#292224" opacity="1.000000" stroke="none" 
	d="
M114.405296,299.403412 
	C113.938446,297.702942 113.825394,296.267639 113.696663,294.633362 
	C115.532539,294.143097 117.048607,293.738251 119.014252,293.213348 
	C119.515007,295.340759 119.945976,297.171753 120.533676,299.668579 
	C118.229996,299.668579 116.494545,299.668579 114.405296,299.403412 
z"/>
<path fill="#262022" opacity="1.000000" stroke="none" 
	d="
M117.928680,308.429749 
	C113.548233,307.154327 113.548233,307.154327 114.285751,302.485657 
	C116.126633,302.485657 117.999115,302.485657 120.793785,302.485657 
	C119.845184,304.850952 119.108665,306.687408 117.928680,308.429749 
z"/>
</svg>